Sans_opsz12.ufo
<glyph name="exclam" format="2">
	<unicode hex="0021"/>
	<advance width="622"/>
	<outline>
		<contour>
			<point x="238" y="842" type="curve" smooth="yes"/>
			<point x="240" y="676"/>
			<point x="243" y="512"/>
			<point x="246" y="346" type="curve"/>
			<point x="246" y="346"/>
			<point x="246" y="346"/>
			<point x="246" y="346" type="curve"/>
			<point x="376" y="346" type="line"/>
			<point x="376" y="346"/>
			<point x="376" y="346"/>
			<point x="376" y="346" type="curve"/>
			<point x="379" y="511"/>
			<point x="382" y="676"/>
			<point x="384" y="842" type="curve" smooth="yes"/>
			<point x="386" y="1024"/>
			<point x="389" y="1206"/>
			<point x="392" y="1388" type="curve"/>
			<point x="392" y="1388"/>
			<point x="392" y="1388"/>
			<point x="392" y="1388" type="curve"/>
			<point x="230" y="1388" type="line"/>
			<point x="230" y="1388"/>
			<point x="230" y="1388"/>
			<point x="230" y="1388" type="curve"/>
			<point x="233" y="1206"/>
			<point x="236" y="1024"/>
		</contour>
		<contour>
			<point x="230" y="0" type="line"/>
			<point x="230" y="0"/>
			<point x="230" y="0"/>
			<point x="230" y="0" type="curve"/>
			<point x="392" y="0" type="line"/>
			<point x="392" y="0"/>
			<point x="392" y="0"/>
			<point x="392" y="0" type="curve"/>
			<point x="392" y="162" type="line"/>
			<point x="392" y="162"/>
			<point x="392" y="162"/>
			<point x="392" y="162" type="curve"/>
			<point x="230" y="162" type="line"/>
			<point x="230" y="162"/>
			<point x="230" y="162"/>
			<point x="230" y="162" type="curve"/>
		</contour>
	</outline>
</glyph>
<glyph name="numbersign" format="2">
	<unicode hex="0023"/>
	<advance width="1630"/>
	<outline>
		<contour>
			<point x="1018" y="270" type="line"/>
			<point x="1458" y="270" type="line" smooth="yes"/>
			<point x="1486" y="270"/>
			<point x="1522" y="270"/>
			<point x="1522" y="306" type="curve" smooth="yes"/>
			<point x="1522" y="344"/>
			<point x="1488" y="344"/>
			<point x="1458" y="344" type="curve" smooth="yes"/>
			<point x="1038" y="344" type="line"/>
			<point x="1120" y="654" type="line"/>
			<point x="1458" y="654" type="line" smooth="yes"/>
			<point x="1486" y="654"/>
			<point x="1522" y="654"/>
			<point x="1522" y="690" type="curve" smooth="yes"/>
			<point x="1522" y="728"/>
			<point x="1488" y="728"/>
			<point x="1458" y="728" type="curve" smooth="yes"/>
			<point x="1142" y="728" type="line"/>
			<point x="1296" y="1314" type="line" smooth="yes"/>
			<point x="1304" y="1342"/>
			<point x="1304" y="1348"/>
			<point x="1304" y="1350" type="curve" smooth="yes"/>
			<point x="1304" y="1372"/>
			<point x="1288" y="1388"/>
			<point x="1266" y="1388" type="curve" smooth="yes"/>
			<point x="1238" y="1388"/>
			<point x="1232" y="1362"/>
			<point x="1226" y="1342" type="curve" smooth="yes"/>
			<point x="1064" y="728" type="line"/>
			<point x="690" y="728" type="line"/>
			<point x="844" y="1314" type="line" smooth="yes"/>
			<point x="852" y="1342"/>
			<point x="852" y="1348"/>
			<point x="852" y="1350" type="curve" smooth="yes"/>
			<point x="852" y="1372"/>
			<point x="836" y="1388"/>
			<point x="814" y="1388" type="curve" smooth="yes"/>
			<point x="786" y="1388"/>
			<point x="780" y="1362"/>
			<point x="774" y="1342" type="curve" smooth="yes"/>
			<point x="612" y="728" type="line"/>
			<point x="172" y="728" type="line" smooth="yes"/>
			<point x="144" y="728"/>
			<point x="108" y="728"/>
			<point x="108" y="692" type="curve" smooth="yes"/>
			<point x="108" y="654"/>
			<point x="142" y="654"/>
			<point x="172" y="654" type="curve" smooth="yes"/>
			<point x="592" y="654" type="line"/>
			<point x="510" y="344" type="line"/>
			<point x="172" y="344" type="line" smooth="yes"/>
			<point x="144" y="344"/>
			<point x="108" y="344"/>
			<point x="108" y="308" type="curve" smooth="yes"/>
			<point x="108" y="270"/>
			<point x="142" y="270"/>
			<point x="172" y="270" type="curve" smooth="yes"/>
			<point x="488" y="270" type="line"/>
			<point x="334" y="-314" type="line" smooth="yes"/>
			<point x="326" y="-342"/>
			<point x="326" y="-348"/>
			<point x="326" y="-350" type="curve" smooth="yes"/>
			<point x="326" y="-372"/>
			<point x="342" y="-388"/>
			<point x="364" y="-388" type="curve" smooth="yes"/>
			<point x="392" y="-388"/>
			<point x="398" y="-362"/>
			<point x="404" y="-342" type="curve" smooth="yes"/>
			<point x="566" y="270" type="line"/>
			<point x="940" y="270" type="line"/>
			<point x="786" y="-314" type="line" smooth="yes"/>
			<point x="778" y="-342"/>
			<point x="778" y="-348"/>
			<point x="778" y="-350" type="curve" smooth="yes"/>
			<point x="778" y="-372"/>
			<point x="794" y="-388"/>
			<point x="816" y="-388" type="curve" smooth="yes"/>
			<point x="844" y="-388"/>
			<point x="850" y="-362"/>
			<point x="856" y="-342" type="curve" smooth="yes"/>
		</contour>
		<contour>
			<point x="586" y="344" type="line"/>
			<point x="668" y="654" type="line"/>
			<point x="1044" y="654" type="line"/>
			<point x="962" y="344" type="line"/>
		</contour>
	</outline>
</glyph>
<glyph name="dollar" format="2">
	<unicode hex="0024"/>
	<advance width="978"/>
	<outline>
		<contour>
			<point x="548" y="1282" type="line"/>
			<point x="654" y="1274"/>
			<point x="744" y="1226"/>
			<point x="812" y="1166" type="curve"/>
			<point x="812" y="1166"/>
			<point x="812" y="1166"/>
			<point x="812" y="1166" type="curve"/>
			<point x="812" y="1166"/>
			<point x="812" y="1166"/>
			<point x="812" y="1166" type="curve"/>
			<point x="834" y="1290" type="line"/>
			<point x="834" y="1290"/>
			<point x="834" y="1290"/>
			<point x="834" y="1290" type="curve"/>
			<point x="834" y="1298"/>
			<point x="724" y="1392"/>
			<point x="548" y="1406" type="curve"/>
			<point x="548" y="1500" type="line"/>
			<point x="548" y="1500"/>
			<point x="548" y="1500"/>
			<point x="548" y="1500" type="curve"/>
			<point x="432" y="1500" type="line"/>
			<point x="432" y="1500"/>
			<point x="432" y="1500"/>
			<point x="432" y="1500" type="curve"/>
			<point x="432" y="1404" type="line"/>
			<point x="238" y="1372"/>
			<point x="108" y="1208"/>
			<point x="108" y="1026" type="curve" smooth="yes"/>
			<point x="108" y="942"/>
			<point x="146" y="712"/>
			<point x="432" y="648" type="curve"/>
			<point x="432" y="108" type="line"/>
			<point x="270" y="122"/>
			<point x="162" y="208"/>
			<point x="112" y="254" type="curve"/>
			<point x="112" y="254"/>
			<point x="112" y="254"/>
			<point x="112" y="254" type="curve"/>
			<point x="112" y="254"/>
			<point x="112" y="254"/>
			<point x="112" y="254" type="curve"/>
			<point x="104" y="209"/>
			<point x="96" y="163"/>
			<point x="88" y="118" type="curve"/>
			<point x="88" y="118"/>
			<point x="88" y="118"/>
			<point x="88" y="118" type="curve"/>
			<point x="174" y="54"/>
			<point x="284" y="-4"/>
			<point x="432" y="-18" type="curve"/>
			<point x="432" y="-112" type="line"/>
			<point x="432" y="-112"/>
			<point x="432" y="-112"/>
			<point x="432" y="-112" type="curve"/>
			<point x="548" y="-112" type="line"/>
			<point x="548" y="-112"/>
			<point x="548" y="-112"/>
			<point x="548" y="-112" type="curve"/>
			<point x="548" y="-14" type="line"/>
			<point x="730" y="16"/>
			<point x="870" y="184"/>
			<point x="870" y="390" type="curve" smooth="yes"/>
			<point x="870" y="526"/>
			<point x="798" y="738"/>
			<point x="548" y="796" type="curve"/>
		</contour>
		<contour>
			<point x="432" y="826" type="line"/>
			<point x="300" y="858"/>
			<point x="248" y="966"/>
			<point x="248" y="1052" type="curve" smooth="yes"/>
			<point x="248" y="1144"/>
			<point x="308" y="1246"/>
			<point x="432" y="1278" type="curve"/>
		</contour>
		<contour>
			<point x="548" y="618" type="line"/>
			<point x="670" y="584"/>
			<point x="730" y="470"/>
			<point x="730" y="366" type="curve" smooth="yes"/>
			<point x="730" y="244"/>
			<point x="656" y="142"/>
			<point x="548" y="112" type="curve"/>
		</contour>
	</outline>
</glyph>
<glyph name="percent" format="2">
  <advance width="815"/>
  <unicode hex="0025"/>
  <outline>
    <contour>
      <point x="192" y="-56" type="curve" smooth="yes"/>
      <point x="203" y="-56"/>
      <point x="207" y="-48"/>
      <point x="212" y="-39" type="curve" smooth="yes"/>
      <point x="638" y="713" type="line" smooth="yes"/>
      <point x="645" y="725"/>
      <point x="645" y="730"/>
      <point x="645" y="731" type="curve" smooth="yes"/>
      <point x="645" y="744"/>
      <point x="635" y="750"/>
      <point x="627" y="750" type="curve" smooth="yes"/>
      <point x="622" y="750"/>
      <point x="615" y="750"/>
      <point x="605" y="732" type="curve" smooth="yes"/>
      <point x="180" y="-19" type="line" smooth="yes"/>
      <point x="173" y="-31"/>
      <point x="173" y="-36"/>
      <point x="173" y="-37" type="curve" smooth="yes"/>
      <point x="173" y="-47"/>
      <point x="181" y="-56"/>
    </contour>
    <contour>
      <point x="191" y="407" type="curve" smooth="yes"/>
      <point x="171" y="407"/>
      <point x="129" y="424"/>
      <point x="129" y="548" type="curve" smooth="yes"/>
      <point x="129" y="677"/>
      <point x="173" y="690"/>
      <point x="191" y="690" type="curve" smooth="yes"/>
      <point x="230" y="690"/>
      <point x="256" y="621"/>
      <point x="256" y="549" type="curve" smooth="yes"/>
      <point x="256" y="474"/>
      <point x="229" y="407"/>
    </contour>
    <contour>
      <point x="191" y="347" type="curve" smooth="yes"/>
      <point x="263" y="347"/>
      <point x="326" y="433"/>
      <point x="326" y="548" type="curve" smooth="yes"/>
      <point x="326" y="667"/>
      <point x="261" y="750"/>
      <point x="191" y="750" type="curve" smooth="yes"/>
      <point x="121" y="750"/>
      <point x="54" y="667"/>
      <point x="54" y="549" type="curve" smooth="yes"/>
      <point x="54" y="428"/>
      <point x="122" y="347"/>
    </contour>
    <contour>
      <point x="626" y="4" type="curve" smooth="yes"/>
      <point x="606" y="4"/>
      <point x="564" y="21"/>
      <point x="564" y="145" type="curve" smooth="yes"/>
      <point x="564" y="274"/>
      <point x="608" y="287"/>
      <point x="626" y="287" type="curve" smooth="yes"/>
      <point x="665" y="287"/>
      <point x="691" y="218"/>
      <point x="691" y="146" type="curve" smooth="yes"/>
      <point x="691" y="71"/>
      <point x="664" y="4"/>
    </contour>
    <contour>
      <point x="626" y="-56" type="curve" smooth="yes"/>
      <point x="698" y="-56"/>
      <point x="761" y="30"/>
      <point x="761" y="145" type="curve" smooth="yes"/>
      <point x="761" y="264"/>
      <point x="696" y="347"/>
      <point x="626" y="347" type="curve" smooth="yes"/>
      <point x="556" y="347"/>
      <point x="489" y="264"/>
      <point x="489" y="146" type="curve" smooth="yes"/>
      <point x="489" y="25"/>
      <point x="557" y="-56"/>
    </contour>
  </outline>
</glyph>
<glyph name="ampersand" format="2">
	<unicode hex="0026"/>
	<advance width="1480"/>
	<outline>
		<contour>
			<point x="442" y="-42" type="curve" smooth="yes"/>
			<point x="504" y="-42"/>
			<point x="660" y="-34"/>
			<point x="830" y="74" type="curve"/>
			<point x="968" y="-32"/>
			<point x="1078" y="-42"/>
			<point x="1148" y="-42" type="curve" smooth="yes"/>
			<point x="1168" y="-42"/>
			<point x="1254" y="-42"/>
			<point x="1372" y="-10" type="curve"/>
			<point x="1372" y="-10"/>
			<point x="1372" y="-10"/>
			<point x="1372" y="-10" type="curve"/>
			<point x="1372" y="122" type="line"/>
			<point x="1372" y="122"/>
			<point x="1372" y="122"/>
			<point x="1372" y="122" type="curve"/>
			<point x="1372" y="122"/>
			<point x="1372" y="122"/>
			<point x="1372" y="122" type="curve"/>
			<point x="1294" y="94"/>
			<point x="1208" y="82"/>
			<point x="1150" y="82" type="curve" smooth="yes"/>
			<point x="1122" y="82"/>
			<point x="1042" y="82"/>
			<point x="944" y="160" type="curve"/>
			<point x="1158" y="362"/>
			<point x="1258" y="596"/>
			<point x="1304" y="778" type="curve"/>
			<point x="1304" y="778"/>
			<point x="1304" y="778"/>
			<point x="1304" y="778" type="curve"/>
			<point x="1182" y="812" type="line"/>
			<point x="1182" y="812"/>
			<point x="1182" y="812"/>
			<point x="1182" y="812" type="curve"/>
			<point x="1114" y="562"/>
			<point x="1002" y="374"/>
			<point x="852" y="244" type="curve"/>
			<point x="828" y="270"/>
			<point x="624" y="512"/>
			<point x="546" y="688" type="curve"/>
			<point x="740" y="860"/>
			<point x="846" y="992"/>
			<point x="846" y="1120" type="curve" smooth="yes"/>
			<point x="846" y="1266"/>
			<point x="752" y="1430"/>
			<point x="588" y="1430" type="curve" smooth="yes"/>
			<point x="422" y="1430"/>
			<point x="316" y="1252"/>
			<point x="316" y="1036" type="curve" smooth="yes"/>
			<point x="316" y="862"/>
			<point x="376" y="708"/>
			<point x="380" y="698" type="curve"/>
			<point x="326" y="650"/>
			<point x="274" y="602"/>
			<point x="220" y="554" type="curve" smooth="yes"/>
			<point x="164" y="504"/>
			<point x="82" y="430"/>
			<point x="82" y="290" type="curve" smooth="yes"/>
			<point x="82" y="116"/>
			<point x="228" y="-42"/>
		</contour>
		<contour>
			<point x="498" y="806" type="curve"/>
			<point x="458" y="924"/>
			<point x="446" y="1038"/>
			<point x="446" y="1104" type="curve" smooth="yes"/>
			<point x="446" y="1250"/>
			<point x="522" y="1310"/>
			<point x="588" y="1310" type="curve" smooth="yes"/>
			<point x="690" y="1310"/>
			<point x="706" y="1172"/>
			<point x="706" y="1122" type="curve" smooth="yes"/>
			<point x="706" y="1008"/>
			<point x="604" y="910"/>
		</contour>
		<contour>
			<point x="430" y="582" type="curve"/>
			<point x="534" y="390"/>
			<point x="654" y="246"/>
			<point x="734" y="160" type="curve"/>
			<point x="674" y="124"/>
			<point x="562" y="82"/>
			<point x="444" y="82" type="curve" smooth="yes"/>
			<point x="300" y="82"/>
			<point x="234" y="204"/>
			<point x="234" y="302" type="curve" smooth="yes"/>
			<point x="234" y="377"/>
			<point x="257" y="422"/>
			<point x="316" y="481" type="curve" smooth="yes"/>
			<point x="345" y="510"/>
			<point x="382" y="542"/>
		</contour>
	</outline>
</glyph>
<glyph name="parenleft" format="2">
	<unicode hex="0028"/>
	<advance width="760"/>
	<outline>
		<contour>
			<point x="156" y="500" type="curve" smooth="yes"/>
			<point x="156" y="148"/>
			<point x="242" y="-244"/>
			<point x="532" y="-502" type="curve"/>
			<point x="532" y="-502"/>
			<point x="532" y="-502"/>
			<point x="532" y="-502" type="curve"/>
			<point x="652" y="-502" type="line"/>
			<point x="652" y="-502"/>
			<point x="652" y="-502"/>
			<point x="652" y="-502" type="curve"/>
			<point x="652" y="-502"/>
			<point x="652" y="-502"/>
			<point x="652" y="-502" type="curve"/>
			<point x="522" y="-386"/>
			<point x="308" y="-88"/>
			<point x="308" y="498" type="curve" smooth="yes"/>
			<point x="308" y="1088"/>
			<point x="518" y="1376"/>
			<point x="652" y="1500" type="curve"/>
			<point x="652" y="1500"/>
			<point x="652" y="1500"/>
			<point x="652" y="1500" type="curve"/>
			<point x="652" y="1500"/>
			<point x="652" y="1500"/>
			<point x="652" y="1500" type="curve"/>
			<point x="532" y="1500" type="line"/>
			<point x="532" y="1500"/>
			<point x="532" y="1500"/>
			<point x="532" y="1500" type="curve"/>
			<point x="232" y="1232"/>
			<point x="156" y="826"/>
		</contour>
	</outline>
</glyph>
<glyph name="parenright" format="2">
	<unicode hex="0029"/>
	<advance width="380"/>
	<outline>
		<contour>
			<point x="54" y="-251" type="curve"/>
			<point x="114" y="-251" type="line"/>
			<point x="259" y="-122"/>
			<point x="302" y="74"/>
			<point x="302" y="250" type="curve" smooth="yes"/>
			<point x="302" y="413"/>
			<point x="264" y="616"/>
			<point x="114" y="750" type="curve"/>
			<point x="54" y="750" type="line"/>
			<point x="121" y="688"/>
			<point x="226" y="544"/>
			<point x="226" y="249" type="curve" smooth="yes"/>
			<point x="226" y="-44"/>
			<point x="119" y="-193"/>
		</contour>
	</outline>
</glyph>
<glyph name="asterisk" format="2">
	<unicode hex="002A"/>
	<advance width="978"/>
	<outline>
		<contour>
			<point x="488" y="612" type="curve" smooth="yes"/>
			<point x="524" y="612"/>
			<point x="556" y="636"/>
			<point x="556" y="680" type="curve"/>
			<point x="551" y="774"/>
			<point x="545" y="868"/>
			<point x="540" y="962" type="curve"/>
			<point x="738" y="820" type="line" smooth="yes"/>
			<point x="762" y="802"/>
			<point x="780" y="802"/>
			<point x="786" y="802" type="curve" smooth="yes"/>
			<point x="824" y="802"/>
			<point x="852" y="836"/>
			<point x="852" y="870" type="curve" smooth="yes"/>
			<point x="852" y="890"/>
			<point x="846" y="914"/>
			<point x="810" y="934" type="curve" smooth="yes"/>
			<point x="584" y="1056" type="line"/>
			<point x="810" y="1178" type="line" smooth="yes"/>
			<point x="846" y="1198"/>
			<point x="852" y="1222"/>
			<point x="852" y="1242" type="curve" smooth="yes"/>
			<point x="852" y="1276"/>
			<point x="824" y="1310"/>
			<point x="786" y="1310" type="curve" smooth="yes"/>
			<point x="766" y="1310"/>
			<point x="756" y="1304"/>
			<point x="740" y="1292" type="curve" smooth="yes"/>
			<point x="540" y="1150" type="line"/>
			<point x="545" y="1244"/>
			<point x="551" y="1338"/>
			<point x="556" y="1432" type="curve"/>
			<point x="556" y="1478"/>
			<point x="520" y="1500"/>
			<point x="490" y="1500" type="curve" smooth="yes"/>
			<point x="454" y="1500"/>
			<point x="422" y="1476"/>
			<point x="422" y="1432" type="curve"/>
			<point x="427" y="1338"/>
			<point x="433" y="1244"/>
			<point x="438" y="1150" type="curve"/>
			<point x="240" y="1292" type="line" smooth="yes"/>
			<point x="216" y="1310"/>
			<point x="198" y="1310"/>
			<point x="192" y="1310" type="curve" smooth="yes"/>
			<point x="154" y="1310"/>
			<point x="126" y="1276"/>
			<point x="126" y="1242" type="curve" smooth="yes"/>
			<point x="126" y="1222"/>
			<point x="132" y="1198"/>
			<point x="168" y="1178" type="curve" smooth="yes"/>
			<point x="394" y="1056" type="line"/>
			<point x="168" y="934" type="line" smooth="yes"/>
			<point x="132" y="914"/>
			<point x="126" y="890"/>
			<point x="126" y="870" type="curve" smooth="yes"/>
			<point x="126" y="836"/>
			<point x="154" y="802"/>
			<point x="192" y="802" type="curve" smooth="yes"/>
			<point x="212" y="802"/>
			<point x="222" y="808"/>
			<point x="238" y="820" type="curve" smooth="yes"/>
			<point x="438" y="962" type="line"/>
			<point x="433" y="868"/>
			<point x="427" y="774"/>
			<point x="422" y="680" type="curve"/>
			<point x="422" y="634"/>
			<point x="458" y="612"/>
		</contour>
	</outline>
</glyph>
<glyph name="plus" format="2">
	<unicode hex="002B"/>
	<advance width="1522"/>
	<outline>
		<contour>
			<point x="798" y="462" type="line"/>
			<point x="1350" y="462" type="line" smooth="yes"/>
			<point x="1378" y="462"/>
			<point x="1414" y="462"/>
			<point x="1414" y="498" type="curve" smooth="yes"/>
			<point x="1414" y="536"/>
			<point x="1380" y="536"/>
			<point x="1350" y="536" type="curve" smooth="yes"/>
			<point x="798" y="536" type="line"/>
			<point x="798" y="1088" type="line" smooth="yes"/>
			<point x="798" y="1116"/>
			<point x="798" y="1152"/>
			<point x="762" y="1152" type="curve" smooth="yes"/>
			<point x="724" y="1152"/>
			<point x="724" y="1118"/>
			<point x="724" y="1088" type="curve" smooth="yes"/>
			<point x="724" y="536" type="line"/>
			<point x="172" y="536" type="line" smooth="yes"/>
			<point x="144" y="536"/>
			<point x="108" y="536"/>
			<point x="108" y="500" type="curve" smooth="yes"/>
			<point x="108" y="462"/>
			<point x="142" y="462"/>
			<point x="172" y="462" type="curve" smooth="yes"/>
			<point x="724" y="462" type="line"/>
			<point x="724" y="-90" type="line" smooth="yes"/>
			<point x="724" y="-118"/>
			<point x="724" y="-154"/>
			<point x="760" y="-154" type="curve" smooth="yes"/>
			<point x="798" y="-154"/>
			<point x="798" y="-120"/>
			<point x="798" y="-90" type="curve" smooth="yes"/>
		</contour>
	</outline>
</glyph>
<glyph name="comma" format="2">
  <advance width="271"/>
  <unicode hex="002C"/>
  <outline>
    <contour>
      <point x="176" y="1" type="line"/>
      <point x="176" y="81" type="line"/>
      <point x="95" y="81" type="line"/>
      <point x="95" y="0" type="line"/>
      <point x="120" y="0" type="line"/>
      <point x="95" y="-125" type="line"/>
      <point x="135" y="-125" type="line"/>
    </contour>
  </outline>
</glyph>
<glyph name="hyphen" format="2">
	<unicode hex="002D"/>
	<advance width="652"/>
	<outline>
		<contour>
			<point x="542" y="386" type="curve"/>
			<point x="542" y="425"/>
			<point x="542" y="463"/>
			<point x="542" y="502" type="curve"/>
			<point x="542" y="502"/>
			<point x="542" y="502"/>
			<point x="542" y="502" type="curve"/>
			<point x="369" y="502"/>
			<point x="196" y="502"/>
			<point x="22" y="502" type="curve"/>
			<point x="22" y="502"/>
			<point x="22" y="502"/>
			<point x="22" y="502" type="curve"/>
			<point x="22" y="463"/>
			<point x="22" y="425"/>
			<point x="22" y="386" type="curve"/>
			<point x="22" y="386"/>
			<point x="22" y="386"/>
			<point x="22" y="386" type="curve"/>
			<point x="195" y="386"/>
			<point x="368" y="386"/>
			<point x="542" y="386" type="curve"/>
			<point x="542" y="386"/>
			<point x="542" y="386"/>
		</contour>
	</outline>
</glyph>
<glyph name="period" format="2">
	<unicode hex="002E"/>
	<advance width="271"/>
	<outline>
		<contour>
			<point x="176" y="81" type="line"/>
			<point x="176" y="81" type="line"/>
			<point x="95" y="81" type="line"/>
			<point x="95" y="81" type="line"/>
			<point x="95" y="0" type="line"/>
			<point x="95" y="0" type="line"/>
			<point x="176" y="0" type="line"/>
			<point x="176" y="0" type="line"/>
		</contour>
	</outline>
</glyph>
<glyph name="slash" format="2">
	<unicode hex="002F"/>
	<advance width="978"/>
	<outline>
		<contour>
			<point x="860" y="1428" type="line" smooth="yes"/>
			<point x="870" y="1454"/>
			<point x="870" y="1458"/>
			<point x="870" y="1462" type="curve" smooth="yes"/>
			<point x="870" y="1488"/>
			<point x="850" y="1500"/>
			<point x="834" y="1500" type="curve" smooth="yes"/>
			<point x="808" y="1500"/>
			<point x="802" y="1482"/>
			<point x="792" y="1456" type="curve" smooth="yes"/>
			<point x="118" y="-428" type="line" smooth="yes"/>
			<point x="108" y="-454"/>
			<point x="108" y="-458"/>
			<point x="108" y="-462" type="curve" smooth="yes"/>
			<point x="108" y="-484"/>
			<point x="124" y="-500"/>
			<point x="146" y="-500" type="curve" smooth="yes"/>
			<point x="172" y="-500"/>
			<point x="178" y="-480"/>
			<point x="186" y="-458" type="curve" smooth="yes"/>
		</contour>
	</outline>
</glyph>
<glyph name="zero" format="2">
	<unicode hex="0030"/>
	<advance width="978"/>
	<outline>
		<contour>
			<point x="488" y="-42" type="curve" smooth="yes"/>
			<point x="620" y="-42"/>
			<point x="746" y="30"/>
			<point x="814" y="168" type="curve" smooth="yes"/>
			<point x="882" y="310"/>
			<point x="896" y="456"/>
			<point x="896" y="652" type="curve" smooth="yes"/>
			<point x="896" y="786"/>
			<point x="890" y="940"/>
			<point x="838" y="1082" type="curve" smooth="yes"/>
			<point x="752" y="1306"/>
			<point x="596" y="1352"/>
			<point x="490" y="1352" type="curve" smooth="yes"/>
			<point x="360" y="1352"/>
			<point x="234" y="1286"/>
			<point x="160" y="1128" type="curve" smooth="yes"/>
			<point x="94" y="986"/>
			<point x="82" y="824"/>
			<point x="82" y="652" type="curve" smooth="yes"/>
			<point x="82" y="434"/>
			<point x="100" y="310"/>
			<point x="164" y="170" type="curve" smooth="yes"/>
			<point x="224" y="38"/>
			<point x="352" y="-42"/>
		</contour>
		<contour>
			<point x="490" y="76" type="curve" smooth="yes"/>
			<point x="374" y="76"/>
			<point x="311" y="160"/>
			<point x="276" y="270" type="curve" smooth="yes"/>
			<point x="234" y="402"/>
			<point x="234" y="571"/>
			<point x="234" y="674" type="curve" smooth="yes"/>
			<point x="234" y="804"/>
			<point x="234" y="928"/>
			<point x="270" y="1042" type="curve" smooth="yes"/>
			<point x="318" y="1184"/>
			<point x="406" y="1232"/>
			<point x="488" y="1232" type="curve" smooth="yes"/>
			<point x="610" y="1232"/>
			<point x="674" y="1148"/>
			<point x="707" y="1039" type="curve" smooth="yes"/>
			<point x="744" y="920"/>
			<point x="744" y="772"/>
			<point x="744" y="676" type="curve" smooth="yes"/>
			<point x="744" y="548"/>
			<point x="744" y="416"/>
			<point x="708" y="292" type="curve" smooth="yes"/>
			<point x="654" y="100"/>
			<point x="542" y="76"/>
		</contour>
	</outline>
</glyph>
<glyph name="one" format="2">
	<unicode hex="0031"/>
	<advance width="489"/>
	<outline>
		<contour>
			<point x="216" y="58" type="line"/>
			<point x="94" y="58" type="line"/>
			<point x="94" y="58"/>
			<point x="94" y="58"/>
			<point x="94" y="58" type="curve"/>
			<point x="94" y="0" type="line"/>
			<point x="94" y="0"/>
			<point x="94" y="0"/>
			<point x="94" y="0" type="curve"/>
			<point x="416" y="0" type="line"/>
			<point x="416" y="0"/>
			<point x="416" y="0"/>
			<point x="416" y="0" type="curve"/>
			<point x="416" y="58" type="line"/>
			<point x="416" y="58"/>
			<point x="416" y="58"/>
			<point x="416" y="58" type="curve"/>
			<point x="294" y="58" type="line"/>
			<point x="294" y="676" type="line"/>
			<point x="294" y="676"/>
			<point x="294" y="676"/>
			<point x="294" y="676" type="curve"/>
			<point x="275" y="676" type="line"/>
			<point x="275" y="676"/>
			<point x="275" y="676"/>
			<point x="275" y="676" type="curve"/>
			<point x="259" y="660"/>
			<point x="211" y="613"/>
			<point x="103" y="611" type="curve" smooth="yes"/>
			<point x="89" y="611"/>
			<point x="88" y="610"/>
			<point x="88" y="592" type="curve" smooth="yes"/>
			<point x="88" y="552" type="line"/>
			<point x="88" y="552"/>
			<point x="88" y="552"/>
			<point x="88" y="552" type="curve"/>
			<point x="149" y="552"/>
			<point x="195" y="567"/>
			<point x="216" y="576" type="curve"/>
		</contour>
	</outline>
</glyph>
<glyph name="two" format="2">
	<unicode hex="0032"/>
	<advance width="489"/>
	<outline>
		<contour>
			<point x="49" y="0" type="line"/>
			<point x="440" y="0" type="line"/>
			<point x="440" y="68" type="line"/>
			<point x="262" y="68" type="line" smooth="yes"/>
			<point x="250" y="68"/>
			<point x="238" y="67"/>
			<point x="119" y="67" type="curve"/>
			<point x="145" y="94"/>
			<point x="238" y="186"/>
			<point x="303" y="244" type="curve" smooth="yes"/>
			<point x="377" y="309"/>
			<point x="440" y="371"/>
			<point x="440" y="463" type="curve" smooth="yes"/>
			<point x="440" y="574"/>
			<point x="363" y="676"/>
			<point x="231" y="676" type="curve" smooth="yes"/>
			<point x="123" y="676"/>
			<point x="68" y="605"/>
			<point x="41" y="512" type="curve"/>
			<point x="82" y="458" type="line"/>
			<point x="107" y="565"/>
			<point x="144" y="614"/>
			<point x="218" y="614" type="curve" smooth="yes"/>
			<point x="304" y="614"/>
			<point x="360" y="547"/>
			<point x="360" y="461" type="curve" smooth="yes"/>
			<point x="360" y="409"/>
			<point x="339" y="351"/>
			<point x="272" y="285" type="curve" smooth="yes"/>
			<point x="205.6461614173" y="219.6760826772"/>
			<point x="123" y="137"/>
			<point x="49" y="63" type="curve"/>
		</contour>
	</outline>
</glyph>
<glyph name="three" format="2">
	<unicode hex="0033"/>
	<advance width="978"/>
	<outline>
		<contour>
			<point x="486" y="-42" type="curve" smooth="yes"/>
			<point x="720" y="-42"/>
			<point x="896" y="148"/>
			<point x="896" y="360" type="curve" smooth="yes"/>
			<point x="896" y="514"/>
			<point x="794" y="650"/>
			<point x="624" y="708" type="curve"/>
			<point x="764" y="784"/>
			<point x="842" y="918"/>
			<point x="842" y="1050" type="curve" smooth="yes"/>
			<point x="842" y="1222"/>
			<point x="680" y="1352"/>
			<point x="486" y="1352" type="curve" smooth="yes"/>
			<point x="326" y="1352"/>
			<point x="184" y="1264"/>
			<point x="108" y="1132" type="curve"/>
			<point x="108" y="1132"/>
			<point x="108" y="1132"/>
			<point x="108" y="1132" type="curve"/>
			<point x="178" y="1024" type="line"/>
			<point x="178" y="1024"/>
			<point x="178" y="1024"/>
			<point x="178" y="1024" type="curve"/>
			<point x="178" y="1024"/>
			<point x="178" y="1024"/>
			<point x="178" y="1024" type="curve"/>
			<point x="228" y="1152"/>
			<point x="350" y="1238"/>
			<point x="484" y="1238" type="curve" smooth="yes"/>
			<point x="586" y="1238"/>
			<point x="682" y="1180"/>
			<point x="682" y="1050" type="curve" smooth="yes"/>
			<point x="682" y="916"/>
			<point x="590" y="806"/>
			<point x="482" y="782" type="curve" smooth="yes"/>
			<point x="472" y="780"/>
			<point x="346" y="770"/>
			<point x="326" y="768" type="curve"/>
			<point x="326" y="768"/>
			<point x="326" y="768"/>
			<point x="326" y="768" type="curve"/>
			<point x="326" y="648" type="line"/>
			<point x="326" y="648"/>
			<point x="326" y="648"/>
			<point x="326" y="648" type="curve"/>
			<point x="468" y="648" type="line" smooth="yes"/>
			<point x="674" y="648"/>
			<point x="724" y="472"/>
			<point x="724" y="362" type="curve" smooth="yes"/>
			<point x="724" y="200"/>
			<point x="626" y="78"/>
			<point x="482" y="78" type="curve" smooth="yes"/>
			<point x="354" y="78"/>
			<point x="196" y="142"/>
			<point x="104" y="286" type="curve"/>
			<point x="104" y="286"/>
			<point x="104" y="286"/>
			<point x="104" y="286" type="curve"/>
			<point x="104" y="286"/>
			<point x="104" y="286"/>
			<point x="104" y="286" type="curve"/>
			<point x="82" y="168" type="line"/>
			<point x="82" y="168"/>
			<point x="82" y="168"/>
			<point x="82" y="168" type="curve"/>
			<point x="212" y="-10"/>
			<point x="388" y="-42"/>
		</contour>
	</outline>
</glyph>
<glyph name="four" format="2">
	<unicode hex="0034"/>
	<advance width="978"/>
	<outline>
		<contour>
			<point x="572" y="344" type="line"/>
			<point x="572" y="0" type="line"/>
			<point x="572" y="0"/>
			<point x="572" y="0"/>
			<point x="572" y="0" type="curve"/>
			<point x="730" y="0" type="line"/>
			<point x="730" y="0"/>
			<point x="730" y="0"/>
			<point x="730" y="0" type="curve"/>
			<point x="730" y="344" type="line"/>
			<point x="924" y="344" type="line"/>
			<point x="924" y="344"/>
			<point x="924" y="344"/>
			<point x="924" y="344" type="curve"/>
			<point x="924" y="464" type="line"/>
			<point x="924" y="464"/>
			<point x="924" y="464"/>
			<point x="924" y="464" type="curve"/>
			<point x="730" y="464" type="line"/>
			<point x="730" y="1310" type="line"/>
			<point x="730" y="1310"/>
			<point x="730" y="1310"/>
			<point x="730" y="1310" type="curve"/>
			<point x="550" y="1310" type="line"/>
			<point x="550" y="1310"/>
			<point x="550" y="1310"/>
			<point x="550" y="1310" type="curve"/>
			<point x="54" y="464" type="line"/>
			<point x="54" y="464"/>
			<point x="54" y="464"/>
			<point x="54" y="464" type="curve"/>
			<point x="54" y="344" type="line"/>
			<point x="54" y="344"/>
			<point x="54" y="344"/>
			<point x="54" y="344" type="curve"/>
		</contour>
		<contour>
			<point x="208" y="464" type="line"/>
			<point x="266" y="566"/>
			<point x="344" y="694"/>
			<point x="428" y="854" type="curve" smooth="yes"/>
			<point x="452" y="900"/>
			<point x="582" y="1146"/>
			<point x="582" y="1220" type="curve"/>
			<point x="582" y="464" type="line"/>
		</contour>
	</outline>
</glyph>
<glyph name="five" format="2">
	<unicode hex="0035"/>
	<advance width="489"/>
	<outline>
		<contour>
			<point x="150" y="593" type="line"/>
			<point x="407" y="593" type="line"/>
			<point x="407" y="593"/>
			<point x="407" y="593"/>
			<point x="407" y="593" type="curve"/>
			<point x="407" y="655" type="line"/>
			<point x="407" y="655"/>
			<point x="407" y="655"/>
			<point x="407" y="655" type="curve"/>
			<point x="79" y="655" type="line"/>
			<point x="79" y="655"/>
			<point x="79" y="655"/>
			<point x="79" y="655" type="curve"/>
			<point x="79" y="287" type="line"/>
			<point x="79" y="287"/>
			<point x="79" y="287"/>
			<point x="79" y="287" type="curve"/>
			<point x="144" y="287" type="line"/>
			<point x="144" y="287"/>
			<point x="144" y="287"/>
			<point x="144" y="287" type="curve"/>
			<point x="169" y="344"/>
			<point x="213" y="366"/>
			<point x="254" y="366" type="curve" smooth="yes"/>
			<point x="301" y="366"/>
			<point x="354" y="324"/>
			<point x="354" y="205" type="curve" smooth="yes"/>
			<point x="354" y="79"/>
			<point x="282" y="39"/>
			<point x="224" y="39" type="curve" smooth="yes"/>
			<point x="169" y="39"/>
			<point x="103" y="69"/>
			<point x="71" y="132" type="curve"/>
			<point x="71" y="132"/>
			<point x="71" y="132"/>
			<point x="71" y="132" type="curve"/>
			<point x="71" y="132"/>
			<point x="71" y="132"/>
			<point x="71" y="132" type="curve"/>
			<point x="60.011" y="114.018"/>
			<point x="49.022" y="96.036"/>
			<point x="38" y="78" type="curve"/>
			<point x="104" y="-16"/>
			<point x="198" y="-21"/>
			<point x="225" y="-21" type="curve" smooth="yes"/>
			<point x="343" y="-21"/>
			<point x="440" y="78"/>
			<point x="440" y="203" type="curve" smooth="yes"/>
			<point x="440" y="328"/>
			<point x="356" y="426"/>
			<point x="255" y="426" type="curve" smooth="yes"/>
			<point x="215" y="426"/>
			<point x="178" y="411"/>
			<point x="150" y="386" type="curve"/>
		</contour>
	</outline>
</glyph>
<glyph name="six" format="2">
	<unicode hex="0036"/>
	<advance width="978"/>
	<outline>
		<contour>
			<point x="84" y="644" type="curve" smooth="yes"/>
			<point x="84" y="70"/>
			<point x="334" y="-42"/>
			<point x="492" y="-42" type="curve" smooth="yes"/>
			<point x="612" y="-42"/>
			<point x="698" y="6"/>
			<point x="776" y="98" type="curve" smooth="yes"/>
			<point x="866" y="206"/>
			<point x="894" y="300"/>
			<point x="894" y="444" type="curve" smooth="yes"/>
			<point x="894" y="700"/>
			<point x="762" y="918"/>
			<point x="580" y="918" type="curve" smooth="yes"/>
			<point x="432" y="918"/>
			<point x="320" y="846"/>
			<point x="246" y="756" type="curve"/>
			<point x="253" y="856"/>
			<point x="274" y="943"/>
			<point x="307" y="1015" type="curve" smooth="yes"/>
			<point x="370" y="1156"/>
			<point x="477" y="1238"/>
			<point x="608" y="1238" type="curve" smooth="yes"/>
			<point x="694" y="1238"/>
			<point x="756" y="1218"/>
			<point x="814" y="1196" type="curve"/>
			<point x="814" y="1196"/>
			<point x="814" y="1196"/>
			<point x="814" y="1196" type="curve"/>
			<point x="814" y="1196"/>
			<point x="814" y="1196"/>
			<point x="814" y="1196" type="curve"/>
			<point x="814" y="1312" type="line"/>
			<point x="814" y="1312"/>
			<point x="814" y="1312"/>
			<point x="814" y="1312" type="curve"/>
			<point x="732" y="1342"/>
			<point x="674" y="1352"/>
			<point x="604" y="1352" type="curve" smooth="yes"/>
			<point x="334" y="1352"/>
			<point x="84" y="1074"/>
		</contour>
		<contour>
			<point x="492" y="78" type="curve" smooth="yes"/>
			<point x="284" y="78"/>
			<point x="254" y="372"/>
			<point x="248" y="436" type="curve"/>
			<point x="248" y="452"/>
			<point x="248" y="478"/>
			<point x="250" y="492" type="curve"/>
			<point x="250" y="632"/>
			<point x="330" y="798"/>
			<point x="502" y="798" type="curve" smooth="yes"/>
			<point x="568" y="798"/>
			<point x="632" y="780"/>
			<point x="690" y="680" type="curve" smooth="yes"/>
			<point x="734" y="600"/>
			<point x="736" y="520"/>
			<point x="736" y="442" type="curve" smooth="yes"/>
			<point x="736" y="360"/>
			<point x="736" y="274"/>
			<point x="676" y="184" type="curve" smooth="yes"/>
			<point x="640" y="130"/>
			<point x="590" y="78"/>
		</contour>
	</outline>
</glyph>
<glyph name="seven" format="2">
	<unicode hex="0037"/>
	<advance width="489"/>
	<outline>
		<contour>
			<point x="383" y="588" type="line"/>
			<point x="323" y="518"/>
			<point x="150" y="318"/>
			<point x="150" y="-10" type="curve"/>
			<point x="150" y="-10"/>
			<point x="150" y="-10"/>
			<point x="150" y="-10" type="curve"/>
			<point x="231" y="-10" type="line"/>
			<point x="231" y="-10"/>
			<point x="231" y="-10"/>
			<point x="231" y="-10" type="curve"/>
			<point x="231" y="250"/>
			<point x="338" y="463"/>
			<point x="448" y="592" type="curve"/>
			<point x="448" y="592"/>
			<point x="448" y="592"/>
			<point x="448" y="592" type="curve"/>
			<point x="448" y="655" type="line"/>
			<point x="448" y="655"/>
			<point x="448" y="655"/>
			<point x="448" y="655" type="curve"/>
			<point x="367.414" y="655"/>
			<point x="286.828" y="655"/>
			<point x="206" y="655" type="curve"/>
			<point x="41" y="655" type="line"/>
			<point x="41" y="655"/>
			<point x="41" y="655"/>
			<point x="41" y="655" type="curve"/>
			<point x="41" y="587" type="line"/>
			<point x="41" y="587"/>
			<point x="41" y="587"/>
			<point x="41" y="587" type="curve"/>
			<point x="128" y="587"/>
			<point x="216" y="588"/>
			<point x="263" y="588" type="curve" smooth="yes"/>
		</contour>
	</outline>
</glyph>
<glyph name="eight" format="2">
	<unicode hex="0038"/>
	<advance width="489"/>
	<outline>
		<contour>
			<point x="312" y="354" type="curve"/>
			<point x="375" y="373"/>
			<point x="435" y="428"/>
			<point x="435" y="502" type="curve" smooth="yes"/>
			<point x="435" y="596"/>
			<point x="351" y="676"/>
			<point x="245" y="676" type="curve" smooth="yes"/>
			<point x="135" y="676"/>
			<point x="54" y="593"/>
			<point x="54" y="502" type="curve" smooth="yes"/>
			<point x="54" y="427"/>
			<point x="115" y="372"/>
			<point x="177" y="354" type="curve"/>
			<point x="96" y="327"/>
			<point x="41" y="260"/>
			<point x="41" y="180" type="curve" smooth="yes"/>
			<point x="41" y="73"/>
			<point x="130" y="-21"/>
			<point x="244" y="-21" type="curve" smooth="yes"/>
			<point x="362" y="-21"/>
			<point x="448" y="75"/>
			<point x="448" y="180" type="curve" smooth="yes"/>
			<point x="448" y="260"/>
			<point x="393" y="327"/>
		</contour>
		<contour>
			<point x="245" y="384" type="curve" smooth="yes"/>
			<point x="166" y="384"/>
			<point x="123" y="437"/>
			<point x="123" y="501" type="curve" smooth="yes"/>
			<point x="123" y="577"/>
			<point x="177" y="619"/>
			<point x="244" y="619" type="curve" smooth="yes"/>
			<point x="316" y="619"/>
			<point x="366" y="574"/>
			<point x="366" y="501" type="curve" smooth="yes"/>
			<point x="366" y="434"/>
			<point x="320" y="384"/>
		</contour>
		<contour>
			<point x="245" y="39" type="curve" smooth="yes"/>
			<point x="178" y="39"/>
			<point x="120" y="87"/>
			<point x="120" y="181" type="curve" smooth="yes"/>
			<point x="120" y="288"/>
			<point x="192" y="324"/>
			<point x="244" y="324" type="curve" smooth="yes"/>
			<point x="300" y="324"/>
			<point x="369" y="285"/>
			<point x="369" y="181" type="curve" smooth="yes"/>
			<point x="369" y="84"/>
			<point x="308" y="39"/>
		</contour>
	</outline>
</glyph>
<glyph name="nine" format="2">
	<unicode hex="0039"/>
	<advance width="978"/>
	<outline>
		<contour>
			<point x="402" y="-42" type="curve" smooth="yes"/>
			<point x="656" y="-42"/>
			<point x="894" y="232"/>
			<point x="894" y="670" type="curve" smooth="yes"/>
			<point x="894" y="1214"/>
			<point x="672" y="1352"/>
			<point x="496" y="1352" type="curve" smooth="yes"/>
			<point x="352" y="1352"/>
			<point x="268" y="1286"/>
			<point x="198" y="1202" type="curve" smooth="yes"/>
			<point x="102" y="1088"/>
			<point x="84" y="982"/>
			<point x="84" y="868" type="curve" smooth="yes"/>
			<point x="84" y="740"/>
			<point x="116" y="622"/>
			<point x="172" y="536" type="curve" smooth="yes"/>
			<point x="226" y="448"/>
			<point x="306" y="392"/>
			<point x="398" y="392" type="curve" smooth="yes"/>
			<point x="544" y="392"/>
			<point x="656" y="462"/>
			<point x="732" y="556" type="curve"/>
			<point x="729" y="507"/>
			<point x="723" y="460"/>
			<point x="713" y="417" type="curve" smooth="yes"/>
			<point x="669" y="213"/>
			<point x="554" y="78"/>
			<point x="402" y="78" type="curve" smooth="yes"/>
			<point x="320" y="78"/>
			<point x="258" y="104"/>
			<point x="204" y="156" type="curve"/>
			<point x="204" y="156"/>
			<point x="204" y="156"/>
			<point x="204" y="156" type="curve"/>
			<point x="204" y="156"/>
			<point x="204" y="156"/>
			<point x="204" y="156" type="curve"/>
			<point x="183" y="121"/>
			<point x="163" y="85"/>
			<point x="142" y="50" type="curve"/>
			<point x="142" y="50"/>
			<point x="142" y="50"/>
			<point x="142" y="50" type="curve"/>
			<point x="232" y="-20"/>
			<point x="314" y="-42"/>
		</contour>
		<contour>
			<point x="476" y="512" type="curve" smooth="yes"/>
			<point x="442" y="512"/>
			<point x="354" y="512"/>
			<point x="288" y="630" type="curve" smooth="yes"/>
			<point x="250" y="702"/>
			<point x="242" y="760"/>
			<point x="242" y="868" type="curve" smooth="yes"/>
			<point x="242" y="956"/>
			<point x="244" y="1040"/>
			<point x="304" y="1130" type="curve" smooth="yes"/>
			<point x="334" y="1174"/>
			<point x="388" y="1238"/>
			<point x="496" y="1238" type="curve" smooth="yes"/>
			<point x="688" y="1238"/>
			<point x="722" y="968"/>
			<point x="726" y="870" type="curve"/>
			<point x="728" y="856"/>
			<point x="728" y="836"/>
			<point x="728" y="822" type="curve" smooth="yes"/>
			<point x="728" y="670"/>
			<point x="642" y="512"/>
		</contour>
	</outline>
</glyph>
<glyph name="colon" format="2">
	<unicode hex="003A"/>
	<advance width="542"/>
	<outline>
		<contour>
			<point x="352" y="888" type="line"/>
			<point x="352" y="888"/>
			<point x="352" y="888"/>
			<point x="352" y="888" type="curve"/>
			<point x="190" y="888" type="line"/>
			<point x="190" y="888"/>
			<point x="190" y="888"/>
			<point x="190" y="888" type="curve"/>
			<point x="190" y="726" type="line"/>
			<point x="190" y="726"/>
			<point x="190" y="726"/>
			<point x="190" y="726" type="curve"/>
			<point x="352" y="726" type="line"/>
			<point x="352" y="726"/>
			<point x="352" y="726"/>
			<point x="352" y="726" type="curve"/>
		</contour>
		<contour>
			<point x="190" y="0" type="curve"/>
			<point x="190" y="0"/>
			<point x="190" y="0"/>
			<point x="190" y="0" type="curve"/>
			<point x="244" y="0"/>
			<point x="298" y="0"/>
			<point x="352" y="0" type="curve"/>
			<point x="352" y="0"/>
			<point x="352" y="0"/>
			<point x="352" y="0" type="curve"/>
			<point x="352" y="54"/>
			<point x="352" y="108"/>
			<point x="352" y="162" type="curve"/>
			<point x="352" y="162"/>
			<point x="352" y="162"/>
			<point x="352" y="162" type="curve"/>
			<point x="298" y="162"/>
			<point x="244" y="162"/>
			<point x="190" y="162" type="curve"/>
			<point x="190" y="162"/>
			<point x="190" y="162"/>
			<point x="190" y="162" type="curve"/>
			<point x="190" y="108"/>
			<point x="190" y="54"/>
		</contour>
	</outline>
</glyph>
<glyph name="equal" format="2">
	<unicode hex="003D"/>
	<advance width="761"/>
	<outline>
		<contour>
			<point x="675" y="327" type="line" smooth="yes"/>
			<point x="689" y="327"/>
			<point x="707" y="327"/>
			<point x="707" y="345" type="curve" smooth="yes"/>
			<point x="707" y="364"/>
			<point x="690" y="364"/>
			<point x="675" y="364" type="curve" smooth="yes"/>
			<point x="86" y="364" type="line" smooth="yes"/>
			<point x="72" y="364"/>
			<point x="54" y="364"/>
			<point x="54" y="346" type="curve" smooth="yes"/>
			<point x="54" y="327"/>
			<point x="71" y="327"/>
			<point x="86" y="327" type="curve" smooth="yes"/>
		</contour>
		<contour>
			<point x="675" y="135" type="line" smooth="yes"/>
			<point x="689" y="135"/>
			<point x="707" y="135"/>
			<point x="707" y="153" type="curve" smooth="yes"/>
			<point x="707" y="172"/>
			<point x="690" y="172"/>
			<point x="675" y="172" type="curve" smooth="yes"/>
			<point x="86" y="172" type="line" smooth="yes"/>
			<point x="72" y="172"/>
			<point x="54" y="172"/>
			<point x="54" y="154" type="curve" smooth="yes"/>
			<point x="54" y="135"/>
			<point x="71" y="135"/>
			<point x="86" y="135" type="curve" smooth="yes"/>
		</contour>
	</outline>
</glyph>
<glyph name="question" format="2">
	<unicode hex="003F"/>
	<advance width="462"/>
	<outline>
		<contour>
			<point x="249" y="221" type="line" smooth="yes"/>
			<point x="249" y="328"/>
			<point x="314" y="399"/>
			<point x="352" y="430" type="curve" smooth="yes"/>
			<point x="372" y="447"/>
			<point x="407" y="480"/>
			<point x="407" y="549" type="curve" smooth="yes"/>
			<point x="407" y="626"/>
			<point x="360" y="704"/>
			<point x="218" y="704" type="curve" smooth="yes"/>
			<point x="140" y="704"/>
			<point x="84" y="673"/>
			<point x="54" y="651" type="curve"/>
			<point x="76" y="589" type="line"/>
			<point x="132" y="639"/>
			<point x="188" y="644"/>
			<point x="219" y="644" type="curve" smooth="yes"/>
			<point x="273" y="644"/>
			<point x="331" y="631"/>
			<point x="331" y="550" type="curve" smooth="yes"/>
			<point x="331" y="505"/>
			<point x="310" y="486"/>
			<point x="293" y="472" type="curve" smooth="yes"/>
			<point x="237" y="423"/>
			<point x="184" y="335"/>
			<point x="184" y="224" type="curve" smooth="yes"/>
			<point x="184" y="173" type="line"/>
			<point x="249" y="173" type="line"/>
		</contour>
		<contour>
			<point x="176" y="0" type="line"/>
			<point x="257" y="0" type="line"/>
			<point x="257" y="81" type="line"/>
			<point x="176" y="81" type="line"/>
		</contour>
	</outline>
</glyph>
<glyph name="at" format="2">
	<unicode hex="0040"/>
	<advance width="1304"/>
	<outline>
		<contour>
			<point x="1102" y="170" type="line" smooth="yes"/>
			<point x="1072" y="170"/>
			<point x="1068" y="170"/>
			<point x="1052" y="162" type="curve" smooth="yes"/>
			<point x="1010" y="144"/>
			<point x="904" y="100"/>
			<point x="766" y="100" type="curve" smooth="yes"/>
			<point x="478" y="100"/>
			<point x="258" y="368"/>
			<point x="258" y="694" type="curve" smooth="yes"/>
			<point x="258" y="1044"/>
			<point x="504" y="1288"/>
			<point x="756" y="1288" type="curve" smooth="yes"/>
			<point x="856" y="1288"/>
			<point x="946" y="1236"/>
			<point x="996" y="1098" type="curve"/>
			<point x="992" y="1100"/>
			<point x="922" y="1146"/>
			<point x="832" y="1146" type="curve" smooth="yes"/>
			<point x="640" y="1146"/>
			<point x="468" y="954"/>
			<point x="468" y="694" type="curve" smooth="yes"/>
			<point x="468" y="434"/>
			<point x="640" y="242"/>
			<point x="832" y="242" type="curve" smooth="yes"/>
			<point x="964" y="242"/>
			<point x="1196" y="356"/>
			<point x="1196" y="724" type="curve" smooth="yes"/>
			<point x="1196" y="896"/>
			<point x="1194" y="1408"/>
			<point x="758" y="1408" type="curve" smooth="yes"/>
			<point x="414" y="1408"/>
			<point x="108" y="1102"/>
			<point x="108" y="694" type="curve" smooth="yes"/>
			<point x="108" y="290"/>
			<point x="410" y="-20"/>
			<point x="760" y="-20" type="curve" smooth="yes"/>
			<point x="960" y="-20"/>
			<point x="1114" y="78"/>
			<point x="1196" y="170" type="curve"/>
			<point x="1196" y="170"/>
			<point x="1196" y="170"/>
			<point x="1196" y="170" type="curve"/>
			<point x="1196" y="170"/>
			<point x="1196" y="170"/>
			<point x="1196" y="170" type="curve"/>
		</contour>
		<contour>
			<point x="832" y="362" type="curve" smooth="yes"/>
			<point x="718" y="362"/>
			<point x="618" y="502"/>
			<point x="618" y="694" type="curve" smooth="yes"/>
			<point x="618" y="884"/>
			<point x="718" y="1026"/>
			<point x="832" y="1026" type="curve" smooth="yes"/>
			<point x="946" y="1026"/>
			<point x="1046" y="886"/>
			<point x="1046" y="694" type="curve" smooth="yes"/>
			<point x="1046" y="504"/>
			<point x="946" y="362"/>
		</contour>
	</outline>
</glyph>
<glyph name="A" format="2">
	<unicode hex="0041"/>
	<advance width="647"/>
	<outline>
		<contour>
			<point x="174" y="203" type="line"/>
			<point x="456" y="203" type="line"/>
			<point x="530" y="0" type="line"/>
			<point x="530" y="0"/>
			<point x="530" y="0"/>
			<point x="530" y="0" type="curve"/>
			<point x="619" y="0" type="line"/>
			<point x="619" y="0"/>
			<point x="619" y="0"/>
			<point x="619" y="0" type="curve"/>
			<point x="619" y="0"/>
			<point x="619" y="0"/>
			<point x="619" y="0" type="curve"/>
			<point x="367" y="694" type="line"/>
			<point x="367" y="694"/>
			<point x="367" y="694"/>
			<point x="367" y="694" type="curve"/>
			<point x="279" y="694" type="line"/>
			<point x="279" y="694"/>
			<point x="279" y="694"/>
			<point x="279" y="694" type="curve"/>
			<point x="27" y="0" type="line"/>
			<point x="27" y="0"/>
			<point x="27" y="0"/>
			<point x="27" y="0" type="curve"/>
			<point x="27" y="0"/>
			<point x="27" y="0"/>
			<point x="27" y="0" type="curve"/>
			<point x="101" y="0" type="line"/>
			<point x="101" y="0"/>
			<point x="101" y="0"/>
			<point x="101" y="0" type="curve"/>
		</contour>
		<contour>
			<point x="196" y="259" type="line"/>
			<point x="271" y="487" type="line" smooth="yes"/>
			<point x="286" y="532"/>
			<point x="300" y="577"/>
			<point x="315" y="622" type="curve"/>
			<point x="315" y="622" type="line"/>
			<point x="330" y="577"/>
			<point x="345" y="532"/>
			<point x="360" y="487" type="curve" smooth="yes"/>
			<point x="435" y="259" type="line"/>
		</contour>
	</outline>
</glyph>
<glyph name="B" format="2">
	<unicode hex="0042"/>
	<advance width="1298"/>
	<outline>
		<contour>
			<point x="186" y="1388" type="line"/>
			<point x="186" y="1388"/>
			<point x="186" y="1388"/>
			<point x="186" y="1388" type="curve"/>
			<point x="186" y="0" type="line"/>
			<point x="186" y="0"/>
			<point x="186" y="0"/>
			<point x="186" y="0" type="curve"/>
			<point x="702" y="0" type="line" smooth="yes"/>
			<point x="984" y="0"/>
			<point x="1190" y="180"/>
			<point x="1190" y="376" type="curve" smooth="yes"/>
			<point x="1190" y="552"/>
			<point x="1016" y="694"/>
			<point x="810" y="726" type="curve"/>
			<point x="1044" y="790"/>
			<point x="1134" y="924"/>
			<point x="1134" y="1040" type="curve" smooth="yes"/>
			<point x="1134" y="1220"/>
			<point x="930" y="1388"/>
			<point x="648" y="1388" type="curve" smooth="yes"/>
		</contour>
		<contour>
			<point x="348" y="782" type="line"/>
			<point x="348" y="1276" type="line"/>
			<point x="594" y="1276" type="line" smooth="yes"/>
			<point x="808" y="1276"/>
			<point x="980" y="1170"/>
			<point x="980" y="1038" type="curve" smooth="yes"/>
			<point x="980" y="898"/>
			<point x="808" y="782"/>
			<point x="596" y="782" type="curve" smooth="yes"/>
		</contour>
		<contour>
			<point x="348" y="112" type="line"/>
			<point x="348" y="662" type="line"/>
			<point x="614" y="662" type="line" smooth="yes"/>
			<point x="872" y="662"/>
			<point x="1032" y="518"/>
			<point x="1032" y="378" type="curve" smooth="yes"/>
			<point x="1032" y="238"/>
			<point x="870" y="112"/>
			<point x="646" y="112" type="curve" smooth="yes"/>
		</contour>
	</outline>
</glyph>
<glyph name="C" format="2">
	<unicode hex="0043"/>
	<advance width="1252"/>
	<outline>
		<contour>
			<point x="132" y="696" type="curve" smooth="yes"/>
			<point x="132" y="258"/>
			<point x="454" y="-18"/>
			<point x="746" y="-18" type="curve" smooth="yes"/>
			<point x="946" y="-18"/>
			<point x="990" y="-6"/>
			<point x="1152" y="92" type="curve"/>
			<point x="1152" y="92"/>
			<point x="1152" y="92"/>
			<point x="1152" y="92" type="curve"/>
			<point x="1140" y="230" type="line"/>
			<point x="1140" y="230"/>
			<point x="1140" y="230"/>
			<point x="1140" y="230" type="curve"/>
			<point x="1018" y="140"/>
			<point x="934" y="106"/>
			<point x="760" y="106" type="curve" smooth="yes"/>
			<point x="500" y="106"/>
			<point x="302" y="376"/>
			<point x="302" y="698" type="curve" smooth="yes"/>
			<point x="302" y="968"/>
			<point x="464" y="1286"/>
			<point x="768" y="1286" type="curve" smooth="yes"/>
			<point x="900" y="1286"/>
			<point x="1000" y="1246"/>
			<point x="1100" y="1178" type="curve"/>
			<point x="1100" y="1178"/>
			<point x="1100" y="1178"/>
			<point x="1100" y="1178" type="curve"/>
			<point x="1100" y="1178"/>
			<point x="1100" y="1178"/>
			<point x="1100" y="1178" type="curve"/>
			<point x="1130" y="1342" type="line"/>
			<point x="1130" y="1342"/>
			<point x="1130" y="1342"/>
			<point x="1130" y="1342" type="curve"/>
			<point x="1000" y="1392"/>
			<point x="902" y="1410"/>
			<point x="764" y="1410" type="curve" smooth="yes"/>
			<point x="424" y="1410"/>
			<point x="132" y="1110"/>
		</contour>
	</outline>
</glyph>
<glyph name="D" format="2">
	<unicode hex="0044"/>
	<advance width="1408"/>
	<outline>
		<contour>
			<point x="696" y="0" type="line" smooth="yes"/>
			<point x="1030" y="0"/>
			<point x="1298" y="302"/>
			<point x="1298" y="682" type="curve" smooth="yes"/>
			<point x="1298" y="1072"/>
			<point x="1032" y="1388"/>
			<point x="696" y="1388" type="curve" smooth="yes"/>
			<point x="182" y="1388" type="line"/>
			<point x="182" y="1388"/>
			<point x="182" y="1388"/>
			<point x="182" y="1388" type="curve"/>
			<point x="182" y="0" type="line"/>
			<point x="182" y="0"/>
			<point x="182" y="0"/>
			<point x="182" y="0" type="curve"/>
		</contour>
		<contour>
			<point x="350" y="112" type="line"/>
			<point x="350" y="1276" type="line"/>
			<point x="650" y="1276" type="line" smooth="yes"/>
			<point x="918" y="1276"/>
			<point x="1130" y="1046"/>
			<point x="1130" y="684" type="curve" smooth="yes"/>
			<point x="1130" y="318"/>
			<point x="908" y="112"/>
			<point x="650" y="112" type="curve" smooth="yes"/>
		</contour>
	</outline>
</glyph>
<glyph name="E" format="2">
	<unicode hex="0045"/>
	<advance width="583"/>
	<outline>
		<contour>
			<point x="176" y="68" type="line"/>
			<point x="176" y="330" type="line"/>
			<point x="500" y="330" type="line"/>
			<point x="500" y="330"/>
			<point x="500" y="330"/>
			<point x="500" y="330" type="curve"/>
			<point x="500" y="390" type="line"/>
			<point x="500" y="390"/>
			<point x="500" y="390"/>
			<point x="500" y="390" type="curve"/>
			<point x="176" y="390" type="line"/>
			<point x="176" y="629" type="line"/>
			<point x="528" y="629" type="line"/>
			<point x="528" y="629"/>
			<point x="528" y="629"/>
			<point x="528" y="629" type="curve"/>
			<point x="528" y="692" type="line"/>
			<point x="528" y="692"/>
			<point x="528" y="692"/>
			<point x="528" y="692" type="curve"/>
			<point x="90" y="692" type="line"/>
			<point x="90" y="692"/>
			<point x="90" y="692"/>
			<point x="90" y="692" type="curve"/>
			<point x="90" y="0" type="line"/>
			<point x="90" y="0"/>
			<point x="90" y="0"/>
			<point x="90" y="0" type="curve"/>
			<point x="541" y="0" type="line"/>
			<point x="541" y="0"/>
			<point x="541" y="0"/>
			<point x="541" y="0" type="curve"/>
			<point x="541" y="68" type="line"/>
			<point x="541" y="68"/>
			<point x="541" y="68"/>
			<point x="541" y="68" type="curve"/>
		</contour>
	</outline>
</glyph>
<glyph name="F" format="2">
	<unicode hex="0046"/>
	<advance width="556"/>
	<outline>
		<contour>
			<point x="176" y="316" type="line"/>
			<point x="473" y="316" type="line"/>
			<point x="473" y="316"/>
			<point x="473" y="316"/>
			<point x="473" y="316" type="curve"/>
			<point x="473" y="376" type="line"/>
			<point x="473" y="376"/>
			<point x="473" y="376"/>
			<point x="473" y="376" type="curve"/>
			<point x="176" y="376" type="line"/>
			<point x="176" y="629" type="line"/>
			<point x="514" y="629" type="line"/>
			<point x="514" y="629"/>
			<point x="514" y="629"/>
			<point x="514" y="629" type="curve"/>
			<point x="514" y="692" type="line"/>
			<point x="514" y="692"/>
			<point x="514" y="692"/>
			<point x="514" y="692" type="curve"/>
			<point x="90" y="692" type="line"/>
			<point x="90" y="692"/>
			<point x="90" y="692"/>
			<point x="90" y="692" type="curve"/>
			<point x="90" y="0" type="line"/>
			<point x="90" y="0"/>
			<point x="90" y="0"/>
			<point x="90" y="0" type="curve"/>
			<point x="176" y="0" type="line"/>
			<point x="176" y="0"/>
			<point x="176" y="0"/>
			<point x="176" y="0" type="curve"/>
		</contour>
	</outline>
</glyph>
<glyph name="G" format="2">
	<unicode hex="0047"/>
	<advance width="1306"/>
	<outline>
		<contour>
			<point x="130" y="696" type="curve" smooth="yes"/>
			<point x="130" y="336"/>
			<point x="380" y="-18"/>
			<point x="766" y="-18" type="curve" smooth="yes"/>
			<point x="906" y="-18"/>
			<point x="1048" y="14"/>
			<point x="1174" y="78" type="curve"/>
			<point x="1174" y="606" type="line"/>
			<point x="1174" y="606"/>
			<point x="1174" y="606"/>
			<point x="1174" y="606" type="curve"/>
			<point x="760" y="606" type="line"/>
			<point x="760" y="606"/>
			<point x="760" y="606"/>
			<point x="760" y="606" type="curve"/>
			<point x="760" y="484" type="line"/>
			<point x="760" y="484"/>
			<point x="760" y="484"/>
			<point x="760" y="484" type="curve"/>
			<point x="1020" y="484" type="line"/>
			<point x="1020" y="148" type="line"/>
			<point x="938" y="128"/>
			<point x="856" y="108"/>
			<point x="758" y="108" type="curve" smooth="yes"/>
			<point x="470" y="108"/>
			<point x="302" y="418"/>
			<point x="302" y="696" type="curve" smooth="yes"/>
			<point x="302" y="964"/>
			<point x="464" y="1286"/>
			<point x="768" y="1286" type="curve" smooth="yes"/>
			<point x="920" y="1286"/>
			<point x="1018" y="1240"/>
			<point x="1128" y="1150" type="curve"/>
			<point x="1128" y="1150"/>
			<point x="1128" y="1150"/>
			<point x="1128" y="1150" type="curve"/>
			<point x="1128" y="1150"/>
			<point x="1128" y="1150"/>
			<point x="1128" y="1150" type="curve"/>
			<point x="1158" y="1314" type="line"/>
			<point x="1158" y="1314"/>
			<point x="1158" y="1314"/>
			<point x="1158" y="1314" type="curve"/>
			<point x="1024" y="1382"/>
			<point x="914" y="1412"/>
			<point x="762" y="1412" type="curve" smooth="yes"/>
			<point x="380" y="1412"/>
			<point x="130" y="1052"/>
		</contour>
	</outline>
</glyph>
<glyph name="H" format="2">
	<unicode hex="0048"/>
	<advance width="1372"/>
	<outline>
		<contour>
			<point x="352" y="662" type="line"/>
			<point x="1018" y="662" type="line"/>
			<point x="1018" y="0" type="line"/>
			<point x="1018" y="0"/>
			<point x="1018" y="0"/>
			<point x="1018" y="0" type="curve"/>
			<point x="1190" y="0" type="line"/>
			<point x="1190" y="0"/>
			<point x="1190" y="0"/>
			<point x="1190" y="0" type="curve"/>
			<point x="1190" y="1388" type="line"/>
			<point x="1190" y="1388"/>
			<point x="1190" y="1388"/>
			<point x="1190" y="1388" type="curve"/>
			<point x="1018" y="1388" type="line"/>
			<point x="1018" y="1388"/>
			<point x="1018" y="1388"/>
			<point x="1018" y="1388" type="curve"/>
			<point x="1018" y="782" type="line"/>
			<point x="352" y="782" type="line"/>
			<point x="352" y="1388" type="line"/>
			<point x="352" y="1388"/>
			<point x="352" y="1388"/>
			<point x="352" y="1388" type="curve"/>
			<point x="180" y="1388" type="line"/>
			<point x="180" y="1388"/>
			<point x="180" y="1388"/>
			<point x="180" y="1388" type="curve"/>
			<point x="180" y="0" type="line"/>
			<point x="180" y="0"/>
			<point x="180" y="0"/>
			<point x="180" y="0" type="curve"/>
			<point x="352" y="0" type="line"/>
			<point x="352" y="0"/>
			<point x="352" y="0"/>
			<point x="352" y="0" type="curve"/>
		</contour>
	</outline>
</glyph>
<glyph name="I" format="2">
	<unicode hex="0049"/>
	<advance width="532"/>
	<outline>
		<contour>
			<point x="180" y="1388" type="line"/>
			<point x="180" y="1388"/>
			<point x="180" y="1388"/>
			<point x="180" y="1388" type="curve"/>
			<point x="180" y="0" type="line"/>
			<point x="180" y="0"/>
			<point x="180" y="0"/>
			<point x="180" y="0" type="curve"/>
			<point x="352" y="0" type="line"/>
			<point x="352" y="0"/>
			<point x="352" y="0"/>
			<point x="352" y="0" type="curve"/>
			<point x="352" y="1388" type="line"/>
			<point x="352" y="1388"/>
			<point x="352" y="1388"/>
			<point x="352" y="1388" type="curve"/>
		</contour>
	</outline>
</glyph>
<glyph name="J" format="2">
  <advance width="459"/>
  <unicode hex="004A"/>
  <outline>
    <contour>
      <point x="379" y="694" type="line"/>
      <point x="295" y="694" type="line"/>
      <point x="295" y="152" type="line" smooth="yes"/>
      <point x="295" y="94"/>
      <point x="267" y="41"/>
      <point x="179" y="41" type="curve" smooth="yes"/>
      <point x="123" y="41"/>
      <point x="80" y="67"/>
      <point x="55" y="96" type="curve"/>
      <point x="41" y="21" type="line"/>
      <point x="99" y="-9"/>
      <point x="155" y="-21"/>
      <point x="208" y="-21" type="curve" smooth="yes"/>
      <point x="313" y="-21"/>
      <point x="379" y="41"/>
      <point x="379" y="148" type="curve" smooth="yes"/>
    </contour>
  </outline>
</glyph>
<glyph name="K" format="2">
	<unicode hex="004B"/>
	<advance width="674"/>
	<outline>
		<contour>
			<point x="358" y="419" type="line"/>
			<point x="619" y="694" type="line"/>
			<point x="619" y="694"/>
			<point x="619" y="694"/>
			<point x="619" y="694" type="curve"/>
			<point x="619" y="694"/>
			<point x="619" y="694"/>
			<point x="619" y="694" type="curve"/>
			<point x="525" y="694" type="line"/>
			<point x="525" y="694"/>
			<point x="525" y="694"/>
			<point x="525" y="694" type="curve"/>
			<point x="175" y="325" type="line"/>
			<point x="175" y="694" type="line"/>
			<point x="175" y="694"/>
			<point x="175" y="694"/>
			<point x="175" y="694" type="curve"/>
			<point x="91" y="694" type="line"/>
			<point x="91" y="694"/>
			<point x="91" y="694"/>
			<point x="91" y="694" type="curve"/>
			<point x="91" y="0" type="line"/>
			<point x="91" y="0"/>
			<point x="91" y="0"/>
			<point x="91" y="0" type="curve"/>
			<point x="175" y="0" type="line"/>
			<point x="175" y="0"/>
			<point x="175" y="0"/>
			<point x="175" y="0" type="curve"/>
			<point x="175" y="226" type="line"/>
			<point x="304" y="362" type="line"/>
			<point x="540" y="0" type="line"/>
			<point x="540" y="0"/>
			<point x="540" y="0"/>
			<point x="540" y="0" type="curve"/>
			<point x="632" y="0" type="line"/>
			<point x="632" y="0"/>
			<point x="632" y="0"/>
			<point x="632" y="0" type="curve"/>
		</contour>
	</outline>
</glyph>
<glyph name="L" format="2">
  <advance width="528"/>
  <unicode hex="004C"/>
  <outline>
    <contour>
      <point x="90" y="0" type="line"/>
      <point x="487" y="0" type="line"/>
      <point x="487" y="64" type="line"/>
      <point x="176" y="64" type="line"/>
      <point x="176" y="694" type="line"/>
      <point x="90" y="694" type="line"/>
    </contour>
  </outline>
</glyph>
<glyph name="M" format="2">
	<unicode hex="004D"/>
	<advance width="849"/>
	<outline>
		<contour>
			<point x="298" y="259" type="curve" smooth="yes"/>
			<point x="387" y="21" type="line"/>
			<point x="387" y="21"/>
			<point x="387" y="21"/>
			<point x="387" y="21" type="curve"/>
			<point x="460" y="21" type="line"/>
			<point x="460" y="21"/>
			<point x="460" y="21"/>
			<point x="460" y="21" type="curve"/>
			<point x="567" y="307" type="line" smooth="yes"/>
			<point x="587" y="360"/>
			<point x="660" y="552"/>
			<point x="676" y="618" type="curve"/>
			<point x="677" y="618" type="line"/>
			<point x="677" y="0" type="line"/>
			<point x="677" y="0"/>
			<point x="677" y="0"/>
			<point x="677" y="0" type="curve"/>
			<point x="754" y="0" type="line"/>
			<point x="754" y="0"/>
			<point x="754" y="0"/>
			<point x="754" y="0" type="curve"/>
			<point x="754" y="694" type="line"/>
			<point x="754" y="694"/>
			<point x="754" y="694"/>
			<point x="754" y="694" type="curve"/>
			<point x="640" y="694" type="line"/>
			<point x="640" y="694"/>
			<point x="640" y="694"/>
			<point x="640" y="694" type="curve"/>
			<point x="526" y="386" type="line" smooth="yes"/>
			<point x="474" y="246"/>
			<point x="435" y="141"/>
			<point x="425" y="95" type="curve"/>
			<point x="424" y="95" type="line"/>
			<point x="419" y="121"/>
			<point x="380" y="233"/>
			<point x="361" y="285" type="curve" smooth="yes"/>
			<point x="209" y="694" type="line"/>
			<point x="209" y="694"/>
			<point x="209" y="694"/>
			<point x="209" y="694" type="curve"/>
			<point x="95" y="694" type="line"/>
			<point x="95" y="694"/>
			<point x="95" y="694"/>
			<point x="95" y="694" type="curve"/>
			<point x="95" y="0" type="line"/>
			<point x="95" y="0"/>
			<point x="95" y="0"/>
			<point x="95" y="0" type="curve"/>
			<point x="172" y="0" type="line"/>
			<point x="172" y="0"/>
			<point x="172" y="0"/>
			<point x="172" y="0" type="curve"/>
			<point x="172" y="617" type="line"/>
			<point x="173" y="617" type="line"/>
			<point x="186" y="557"/>
			<point x="243" y="406"/>
		</contour>
	</outline>
</glyph>
<glyph name="N" format="2">
	<unicode hex="004E"/>
	<advance width="1372"/>
	<outline>
		<contour>
			<point x="500" y="904" type="curve" smooth="yes"/>
			<point x="942" y="0" type="line"/>
			<point x="942" y="0"/>
			<point x="942" y="0"/>
			<point x="942" y="0" type="curve"/>
			<point x="1188" y="0" type="line"/>
			<point x="1188" y="0"/>
			<point x="1188" y="0"/>
			<point x="1188" y="0" type="curve"/>
			<point x="1188" y="1388" type="line"/>
			<point x="1188" y="1388"/>
			<point x="1188" y="1388"/>
			<point x="1188" y="1388" type="curve"/>
			<point x="1034" y="1388" type="line"/>
			<point x="1034" y="1388"/>
			<point x="1034" y="1388"/>
			<point x="1034" y="1388" type="curve"/>
			<point x="1034" y="148" type="line"/>
			<point x="1032" y="148" type="line"/>
			<point x="1014" y="188"/>
			<point x="910" y="404"/>
			<point x="870" y="484" type="curve" smooth="yes"/>
			<point x="428" y="1388" type="line"/>
			<point x="428" y="1388"/>
			<point x="428" y="1388"/>
			<point x="428" y="1388" type="curve"/>
			<point x="182" y="1388" type="line"/>
			<point x="182" y="1388"/>
			<point x="182" y="1388"/>
			<point x="182" y="1388" type="curve"/>
			<point x="182" y="0" type="line"/>
			<point x="182" y="0"/>
			<point x="182" y="0"/>
			<point x="182" y="0" type="curve"/>
			<point x="336" y="0" type="line"/>
			<point x="336" y="0"/>
			<point x="336" y="0"/>
			<point x="336" y="0" type="curve"/>
			<point x="336" y="1240" type="line"/>
			<point x="338" y="1240" type="line"/>
			<point x="356" y="1200"/>
			<point x="460" y="984"/>
		</contour>
	</outline>
</glyph>
<glyph name="O" format="2">
	<unicode hex="004F"/>
	<advance width="1444"/>
	<outline>
		<contour>
			<point x="1334" y="690" type="curve" smooth="yes"/>
			<point x="1334" y="1114"/>
			<point x="1046" y="1430"/>
			<point x="722" y="1430" type="curve" smooth="yes"/>
			<point x="390" y="1430"/>
			<point x="108" y="1108"/>
			<point x="108" y="690" type="curve" smooth="yes"/>
			<point x="108" y="268"/>
			<point x="398" y="-42"/>
			<point x="720" y="-42" type="curve" smooth="yes"/>
			<point x="1050" y="-42"/>
			<point x="1334" y="272"/>
		</contour>
		<contour>
			<point x="722" y="84" type="curve" smooth="yes"/>
			<point x="490" y="84"/>
			<point x="280" y="334"/>
			<point x="280" y="720" type="curve" smooth="yes"/>
			<point x="280" y="1088"/>
			<point x="498" y="1306"/>
			<point x="720" y="1306" type="curve" smooth="yes"/>
			<point x="948" y="1306"/>
			<point x="1162" y="1082"/>
			<point x="1162" y="720" type="curve" smooth="yes"/>
			<point x="1162" y="328"/>
			<point x="946" y="84"/>
		</contour>
	</outline>
</glyph>
<glyph name="P" format="2">
	<unicode hex="0050"/>
	<advance width="1244"/>
	<outline>
		<contour>
			<point x="354" y="578" type="line"/>
			<point x="670" y="578" type="line" smooth="yes"/>
			<point x="946" y="578"/>
			<point x="1136" y="776"/>
			<point x="1136" y="984" type="curve" smooth="yes"/>
			<point x="1136" y="1196"/>
			<point x="942" y="1388"/>
			<point x="670" y="1388" type="curve" smooth="yes"/>
			<point x="182" y="1388" type="line"/>
			<point x="182" y="1388"/>
			<point x="182" y="1388"/>
			<point x="182" y="1388" type="curve"/>
			<point x="182" y="0" type="line"/>
			<point x="182" y="0"/>
			<point x="182" y="0"/>
			<point x="182" y="0" type="curve"/>
			<point x="354" y="0" type="line"/>
			<point x="354" y="0"/>
			<point x="354" y="0"/>
			<point x="354" y="0" type="curve"/>
		</contour>
		<contour>
			<point x="628" y="1276" type="line" smooth="yes"/>
			<point x="862" y="1276"/>
			<point x="978" y="1136"/>
			<point x="978" y="986" type="curve" smooth="yes"/>
			<point x="978" y="828"/>
			<point x="856" y="694"/>
			<point x="628" y="694" type="curve" smooth="yes"/>
			<point x="350" y="694" type="line"/>
			<point x="350" y="1276" type="line"/>
		</contour>
	</outline>
</glyph>
<glyph name="Q" format="2">
	<unicode hex="0051"/>
	<advance width="722"/>
	<outline>
		<contour>
			<point x="54" y="345" type="curve" smooth="yes"/>
			<point x="54" y="136"/>
			<point x="196" y="-21"/>
			<point x="361" y="-21" type="curve" smooth="yes"/>
			<point x="403" y="-21"/>
			<point x="441" y="-9"/>
			<point x="454" y="-4" type="curve"/>
			<point x="481.972" y="-44.293"/>
			<point x="509.944" y="-84.586"/>
			<point x="538" y="-125" type="curve"/>
			<point x="538" y="-125"/>
			<point x="538" y="-125"/>
			<point x="538" y="-125" type="curve"/>
			<point x="639" y="-125" type="line"/>
			<point x="639" y="-125"/>
			<point x="639" y="-125"/>
			<point x="639" y="-125" type="curve"/>
			<point x="639" y="-125"/>
			<point x="639" y="-125"/>
			<point x="639" y="-125" type="curve"/>
			<point x="522" y="33" type="line"/>
			<point x="621" y="113"/>
			<point x="667" y="222"/>
			<point x="667" y="345" type="curve" smooth="yes"/>
			<point x="667" y="557"/>
			<point x="523" y="715"/>
			<point x="361" y="715" type="curve" smooth="yes"/>
			<point x="195" y="715"/>
			<point x="54" y="554"/>
		</contour>
		<contour>
			<point x="138" y="345" type="curve" smooth="yes"/>
			<point x="138" y="535"/>
			<point x="247" y="653"/>
			<point x="360" y="653" type="curve" smooth="yes"/>
			<point x="477" y="653"/>
			<point x="583" y="532"/>
			<point x="583" y="345" type="curve" smooth="yes"/>
			<point x="583" y="217"/>
			<point x="533" y="131"/>
			<point x="482" y="89" type="curve"/>
			<point x="404" y="194" type="line"/>
			<point x="404" y="194"/>
			<point x="404" y="194"/>
			<point x="404" y="194" type="curve"/>
			<point x="317" y="194" type="line"/>
			<point x="317" y="194"/>
			<point x="317" y="194"/>
			<point x="317" y="194" type="curve"/>
			<point x="350.3" y="146.048"/>
			<point x="383.6" y="98.096"/>
			<point x="417" y="50" type="curve"/>
			<point x="417" y="50"/>
			<point x="417" y="50"/>
			<point x="417" y="50" type="curve"/>
			<point x="397" y="43"/>
			<point x="389" y="41"/>
			<point x="361" y="41" type="curve" smooth="yes"/>
			<point x="245" y="41"/>
			<point x="138" y="159"/>
		</contour>
	</outline>
</glyph>
<glyph name="R" format="2">
	<unicode hex="0052"/>
	<advance width="1260"/>
	<outline>
		<contour>
			<point x="814" y="652" type="line"/>
			<point x="1032" y="714"/>
			<point x="1150" y="866"/>
			<point x="1150" y="1014" type="curve" smooth="yes"/>
			<point x="1150" y="1214"/>
			<point x="936" y="1388"/>
			<point x="654" y="1388" type="curve" smooth="yes"/>
			<point x="182" y="1388" type="line"/>
			<point x="182" y="1388"/>
			<point x="182" y="1388"/>
			<point x="182" y="1388" type="curve"/>
			<point x="182" y="0" type="line"/>
			<point x="182" y="0"/>
			<point x="182" y="0"/>
			<point x="182" y="0" type="curve"/>
			<point x="350" y="0" type="line"/>
			<point x="350" y="0"/>
			<point x="350" y="0"/>
			<point x="350" y="0" type="curve"/>
			<point x="350" y="634" type="line"/>
			<point x="662" y="634" type="line"/>
			<point x="1034" y="0" type="line"/>
			<point x="1034" y="0"/>
			<point x="1034" y="0"/>
			<point x="1034" y="0" type="curve"/>
			<point x="1204" y="0" type="line"/>
			<point x="1204" y="0"/>
			<point x="1204" y="0"/>
			<point x="1204" y="0" type="curve"/>
		</contour>
		<contour>
			<point x="350" y="754" type="line"/>
			<point x="350" y="1276" type="line"/>
			<point x="632" y="1276" type="line" smooth="yes"/>
			<point x="874" y="1276"/>
			<point x="992" y="1148"/>
			<point x="992" y="1014" type="curve" smooth="yes"/>
			<point x="992" y="890"/>
			<point x="884" y="754"/>
			<point x="632" y="754" type="curve" smooth="yes"/>
		</contour>
	</outline>
</glyph>
<glyph name="S" format="2">
	<unicode hex="0053"/>
	<advance width="1086"/>
	<outline>
		<contour>
			<point x="824" y="358" type="curve" smooth="yes"/>
			<point x="824" y="220"/>
			<point x="710" y="92"/>
			<point x="538" y="92" type="curve" smooth="yes"/>
			<point x="392" y="92"/>
			<point x="236" y="150"/>
			<point x="118" y="258" type="curve"/>
			<point x="118" y="258"/>
			<point x="118" y="258"/>
			<point x="118" y="258" type="curve"/>
			<point x="118" y="258"/>
			<point x="118" y="258"/>
			<point x="118" y="258" type="curve"/>
			<point x="88" y="96" type="line"/>
			<point x="88" y="96"/>
			<point x="88" y="96"/>
			<point x="88" y="96" type="curve"/>
			<point x="270" y="-24"/>
			<point x="446" y="-42"/>
			<point x="538" y="-42" type="curve" smooth="yes"/>
			<point x="796" y="-42"/>
			<point x="978" y="156"/>
			<point x="978" y="378" type="curve" smooth="yes"/>
			<point x="978" y="506"/>
			<point x="916" y="602"/>
			<point x="872" y="652" type="curve" smooth="yes"/>
			<point x="780" y="750"/>
			<point x="706" y="770"/>
			<point x="572" y="804" type="curve" smooth="yes"/>
			<point x="436" y="838"/>
			<point x="386" y="850"/>
			<point x="342" y="892" type="curve"/>
			<point x="316" y="920"/>
			<point x="262" y="970"/>
			<point x="262" y="1060" type="curve" smooth="yes"/>
			<point x="262" y="1182"/>
			<point x="372" y="1300"/>
			<point x="548" y="1300" type="curve" smooth="yes"/>
			<point x="718" y="1300"/>
			<point x="808" y="1234"/>
			<point x="880" y="1170" type="curve"/>
			<point x="880" y="1170"/>
			<point x="880" y="1170"/>
			<point x="880" y="1170" type="curve"/>
			<point x="880" y="1170"/>
			<point x="880" y="1170"/>
			<point x="880" y="1170" type="curve"/>
			<point x="910" y="1332" type="line"/>
			<point x="910" y="1332"/>
			<point x="910" y="1332"/>
			<point x="910" y="1332" type="curve"/>
			<point x="828" y="1376"/>
			<point x="728" y="1430"/>
			<point x="550" y="1430" type="curve" smooth="yes"/>
			<point x="282" y="1430"/>
			<point x="108" y="1238"/>
			<point x="108" y="1038" type="curve" smooth="yes"/>
			<point x="108" y="896"/>
			<point x="194" y="804"/>
			<point x="204" y="794" type="curve" smooth="yes"/>
			<point x="302" y="694"/>
			<point x="370" y="676"/>
			<point x="498" y="644" type="curve" smooth="yes"/>
			<point x="668" y="602"/>
			<point x="696" y="594"/>
			<point x="760" y="528" type="curve" smooth="yes"/>
			<point x="794" y="492"/>
			<point x="824" y="428"/>
		</contour>
	</outline>
</glyph>
<glyph name="T" format="2">
	<unicode hex="0054"/>
	<advance width="1334"/>
	<outline>
		<contour>
			<point x="582" y="1252" type="line"/>
			<point x="582" y="0" type="line"/>
			<point x="582" y="0"/>
			<point x="582" y="0"/>
			<point x="582" y="0" type="curve"/>
			<point x="754" y="0" type="line"/>
			<point x="754" y="0"/>
			<point x="754" y="0"/>
			<point x="754" y="0" type="curve"/>
			<point x="754" y="1252" type="line"/>
			<point x="924" y="1252"/>
			<point x="1094" y="1252"/>
			<point x="1264" y="1252" type="curve"/>
			<point x="1264" y="1252"/>
			<point x="1264" y="1252"/>
			<point x="1264" y="1252" type="curve"/>
			<point x="1264" y="1378" type="line"/>
			<point x="1264" y="1378"/>
			<point x="1264" y="1378"/>
			<point x="1264" y="1378" type="curve"/>
			<point x="70" y="1378" type="line"/>
			<point x="70" y="1378"/>
			<point x="70" y="1378"/>
			<point x="70" y="1378" type="curve"/>
			<point x="70" y="1252" type="line"/>
			<point x="70" y="1252"/>
			<point x="70" y="1252"/>
			<point x="70" y="1252" type="curve"/>
		</contour>
	</outline>
</glyph>
<glyph name="U" format="2">
	<unicode hex="0055"/>
	<advance width="1332"/>
	<outline>
		<contour>
			<point x="670" y="-42" type="curve" smooth="yes"/>
			<point x="930" y="-42"/>
			<point x="1152" y="176"/>
			<point x="1152" y="466" type="curve" smooth="yes"/>
			<point x="1152" y="1388" type="line"/>
			<point x="1152" y="1388"/>
			<point x="1152" y="1388"/>
			<point x="1152" y="1388" type="curve"/>
			<point x="1000" y="1388" type="line"/>
			<point x="1000" y="1388"/>
			<point x="1000" y="1388"/>
			<point x="1000" y="1388" type="curve"/>
			<point x="1000" y="464" type="line" smooth="yes"/>
			<point x="1000" y="196"/>
			<point x="832" y="70"/>
			<point x="672" y="70" type="curve" smooth="yes"/>
			<point x="514" y="70"/>
			<point x="352" y="194"/>
			<point x="352" y="464" type="curve" smooth="yes"/>
			<point x="352" y="1388" type="line"/>
			<point x="352" y="1388"/>
			<point x="352" y="1388"/>
			<point x="352" y="1388" type="curve"/>
			<point x="180" y="1388" type="line"/>
			<point x="180" y="1388"/>
			<point x="180" y="1388"/>
			<point x="180" y="1388" type="curve"/>
			<point x="180" y="466" type="line" smooth="yes"/>
			<point x="180" y="172"/>
			<point x="410" y="-42"/>
		</contour>
	</outline>
</glyph>
<glyph name="V" format="2">
	<unicode hex="0056"/>
	<advance width="1294"/>
	<outline>
		<contour>
			<point x="528" y="530" type="curve" smooth="yes"/>
			<point x="208" y="1388" type="line"/>
			<point x="208" y="1388"/>
			<point x="208" y="1388"/>
			<point x="208" y="1388" type="curve"/>
			<point x="30" y="1388" type="line"/>
			<point x="30" y="1388"/>
			<point x="30" y="1388"/>
			<point x="30" y="1388" type="curve"/>
			<point x="30" y="1388"/>
			<point x="30" y="1388"/>
			<point x="30" y="1388" type="curve"/>
			<point x="556" y="0" type="line"/>
			<point x="556" y="0"/>
			<point x="556" y="0"/>
			<point x="556" y="0" type="curve"/>
			<point x="736" y="0" type="line"/>
			<point x="736" y="0"/>
			<point x="736" y="0"/>
			<point x="736" y="0" type="curve"/>
			<point x="1264" y="1388" type="line"/>
			<point x="1264" y="1388"/>
			<point x="1264" y="1388"/>
			<point x="1264" y="1388" type="curve"/>
			<point x="1264" y="1388"/>
			<point x="1264" y="1388"/>
			<point x="1264" y="1388" type="curve"/>
			<point x="1112" y="1388" type="line"/>
			<point x="1112" y="1388"/>
			<point x="1112" y="1388"/>
			<point x="1112" y="1388" type="curve"/>
			<point x="1029" y="1167"/>
			<point x="946" y="946"/>
			<point x="862" y="724" type="curve" smooth="yes"/>
			<point x="782" y="510"/>
			<point x="682" y="246"/>
			<point x="660" y="148" type="curve"/>
			<point x="658" y="148" type="line"/>
			<point x="640" y="234"/>
			<point x="576" y="402"/>
		</contour>
	</outline>
</glyph>
<glyph name="W" format="2">
	<unicode hex="0057"/>
	<advance width="1836"/>
	<outline>
		<contour>
			<point x="774" y="680" type="line" smooth="yes"/>
			<point x="824" y="858"/>
			<point x="900" y="1132"/>
			<point x="912" y="1238" type="curve"/>
			<point x="914" y="1238" type="line"/>
			<point x="914" y="1236"/>
			<point x="928" y="1134"/>
			<point x="1022" y="792" type="curve" smooth="yes"/>
			<point x="1240" y="0" type="line"/>
			<point x="1240" y="0"/>
			<point x="1240" y="0"/>
			<point x="1240" y="0" type="curve"/>
			<point x="1416" y="0" type="line"/>
			<point x="1416" y="0"/>
			<point x="1416" y="0"/>
			<point x="1416" y="0" type="curve"/>
			<point x="1808" y="1388" type="line"/>
			<point x="1808" y="1388"/>
			<point x="1808" y="1388"/>
			<point x="1808" y="1388" type="curve"/>
			<point x="1808" y="1388"/>
			<point x="1808" y="1388"/>
			<point x="1808" y="1388" type="curve"/>
			<point x="1662" y="1388" type="line"/>
			<point x="1662" y="1388"/>
			<point x="1662" y="1388"/>
			<point x="1662" y="1388" type="curve"/>
			<point x="1400" y="436" type="line" smooth="yes"/>
			<point x="1374" y="340"/>
			<point x="1344" y="224"/>
			<point x="1336" y="152" type="curve"/>
			<point x="1334" y="152" type="line"/>
			<point x="1324" y="236"/>
			<point x="1280" y="408"/>
			<point x="1246" y="528" type="curve" smooth="yes"/>
			<point x="1010" y="1388" type="line"/>
			<point x="1010" y="1388"/>
			<point x="1010" y="1388"/>
			<point x="1010" y="1388" type="curve"/>
			<point x="840" y="1388" type="line"/>
			<point x="840" y="1388"/>
			<point x="840" y="1388"/>
			<point x="840" y="1388" type="curve"/>
			<point x="668" y="768" type="line" smooth="yes"/>
			<point x="654" y="720"/>
			<point x="534" y="284"/>
			<point x="520" y="154" type="curve"/>
			<point x="518" y="154" type="line"/>
			<point x="510" y="232"/>
			<point x="460" y="426"/>
			<point x="452" y="460" type="curve" smooth="yes"/>
			<point x="198" y="1388" type="line"/>
			<point x="198" y="1388"/>
			<point x="198" y="1388"/>
			<point x="198" y="1388" type="curve"/>
			<point x="28" y="1388" type="line"/>
			<point x="28" y="1388"/>
			<point x="28" y="1388"/>
			<point x="28" y="1388" type="curve"/>
			<point x="28" y="1388"/>
			<point x="28" y="1388"/>
			<point x="28" y="1388" type="curve"/>
			<point x="420" y="0" type="line"/>
			<point x="420" y="0"/>
			<point x="420" y="0"/>
			<point x="420" y="0" type="curve"/>
			<point x="586" y="0" type="line"/>
			<point x="586" y="0"/>
			<point x="586" y="0"/>
			<point x="586" y="0" type="curve"/>
		</contour>
	</outline>
</glyph>
<glyph name="X" format="2">
	<unicode hex="0058"/>
	<advance width="647"/>
	<outline>
		<contour>
			<point x="358" y="366" type="line"/>
			<point x="592" y="694" type="line"/>
			<point x="592" y="694"/>
			<point x="592" y="694"/>
			<point x="592" y="694" type="curve"/>
			<point x="592" y="694"/>
			<point x="592" y="694"/>
			<point x="592" y="694" type="curve"/>
			<point x="499" y="694" type="line"/>
			<point x="499" y="694"/>
			<point x="499" y="694"/>
			<point x="499" y="694" type="curve"/>
			<point x="316" y="432" type="line"/>
			<point x="128" y="694" type="line"/>
			<point x="128" y="694"/>
			<point x="128" y="694"/>
			<point x="128" y="694" type="curve"/>
			<point x="27" y="694" type="line"/>
			<point x="27" y="694"/>
			<point x="27" y="694"/>
			<point x="27" y="694" type="curve"/>
			<point x="27" y="694"/>
			<point x="27" y="694"/>
			<point x="27" y="694" type="curve"/>
			<point x="274" y="366" type="line"/>
			<point x="14" y="0" type="line"/>
			<point x="14" y="0"/>
			<point x="14" y="0"/>
			<point x="14" y="0" type="curve"/>
			<point x="14" y="0"/>
			<point x="14" y="0"/>
			<point x="14" y="0" type="curve"/>
			<point x="106" y="0" type="line"/>
			<point x="106" y="0"/>
			<point x="106" y="0"/>
			<point x="106" y="0" type="curve"/>
			<point x="316" y="306" type="line"/>
			<point x="532" y="0" type="line"/>
			<point x="532" y="0"/>
			<point x="532" y="0"/>
			<point x="532" y="0" type="curve"/>
			<point x="632" y="0" type="line"/>
			<point x="632" y="0"/>
			<point x="632" y="0"/>
			<point x="632" y="0" type="curve"/>
			<point x="632" y="0"/>
			<point x="632" y="0"/>
			<point x="632" y="0" type="curve"/>
		</contour>
	</outline>
</glyph>
<glyph name="Y" format="2">
	<unicode hex="0059"/>
	<advance width="1294"/>
	<outline>
		<contour>
			<point x="562" y="556" type="line"/>
			<point x="562" y="0" type="line"/>
			<point x="562" y="0"/>
			<point x="562" y="0"/>
			<point x="562" y="0" type="curve"/>
			<point x="730" y="0" type="line"/>
			<point x="730" y="0"/>
			<point x="730" y="0"/>
			<point x="730" y="0" type="curve"/>
			<point x="730" y="556" type="line"/>
			<point x="1286" y="1388" type="line"/>
			<point x="1286" y="1388"/>
			<point x="1286" y="1388"/>
			<point x="1286" y="1388" type="curve"/>
			<point x="1286" y="1388"/>
			<point x="1286" y="1388"/>
			<point x="1286" y="1388" type="curve"/>
			<point x="1114" y="1388" type="line"/>
			<point x="1114" y="1388"/>
			<point x="1114" y="1388"/>
			<point x="1114" y="1388" type="curve"/>
			<point x="770" y="870" type="line" smooth="yes"/>
			<point x="732" y="814"/>
			<point x="692" y="752"/>
			<point x="660" y="698" type="curve"/>
			<point x="654" y="708"/>
			<point x="632" y="748"/>
			<point x="546" y="878" type="curve" smooth="yes"/>
			<point x="206" y="1388" type="line"/>
			<point x="206" y="1388"/>
			<point x="206" y="1388"/>
			<point x="206" y="1388" type="curve"/>
			<point x="6" y="1388" type="line"/>
			<point x="6" y="1388"/>
			<point x="6" y="1388"/>
			<point x="6" y="1388" type="curve"/>
			<point x="6" y="1388"/>
			<point x="6" y="1388"/>
			<point x="6" y="1388" type="curve"/>
		</contour>
	</outline>
</glyph>
<glyph name="Z" format="2">
	<unicode hex="005A"/>
	<advance width="1196"/>
	<outline>
		<contour>
			<point x="868" y="1268" type="curve"/>
			<point x="108" y="82" type="line"/>
			<point x="108" y="82"/>
			<point x="108" y="82"/>
			<point x="108" y="82" type="curve"/>
			<point x="108" y="0" type="line"/>
			<point x="108" y="0"/>
			<point x="108" y="0"/>
			<point x="108" y="0" type="curve"/>
			<point x="1096" y="0" type="line"/>
			<point x="1096" y="0"/>
			<point x="1096" y="0"/>
			<point x="1096" y="0" type="curve"/>
			<point x="1096" y="128" type="line"/>
			<point x="1096" y="128"/>
			<point x="1096" y="128"/>
			<point x="1096" y="128" type="curve"/>
			<point x="908" y="128" type="line" smooth="yes"/>
			<point x="736" y="128"/>
			<point x="562" y="124"/>
			<point x="326" y="124" type="curve"/>
			<point x="1086" y="1308" type="line"/>
			<point x="1086" y="1308"/>
			<point x="1086" y="1308"/>
			<point x="1086" y="1308" type="curve"/>
			<point x="1086" y="1388" type="line"/>
			<point x="1086" y="1388"/>
			<point x="1086" y="1388"/>
			<point x="1086" y="1388" type="curve"/>
			<point x="136" y="1388" type="line"/>
			<point x="136" y="1388"/>
			<point x="136" y="1388"/>
			<point x="136" y="1388" type="curve"/>
			<point x="136" y="1266" type="line"/>
			<point x="136" y="1266"/>
			<point x="136" y="1266"/>
			<point x="136" y="1266" type="curve"/>
			<point x="267" y="1266"/>
			<point x="397" y="1266"/>
			<point x="528" y="1266" type="curve" smooth="yes"/>
			<point x="552" y="1266"/>
			<point x="576" y="1266"/>
		</contour>
	</outline>
</glyph>
<glyph name="bracketleft" format="2">
	<unicode hex="005B"/>
	<advance width="282"/>
	<outline>
		<contour>
			<point x="261" y="-250" type="line"/>
			<point x="261" y="-190" type="line"/>
			<point x="170" y="-190" type="line"/>
			<point x="170" y="690" type="line"/>
			<point x="261" y="690" type="line"/>
			<point x="261" y="750" type="line"/>
			<point x="99" y="750" type="line"/>
			<point x="99" y="-250" type="line"/>
		</contour>
	</outline>
</glyph>
<glyph name="bracketright" format="2">
	<unicode hex="005D"/>
	<advance width="282"/>
	<outline>
		<contour>
			<point x="112" y="690" type="line"/>
			<point x="112" y="-190" type="line"/>
			<point x="21" y="-190" type="line"/>
			<point x="21" y="-190"/>
			<point x="21" y="-190"/>
			<point x="21" y="-190" type="curve"/>
			<point x="21" y="-250" type="line"/>
			<point x="21" y="-250"/>
			<point x="21" y="-250"/>
			<point x="21" y="-250" type="curve"/>
			<point x="183" y="-250" type="line"/>
			<point x="183" y="-250"/>
			<point x="183" y="-250"/>
			<point x="183" y="-250" type="curve"/>
			<point x="183" y="750" type="line"/>
			<point x="183" y="750"/>
			<point x="183" y="750"/>
			<point x="183" y="750" type="curve"/>
			<point x="21" y="750" type="line"/>
			<point x="21" y="750"/>
			<point x="21" y="750"/>
			<point x="21" y="750" type="curve"/>
			<point x="21" y="690" type="line"/>
			<point x="21" y="690"/>
			<point x="21" y="690"/>
			<point x="21" y="690" type="curve"/>
		</contour>
	</outline>
</glyph>
<glyph name="grave" format="2">
	<unicode hex="0060"/>
	<advance width="978"/>
	<outline>
		<contour>
			<point x="456" y="1054" type="line"/>
			<point x="456" y="1054"/>
			<point x="456" y="1054"/>
			<point x="456" y="1054" type="curve"/>
			<point x="576" y="1054" type="line"/>
			<point x="576" y="1054"/>
			<point x="576" y="1054"/>
			<point x="576" y="1054" type="curve"/>
			<point x="576" y="1054"/>
			<point x="576" y="1054"/>
			<point x="576" y="1054" type="curve"/>
			<point x="316" y="1388" type="line"/>
			<point x="316" y="1388"/>
			<point x="316" y="1388"/>
			<point x="316" y="1388" type="curve"/>
			<point x="164" y="1388" type="line"/>
			<point x="164" y="1388"/>
			<point x="164" y="1388"/>
			<point x="164" y="1388" type="curve"/>
			<point x="164" y="1388"/>
			<point x="164" y="1388"/>
			<point x="164" y="1388" type="curve"/>
		</contour>
	</outline>
</glyph>
<glyph name="a" format="2">
	<unicode hex="0061"/>
	<advance width="936"/>
	<outline>
		<contour>
			<point x="782" y="586" type="line" smooth="yes"/>
			<point x="782" y="778"/>
			<point x="644" y="918"/>
			<point x="458" y="918" type="curve" smooth="yes"/>
			<point x="338" y="918"/>
			<point x="248" y="890"/>
			<point x="150" y="834" type="curve"/>
			<point x="150" y="834"/>
			<point x="150" y="834"/>
			<point x="150" y="834" type="curve"/>
			<point x="154" y="790"/>
			<point x="158" y="746"/>
			<point x="162" y="702" type="curve"/>
			<point x="162" y="702"/>
			<point x="162" y="702"/>
			<point x="162" y="702" type="curve"/>
			<point x="162" y="702"/>
			<point x="162" y="702"/>
			<point x="162" y="702" type="curve"/>
			<point x="250" y="766"/>
			<point x="342" y="802"/>
			<point x="458" y="802" type="curve" smooth="yes"/>
			<point x="550" y="802"/>
			<point x="630" y="728"/>
			<point x="630" y="582" type="curve" smooth="yes"/>
			<point x="630" y="500" type="line"/>
			<point x="354" y="494"/>
			<point x="88" y="416"/>
			<point x="88" y="230" type="curve" smooth="yes"/>
			<point x="88" y="142"/>
			<point x="140" y="-20"/>
			<point x="310" y="-20" type="curve" smooth="yes"/>
			<point x="420" y="-20"/>
			<point x="560" y="12"/>
			<point x="634" y="74" type="curve"/>
			<point x="634" y="0" type="line"/>
			<point x="634" y="0"/>
			<point x="634" y="0"/>
			<point x="634" y="0" type="curve"/>
			<point x="782" y="0" type="line"/>
			<point x="782" y="0"/>
			<point x="782" y="0"/>
			<point x="782" y="0" type="curve"/>
		</contour>
		<contour>
			<point x="630" y="268" type="line" smooth="yes"/>
			<point x="630" y="228"/>
			<point x="630" y="180"/>
			<point x="564" y="140" type="curve" smooth="yes"/>
			<point x="510" y="106"/>
			<point x="442" y="100"/>
			<point x="412" y="100" type="curve" smooth="yes"/>
			<point x="304" y="100"/>
			<point x="230" y="158"/>
			<point x="230" y="232" type="curve" smooth="yes"/>
			<point x="230" y="368"/>
			<point x="508" y="398"/>
			<point x="630" y="398" type="curve"/>
		</contour>
	</outline>
</glyph>
<glyph name="b" format="2">
	<unicode hex="0062"/>
	<advance width="1004"/>
	<outline>
		<contour>
			<point x="932" y="446" type="curve" smooth="yes"/>
			<point x="932" y="692"/>
			<point x="800" y="908"/>
			<point x="614" y="908" type="curve" smooth="yes"/>
			<point x="556" y="908"/>
			<point x="428" y="896"/>
			<point x="304" y="796" type="curve"/>
			<point x="304" y="1388" type="line"/>
			<point x="304" y="1388"/>
			<point x="304" y="1388"/>
			<point x="304" y="1388" type="curve"/>
			<point x="156" y="1388" type="line"/>
			<point x="156" y="1388"/>
			<point x="156" y="1388"/>
			<point x="156" y="1388" type="curve"/>
			<point x="156" y="0" type="line"/>
			<point x="156" y="0"/>
			<point x="156" y="0"/>
			<point x="156" y="0" type="curve"/>
			<point x="308" y="0" type="line"/>
			<point x="308" y="0"/>
			<point x="308" y="0"/>
			<point x="308" y="0" type="curve"/>
			<point x="308" y="90" type="line"/>
			<point x="400" y="2"/>
			<point x="498" y="-20"/>
			<point x="568" y="-20" type="curve" smooth="yes"/>
			<point x="758" y="-20"/>
			<point x="932" y="174"/>
		</contour>
		<contour>
			<point x="308" y="674" type="line"/>
			<point x="328" y="705"/>
			<point x="359" y="737"/>
			<point x="399" y="759" type="curve" smooth="yes"/>
			<point x="432" y="776"/>
			<point x="470" y="788"/>
			<point x="514" y="788" type="curve" smooth="yes"/>
			<point x="636" y="788"/>
			<point x="780" y="696"/>
			<point x="780" y="446" type="curve" smooth="yes"/>
			<point x="780" y="186"/>
			<point x="616" y="100"/>
			<point x="494" y="100" type="curve" smooth="yes"/>
			<point x="438" y="100"/>
			<point x="400" y="118"/>
			<point x="364" y="148" type="curve" smooth="yes"/>
			<point x="316" y="188"/>
			<point x="308" y="226"/>
			<point x="308" y="260" type="curve" smooth="yes"/>
		</contour>
	</outline>
</glyph>
<glyph name="c" format="2">
	<unicode hex="0063"/>
	<advance width="870"/>
	<outline>
		<contour>
			<point x="70" y="446" type="curve" smooth="yes"/>
			<point x="70" y="190"/>
			<point x="254" y="-20"/>
			<point x="494" y="-20" type="curve" smooth="yes"/>
			<point x="592" y="-20"/>
			<point x="704" y="4"/>
			<point x="814" y="84" type="curve"/>
			<point x="814" y="84"/>
			<point x="814" y="84"/>
			<point x="814" y="84" type="curve"/>
			<point x="810" y="128"/>
			<point x="806" y="172"/>
			<point x="802" y="216" type="curve"/>
			<point x="802" y="216"/>
			<point x="802" y="216"/>
			<point x="802" y="216" type="curve"/>
			<point x="802" y="216"/>
			<point x="802" y="216"/>
			<point x="802" y="216" type="curve"/>
			<point x="710" y="142"/>
			<point x="608" y="104"/>
			<point x="496" y="104" type="curve" smooth="yes"/>
			<point x="330" y="104"/>
			<point x="222" y="252"/>
			<point x="222" y="446" type="curve" smooth="yes"/>
			<point x="222" y="612"/>
			<point x="302" y="794"/>
			<point x="502" y="794" type="curve" smooth="yes"/>
			<point x="636" y="794"/>
			<point x="692" y="762"/>
			<point x="778" y="704" type="curve"/>
			<point x="778" y="704"/>
			<point x="778" y="704"/>
			<point x="778" y="704" type="curve"/>
			<point x="778" y="704"/>
			<point x="778" y="704"/>
			<point x="778" y="704" type="curve"/>
			<point x="786" y="747"/>
			<point x="794" y="791"/>
			<point x="802" y="834" type="curve"/>
			<point x="802" y="834"/>
			<point x="802" y="834"/>
			<point x="802" y="834" type="curve"/>
			<point x="686" y="902"/>
			<point x="620" y="918"/>
			<point x="502" y="918" type="curve" smooth="yes"/>
			<point x="226" y="918"/>
			<point x="70" y="674"/>
		</contour>
	</outline>
</glyph>
<glyph name="d" format="2">
	<unicode hex="0064"/>
	<advance width="1004"/>
	<outline>
		<contour>
			<point x="70" y="444" type="curve" smooth="yes"/>
			<point x="70" y="186"/>
			<point x="218" y="-20"/>
			<point x="408" y="-20" type="curve" smooth="yes"/>
			<point x="482" y="-20"/>
			<point x="594" y="4"/>
			<point x="694" y="102" type="curve"/>
			<point x="694" y="0" type="line"/>
			<point x="694" y="0"/>
			<point x="694" y="0"/>
			<point x="694" y="0" type="curve"/>
			<point x="846" y="0" type="line"/>
			<point x="846" y="0"/>
			<point x="846" y="0"/>
			<point x="846" y="0" type="curve"/>
			<point x="846" y="1388" type="line"/>
			<point x="846" y="1388"/>
			<point x="846" y="1388"/>
			<point x="846" y="1388" type="curve"/>
			<point x="698" y="1388" type="line"/>
			<point x="698" y="1388"/>
			<point x="698" y="1388"/>
			<point x="698" y="1388" type="curve"/>
			<point x="698" y="804" type="line"/>
			<point x="606" y="880"/>
			<point x="502" y="908"/>
			<point x="416" y="908" type="curve" smooth="yes"/>
			<point x="226" y="908"/>
			<point x="70" y="704"/>
		</contour>
		<contour>
			<point x="694" y="236" type="line"/>
			<point x="672" y="196"/>
			<point x="644" y="164"/>
			<point x="613" y="141" type="curve" smooth="yes"/>
			<point x="577" y="114"/>
			<point x="535" y="100"/>
			<point x="488" y="100" type="curve" smooth="yes"/>
			<point x="366" y="100"/>
			<point x="222" y="194"/>
			<point x="222" y="442" type="curve" smooth="yes"/>
			<point x="222" y="708"/>
			<point x="392" y="788"/>
			<point x="508" y="788" type="curve" smooth="yes"/>
			<point x="586" y="788"/>
			<point x="650" y="748"/>
			<point x="694" y="682" type="curve"/>
		</contour>
	</outline>
</glyph>
<glyph name="e" format="2">
	<unicode hex="0065"/>
	<advance width="870"/>
	<outline>
		<contour>
			<point x="66" y="450" type="curve" smooth="yes"/>
			<point x="66" y="186"/>
			<point x="258" y="-20"/>
			<point x="490" y="-20" type="curve" smooth="yes"/>
			<point x="582" y="-20"/>
			<point x="692" y="6"/>
			<point x="802" y="86" type="curve"/>
			<point x="802" y="86"/>
			<point x="802" y="86"/>
			<point x="802" y="86" type="curve"/>
			<point x="798" y="129"/>
			<point x="794" y="171"/>
			<point x="790" y="214" type="curve"/>
			<point x="790" y="214"/>
			<point x="790" y="214"/>
			<point x="790" y="214" type="curve"/>
			<point x="790" y="214"/>
			<point x="790" y="214"/>
			<point x="790" y="214" type="curve"/>
			<point x="672" y="114"/>
			<point x="554" y="100"/>
			<point x="494" y="100" type="curve" smooth="yes"/>
			<point x="340" y="100"/>
			<point x="208" y="238"/>
			<point x="204" y="450" type="curve"/>
			<point x="814" y="450" type="line"/>
			<point x="814" y="450"/>
			<point x="814" y="450"/>
			<point x="814" y="450" type="curve"/>
			<point x="814" y="536"/>
			<point x="806" y="658"/>
			<point x="742" y="764" type="curve" smooth="yes"/>
			<point x="660" y="902"/>
			<point x="520" y="918"/>
			<point x="462" y="918" type="curve" smooth="yes"/>
			<point x="246" y="918"/>
			<point x="66" y="710"/>
		</contour>
		<contour>
			<point x="216" y="558" type="line"/>
			<point x="250" y="692"/>
			<point x="344" y="798"/>
			<point x="462" y="798" type="curve" smooth="yes"/>
			<point x="524" y="798"/>
			<point x="662" y="770"/>
			<point x="696" y="558" type="curve"/>
		</contour>
	</outline>
</glyph>
<glyph name="f" format="2">
	<unicode hex="0066"/>
	<advance width="598"/>
	<outline>
		<contour>
			<point x="198" y="888" type="line"/>
			<point x="52" y="888" type="line"/>
			<point x="52" y="888"/>
			<point x="52" y="888"/>
			<point x="52" y="888" type="curve"/>
			<point x="52" y="772" type="line"/>
			<point x="52" y="772"/>
			<point x="52" y="772"/>
			<point x="52" y="772" type="curve"/>
			<point x="198" y="772" type="line"/>
			<point x="198" y="0" type="line"/>
			<point x="198" y="0"/>
			<point x="198" y="0"/>
			<point x="198" y="0" type="curve"/>
			<point x="346" y="0" type="line"/>
			<point x="346" y="0"/>
			<point x="346" y="0"/>
			<point x="346" y="0" type="curve"/>
			<point x="346" y="772" type="line"/>
			<point x="560" y="772" type="line"/>
			<point x="560" y="772"/>
			<point x="560" y="772"/>
			<point x="560" y="772" type="curve"/>
			<point x="560" y="888" type="line"/>
			<point x="560" y="888"/>
			<point x="560" y="888"/>
			<point x="560" y="888" type="curve"/>
			<point x="342" y="888" type="line"/>
			<point x="342" y="1128" type="line" smooth="yes"/>
			<point x="342" y="1264"/>
			<point x="456" y="1288"/>
			<point x="522" y="1288" type="curve" smooth="yes"/>
			<point x="592" y="1288"/>
			<point x="654" y="1266"/>
			<point x="678" y="1256" type="curve"/>
			<point x="678" y="1256"/>
			<point x="678" y="1256"/>
			<point x="678" y="1256" type="curve"/>
			<point x="678" y="1256"/>
			<point x="678" y="1256"/>
			<point x="678" y="1256" type="curve"/>
			<point x="678" y="1388" type="line"/>
			<point x="678" y="1388"/>
			<point x="678" y="1388"/>
			<point x="678" y="1388" type="curve"/>
			<point x="664" y="1392"/>
			<point x="598" y="1408"/>
			<point x="524" y="1408" type="curve" smooth="yes"/>
			<point x="334" y="1408"/>
			<point x="198" y="1262"/>
			<point x="198" y="1068" type="curve" smooth="yes"/>
		</contour>
	</outline>
</glyph>
<glyph name="h" format="2">
	<unicode hex="0068"/>
	<advance width="1004"/>
	<outline>
		<contour>
			<point x="848" y="602" type="line" smooth="yes"/>
			<point x="848" y="724"/>
			<point x="822" y="908"/>
			<point x="580" y="908" type="curve" smooth="yes"/>
			<point x="442" y="908"/>
			<point x="350" y="830"/>
			<point x="302" y="770" type="curve"/>
			<point x="302" y="770" type="line"/>
			<point x="302" y="1388" type="line"/>
			<point x="302" y="1388"/>
			<point x="302" y="1388"/>
			<point x="302" y="1388" type="curve"/>
			<point x="154" y="1388" type="line"/>
			<point x="154" y="1388"/>
			<point x="154" y="1388"/>
			<point x="154" y="1388" type="curve"/>
			<point x="154" y="0" type="line"/>
			<point x="154" y="0"/>
			<point x="154" y="0"/>
			<point x="154" y="0" type="curve"/>
			<point x="306" y="0" type="line"/>
			<point x="306" y="0"/>
			<point x="306" y="0"/>
			<point x="306" y="0" type="curve"/>
			<point x="306" y="498" type="line" smooth="yes"/>
			<point x="306" y="622"/>
			<point x="352" y="788"/>
			<point x="504" y="788" type="curve" smooth="yes"/>
			<point x="690" y="788"/>
			<point x="696" y="658"/>
			<point x="696" y="588" type="curve" smooth="yes"/>
			<point x="696" y="0" type="line"/>
			<point x="696" y="0"/>
			<point x="696" y="0"/>
			<point x="696" y="0" type="curve"/>
			<point x="848" y="0" type="line"/>
			<point x="848" y="0"/>
			<point x="848" y="0"/>
			<point x="848" y="0" type="curve"/>
		</contour>
	</outline>
</glyph>
<glyph name="i" format="2">
	<unicode hex="0069"/>
	<advance width="460"/>
	<outline>
		<contour>
			<point x="144" y="1358" type="curve"/>
			<point x="144" y="1186" type="line"/>
			<point x="144" y="1186"/>
			<point x="144" y="1186"/>
			<point x="144" y="1186" type="curve"/>
			<point x="316" y="1186" type="line"/>
			<point x="316" y="1186"/>
			<point x="316" y="1186"/>
			<point x="316" y="1186" type="curve"/>
			<point x="316" y="1358" type="line"/>
			<point x="316" y="1358"/>
			<point x="316" y="1358"/>
			<point x="316" y="1358" type="curve"/>
			<point x="144" y="1358" type="line"/>
			<point x="144" y="1358"/>
			<point x="144" y="1358"/>
		</contour>
		<contour>
			<point x="156" y="888" type="curve"/>
			<point x="156" y="0" type="line"/>
			<point x="156" y="0"/>
			<point x="156" y="0"/>
			<point x="156" y="0" type="curve"/>
			<point x="304" y="0" type="line"/>
			<point x="304" y="0"/>
			<point x="304" y="0"/>
			<point x="304" y="0" type="curve"/>
			<point x="304" y="888" type="line"/>
			<point x="304" y="888"/>
			<point x="304" y="888"/>
			<point x="304" y="888" type="curve"/>
			<point x="156" y="888" type="line"/>
			<point x="156" y="888"/>
			<point x="156" y="888"/>
		</contour>
	</outline>
</glyph>
<glyph name="k" format="2">
	<unicode hex="006B"/>
	<advance width="950"/>
	<outline>
		<contour>
			<point x="544" y="546" type="line"/>
			<point x="872" y="888" type="line"/>
			<point x="872" y="888"/>
			<point x="872" y="888"/>
			<point x="872" y="888" type="curve"/>
			<point x="872" y="888"/>
			<point x="872" y="888"/>
			<point x="872" y="888" type="curve"/>
			<point x="688" y="888" type="line"/>
			<point x="688" y="888"/>
			<point x="688" y="888"/>
			<point x="688" y="888" type="curve"/>
			<point x="302" y="486" type="line"/>
			<point x="302" y="1388" type="line"/>
			<point x="302" y="1388"/>
			<point x="302" y="1388"/>
			<point x="302" y="1388" type="curve"/>
			<point x="156" y="1388" type="line"/>
			<point x="156" y="1388"/>
			<point x="156" y="1388"/>
			<point x="156" y="1388" type="curve"/>
			<point x="156" y="0" type="line"/>
			<point x="156" y="0"/>
			<point x="156" y="0"/>
			<point x="156" y="0" type="curve"/>
			<point x="296" y="0" type="line"/>
			<point x="296" y="0"/>
			<point x="296" y="0"/>
			<point x="296" y="0" type="curve"/>
			<point x="296" y="288" type="line"/>
			<point x="448" y="446" type="line"/>
			<point x="752" y="0" type="line"/>
			<point x="752" y="0"/>
			<point x="752" y="0"/>
			<point x="752" y="0" type="curve"/>
			<point x="916" y="0" type="line"/>
			<point x="916" y="0"/>
			<point x="916" y="0"/>
			<point x="916" y="0" type="curve"/>
			<point x="916" y="0"/>
			<point x="916" y="0"/>
			<point x="916" y="0" type="curve"/>
		</contour>
	</outline>
</glyph>
<glyph name="m" format="2">
	<unicode hex="006D"/>
	<advance width="1548"/>
	<outline>
		<contour>
			<point x="1394" y="602" type="line" smooth="yes"/>
			<point x="1394" y="740"/>
			<point x="1358" y="908"/>
			<point x="1124" y="908" type="curve" smooth="yes"/>
			<point x="954" y="908"/>
			<point x="860" y="790"/>
			<point x="830" y="746" type="curve"/>
			<point x="794" y="872"/>
			<point x="684" y="908"/>
			<point x="580" y="908" type="curve" smooth="yes"/>
			<point x="416" y="908"/>
			<point x="330" y="802"/>
			<point x="296" y="760" type="curve"/>
			<point x="296" y="760" type="line"/>
			<point x="296" y="898" type="line"/>
			<point x="296" y="898"/>
			<point x="296" y="898"/>
			<point x="296" y="898" type="curve"/>
			<point x="154" y="898" type="line"/>
			<point x="154" y="898"/>
			<point x="154" y="898"/>
			<point x="154" y="898" type="curve"/>
			<point x="154" y="0" type="line"/>
			<point x="154" y="0"/>
			<point x="154" y="0"/>
			<point x="154" y="0" type="curve"/>
			<point x="306" y="0" type="line"/>
			<point x="306" y="0"/>
			<point x="306" y="0"/>
			<point x="306" y="0" type="curve"/>
			<point x="306" y="498" type="line" smooth="yes"/>
			<point x="306" y="630"/>
			<point x="358" y="788"/>
			<point x="504" y="788" type="curve" smooth="yes"/>
			<point x="688" y="788"/>
			<point x="698" y="662"/>
			<point x="698" y="588" type="curve" smooth="yes"/>
			<point x="698" y="0" type="line"/>
			<point x="698" y="0"/>
			<point x="698" y="0"/>
			<point x="698" y="0" type="curve"/>
			<point x="850" y="0" type="line"/>
			<point x="850" y="0"/>
			<point x="850" y="0"/>
			<point x="850" y="0" type="curve"/>
			<point x="850" y="498" type="line" smooth="yes"/>
			<point x="850" y="630"/>
			<point x="902" y="788"/>
			<point x="1048" y="788" type="curve" smooth="yes"/>
			<point x="1232" y="788"/>
			<point x="1242" y="662"/>
			<point x="1242" y="588" type="curve" smooth="yes"/>
			<point x="1242" y="0" type="line"/>
			<point x="1242" y="0"/>
			<point x="1242" y="0"/>
			<point x="1242" y="0" type="curve"/>
			<point x="1394" y="0" type="line"/>
			<point x="1394" y="0"/>
			<point x="1394" y="0"/>
			<point x="1394" y="0" type="curve"/>
		</contour>
	</outline>
</glyph>
<glyph name="n" format="2">
	<unicode hex="006E"/>
	<advance width="1004"/>
	<outline>
		<contour>
			<point x="848" y="602" type="line" smooth="yes"/>
			<point x="848" y="724"/>
			<point x="822" y="908"/>
			<point x="580" y="908" type="curve" smooth="yes"/>
			<point x="468" y="908"/>
			<point x="372" y="858"/>
			<point x="296" y="762" type="curve"/>
			<point x="296" y="762" type="line"/>
			<point x="296" y="898" type="line"/>
			<point x="296" y="898"/>
			<point x="296" y="898"/>
			<point x="296" y="898" type="curve"/>
			<point x="154" y="898" type="line"/>
			<point x="154" y="898"/>
			<point x="154" y="898"/>
			<point x="154" y="898" type="curve"/>
			<point x="154" y="0" type="line"/>
			<point x="154" y="0"/>
			<point x="154" y="0"/>
			<point x="154" y="0" type="curve"/>
			<point x="306" y="0" type="line"/>
			<point x="306" y="0"/>
			<point x="306" y="0"/>
			<point x="306" y="0" type="curve"/>
			<point x="306" y="498" type="line" smooth="yes"/>
			<point x="306" y="622"/>
			<point x="352" y="788"/>
			<point x="504" y="788" type="curve" smooth="yes"/>
			<point x="690" y="788"/>
			<point x="696" y="658"/>
			<point x="696" y="588" type="curve" smooth="yes"/>
			<point x="696" y="0" type="line"/>
			<point x="696" y="0"/>
			<point x="696" y="0"/>
			<point x="696" y="0" type="curve"/>
			<point x="848" y="0" type="line"/>
			<point x="848" y="0"/>
			<point x="848" y="0"/>
			<point x="848" y="0" type="curve"/>
		</contour>
	</outline>
</glyph>
<glyph name="o" format="2">
	<unicode hex="006F"/>
	<advance width="489"/>
	<outline>
		<contour>
			<point x="459" y="220" type="curve" smooth="yes"/>
			<point x="459" y="355"/>
			<point x="360" y="459"/>
			<point x="245" y="459" type="curve" smooth="yes"/>
			<point x="127" y="459"/>
			<point x="30" y="353"/>
			<point x="30" y="220" type="curve" smooth="yes"/>
			<point x="30" y="89"/>
			<point x="130" y="-10"/>
			<point x="244" y="-10" type="curve" smooth="yes"/>
			<point x="362" y="-10"/>
			<point x="459" y="91"/>
		</contour>
		<contour>
			<point x="245" y="52" type="curve" smooth="yes"/>
			<point x="173" y="52"/>
			<point x="106" y="112"/>
			<point x="106" y="230" type="curve" smooth="yes"/>
			<point x="106" y="351"/>
			<point x="181" y="399"/>
			<point x="244" y="399" type="curve" smooth="yes"/>
			<point x="313" y="399"/>
			<point x="383" y="347"/>
			<point x="383" y="230" type="curve" smooth="yes"/>
			<point x="383" y="107"/>
			<point x="312" y="52"/>
		</contour>
	</outline>
</glyph>
<glyph name="p" format="2">
	<unicode hex="0070"/>
	<advance width="1004"/>
	<outline>
		<contour>
			<point x="308" y="90" type="line"/>
			<point x="376" y="28"/>
			<point x="460" y="-20"/>
			<point x="568" y="-20" type="curve" smooth="yes"/>
			<point x="760" y="-20"/>
			<point x="932" y="174"/>
			<point x="932" y="446" type="curve" smooth="yes"/>
			<point x="932" y="688"/>
			<point x="804" y="908"/>
			<point x="618" y="908" type="curve" smooth="yes"/>
			<point x="536" y="908"/>
			<point x="408" y="882"/>
			<point x="304" y="794" type="curve"/>
			<point x="304" y="888" type="line"/>
			<point x="304" y="888"/>
			<point x="304" y="888"/>
			<point x="304" y="888" type="curve"/>
			<point x="156" y="888" type="line"/>
			<point x="156" y="888"/>
			<point x="156" y="888"/>
			<point x="156" y="888" type="curve"/>
			<point x="156" y="-388" type="line"/>
			<point x="156" y="-388"/>
			<point x="156" y="-388"/>
			<point x="156" y="-388" type="curve"/>
			<point x="308" y="-388" type="line"/>
			<point x="308" y="-388"/>
			<point x="308" y="-388"/>
			<point x="308" y="-388" type="curve"/>
		</contour>
		<contour>
			<point x="308" y="672" type="line"/>
			<point x="354" y="740"/>
			<point x="430" y="784"/>
			<point x="512" y="784" type="curve" smooth="yes"/>
			<point x="660" y="784"/>
			<point x="780" y="634"/>
			<point x="780" y="444" type="curve" smooth="yes"/>
			<point x="780" y="244"/>
			<point x="642" y="100"/>
			<point x="494" y="100" type="curve" smooth="yes"/>
			<point x="438" y="100"/>
			<point x="400" y="120"/>
			<point x="364" y="148" type="curve"/>
			<point x="314" y="192"/>
			<point x="308" y="228"/>
			<point x="308" y="260" type="curve" smooth="yes"/>
		</contour>
	</outline>
</glyph>
<glyph name="q" format="2">
	<unicode hex="0071"/>
	<advance width="1004"/>
	<outline>
		<contour>
			<point x="694" y="102" type="curve"/>
			<point x="694" y="-388" type="line"/>
			<point x="694" y="-388"/>
			<point x="694" y="-388"/>
			<point x="694" y="-388" type="curve"/>
			<point x="846" y="-388" type="line"/>
			<point x="846" y="-388"/>
			<point x="846" y="-388"/>
			<point x="846" y="-388" type="curve"/>
			<point x="846" y="908" type="line"/>
			<point x="846" y="908"/>
			<point x="846" y="908"/>
			<point x="846" y="908" type="curve"/>
			<point x="698" y="908" type="line"/>
			<point x="698" y="908"/>
			<point x="698" y="908"/>
			<point x="698" y="908" type="curve"/>
			<point x="698" y="780" type="line"/>
			<point x="644" y="842"/>
			<point x="558" y="908"/>
			<point x="436" y="908" type="curve" smooth="yes"/>
			<point x="240" y="908"/>
			<point x="70" y="710"/>
			<point x="70" y="442" type="curve" smooth="yes"/>
			<point x="70" y="188"/>
			<point x="218" y="-20"/>
			<point x="406" y="-20" type="curve" smooth="yes"/>
			<point x="560" y="-20"/>
			<point x="666" y="72"/>
		</contour>
		<contour>
			<point x="698" y="278" type="line" smooth="yes"/>
			<point x="698" y="240"/>
			<point x="698" y="238"/>
			<point x="676" y="208" type="curve"/>
			<point x="622" y="126"/>
			<point x="548" y="100"/>
			<point x="490" y="100" type="curve" smooth="yes"/>
			<point x="340" y="100"/>
			<point x="222" y="256"/>
			<point x="222" y="442" type="curve" smooth="yes"/>
			<point x="222" y="648"/>
			<point x="366" y="784"/>
			<point x="508" y="784" type="curve" smooth="yes"/>
			<point x="559" y="784"/>
			<point x="600" y="763"/>
			<point x="630" y="733" type="curve" smooth="yes"/>
			<point x="676" y="688"/>
			<point x="698" y="622"/>
			<point x="698" y="574" type="curve" smooth="yes"/>
		</contour>
	</outline>
</glyph>
<glyph name="r" format="2">
	<unicode hex="0072"/>
	<advance width="664"/>
	<outline>
		<contour>
			<point x="304" y="438" type="line" smooth="yes"/>
			<point x="304" y="640"/>
			<point x="456" y="772"/>
			<point x="636" y="774" type="curve"/>
			<point x="636" y="774"/>
			<point x="636" y="774"/>
			<point x="636" y="774" type="curve"/>
			<point x="636" y="908" type="line"/>
			<point x="636" y="908"/>
			<point x="636" y="908"/>
			<point x="636" y="908" type="curve"/>
			<point x="454" y="906"/>
			<point x="348" y="800"/>
			<point x="294" y="722" type="curve"/>
			<point x="294" y="722" type="line"/>
			<point x="294" y="898" type="line"/>
			<point x="294" y="898"/>
			<point x="294" y="898"/>
			<point x="294" y="898" type="curve"/>
			<point x="156" y="898" type="line"/>
			<point x="156" y="898"/>
			<point x="156" y="898"/>
			<point x="156" y="898" type="curve"/>
			<point x="156" y="0" type="line"/>
			<point x="156" y="0"/>
			<point x="156" y="0"/>
			<point x="156" y="0" type="curve"/>
			<point x="304" y="0" type="line"/>
			<point x="304" y="0"/>
			<point x="304" y="0"/>
			<point x="304" y="0" type="curve"/>
		</contour>
	</outline>
</glyph>
<glyph name="s" format="2">
	<unicode hex="0073"/>
	<advance width="750"/>
	<outline>
		<contour>
			<point x="704" y="254" type="curve" smooth="yes"/>
			<point x="704" y="356"/>
			<point x="644" y="420"/>
			<point x="634" y="430" type="curve" smooth="yes"/>
			<point x="560" y="506"/>
			<point x="500" y="518"/>
			<point x="378" y="542" type="curve" smooth="yes"/>
			<point x="306" y="556"/>
			<point x="204" y="576"/>
			<point x="204" y="676" type="curve" smooth="yes"/>
			<point x="204" y="800"/>
			<point x="344" y="800"/>
			<point x="370" y="800" type="curve" smooth="yes"/>
			<point x="476" y="800"/>
			<point x="560" y="776"/>
			<point x="648" y="726" type="curve"/>
			<point x="648" y="726"/>
			<point x="648" y="726"/>
			<point x="648" y="726" type="curve"/>
			<point x="648" y="726"/>
			<point x="648" y="726"/>
			<point x="648" y="726" type="curve"/>
			<point x="656" y="769"/>
			<point x="664" y="813"/>
			<point x="672" y="856" type="curve"/>
			<point x="635" y="873"/>
			<point x="599" y="886"/>
			<point x="566" y="895" type="curve" smooth="yes"/>
			<point x="486" y="917"/>
			<point x="423" y="918"/>
			<point x="390" y="918" type="curve" smooth="yes"/>
			<point x="344" y="918"/>
			<point x="66" y="918"/>
			<point x="66" y="658" type="curve" smooth="yes"/>
			<point x="66" y="570"/>
			<point x="114" y="510"/>
			<point x="144" y="482" type="curve" smooth="yes"/>
			<point x="216" y="420"/>
			<point x="266" y="410"/>
			<point x="384" y="386" type="curve" smooth="yes"/>
			<point x="450" y="372"/>
			<point x="566" y="348"/>
			<point x="566" y="242" type="curve" smooth="yes"/>
			<point x="566" y="104"/>
			<point x="410" y="104"/>
			<point x="382" y="104" type="curve" smooth="yes"/>
			<point x="302" y="104"/>
			<point x="186" y="126"/>
			<point x="78" y="204" type="curve"/>
			<point x="78" y="204"/>
			<point x="78" y="204"/>
			<point x="78" y="204" type="curve"/>
			<point x="78" y="204"/>
			<point x="78" y="204"/>
			<point x="78" y="204" type="curve"/>
			<point x="70" y="159"/>
			<point x="62" y="113"/>
			<point x="54" y="68" type="curve"/>
			<point x="61" y="64"/>
			<point x="126" y="25"/>
			<point x="224" y="0" type="curve" smooth="yes"/>
			<point x="271" y="-12"/>
			<point x="325" y="-20"/>
			<point x="384" y="-20" type="curve" smooth="yes"/>
			<point x="504" y="-20"/>
			<point x="582" y="14"/>
			<point x="632" y="62" type="curve" smooth="yes"/>
			<point x="686" y="118"/>
			<point x="704" y="192"/>
		</contour>
	</outline>
</glyph>
<glyph name="t" format="2">
	<unicode hex="0074"/>
	<advance width="706"/>
	<outline>
		<contour>
			<point x="342" y="772" type="line"/>
			<point x="618" y="772" type="line"/>
			<point x="618" y="772"/>
			<point x="618" y="772"/>
			<point x="618" y="772" type="curve"/>
			<point x="618" y="888" type="line"/>
			<point x="618" y="888"/>
			<point x="618" y="888"/>
			<point x="618" y="888" type="curve"/>
			<point x="342" y="888" type="line"/>
			<point x="342" y="1142" type="line"/>
			<point x="342" y="1142"/>
			<point x="342" y="1142"/>
			<point x="342" y="1142" type="curve"/>
			<point x="204" y="1142" type="line"/>
			<point x="204" y="1142"/>
			<point x="204" y="1142"/>
			<point x="204" y="1142" type="curve"/>
			<point x="204" y="888" type="line"/>
			<point x="36" y="888" type="line"/>
			<point x="36" y="888"/>
			<point x="36" y="888"/>
			<point x="36" y="888" type="curve"/>
			<point x="36" y="772" type="line"/>
			<point x="36" y="772"/>
			<point x="36" y="772"/>
			<point x="36" y="772" type="curve"/>
			<point x="200" y="772" type="line"/>
			<point x="200" y="234" type="line" smooth="yes"/>
			<point x="200" y="118"/>
			<point x="226" y="-20"/>
			<point x="364" y="-20" type="curve" smooth="yes"/>
			<point x="498" y="-20"/>
			<point x="590" y="26"/>
			<point x="652" y="58" type="curve"/>
			<point x="652" y="58"/>
			<point x="652" y="58"/>
			<point x="652" y="58" type="curve"/>
			<point x="642" y="97"/>
			<point x="632" y="135"/>
			<point x="622" y="174" type="curve"/>
			<point x="622" y="174"/>
			<point x="622" y="174"/>
			<point x="622" y="174" type="curve"/>
			<point x="622" y="174"/>
			<point x="622" y="174"/>
			<point x="622" y="174" type="curve"/>
			<point x="552" y="112"/>
			<point x="478" y="104"/>
			<point x="442" y="104" type="curve" smooth="yes"/>
			<point x="354" y="104"/>
			<point x="342" y="198"/>
			<point x="342" y="268" type="curve" smooth="yes"/>
		</contour>
	</outline>
</glyph>
<glyph name="u" format="2">
	<unicode hex="0075"/>
	<advance width="1004"/>
	<outline>
		<contour>
			<point x="364" y="-20" type="curve" smooth="yes"/>
			<point x="420" y="-20"/>
			<point x="578" y="-10"/>
			<point x="700" y="100" type="curve"/>
			<point x="700" y="0" type="line"/>
			<point x="700" y="0"/>
			<point x="700" y="0"/>
			<point x="700" y="0" type="curve"/>
			<point x="848" y="0" type="line"/>
			<point x="848" y="0"/>
			<point x="848" y="0"/>
			<point x="848" y="0" type="curve"/>
			<point x="848" y="888" type="line"/>
			<point x="848" y="888"/>
			<point x="848" y="888"/>
			<point x="848" y="888" type="curve"/>
			<point x="696" y="888" type="line"/>
			<point x="696" y="888"/>
			<point x="696" y="888"/>
			<point x="696" y="888" type="curve"/>
			<point x="696" y="316" type="line" smooth="yes"/>
			<point x="696" y="164"/>
			<point x="590" y="90"/>
			<point x="460" y="90" type="curve" smooth="yes"/>
			<point x="320" y="90"/>
			<point x="306" y="142"/>
			<point x="306" y="230" type="curve" smooth="yes"/>
			<point x="306" y="888" type="line"/>
			<point x="306" y="888"/>
			<point x="306" y="888"/>
			<point x="306" y="888" type="curve"/>
			<point x="154" y="888" type="line"/>
			<point x="154" y="888"/>
			<point x="154" y="888"/>
			<point x="154" y="888" type="curve"/>
			<point x="154" y="222" type="line" smooth="yes"/>
			<point x="154" y="78"/>
			<point x="200" y="-20"/>
		</contour>
	</outline>
</glyph>
<glyph name="v" format="2">
  <advance width="447"/>
  <unicode hex="0076"/>
  <outline>
    <contour>
      <point x="433" y="444" type="line"/>
      <point x="358" y="444" type="line"/>
      <point x="285" y="245" type="line" smooth="yes"/>
      <point x="268" y="197"/>
      <point x="231" y="91"/>
      <point x="225" y="54" type="curve"/>
      <point x="224" y="54" type="line"/>
      <point x="219" y="89"/>
      <point x="199" y="144"/>
      <point x="184" y="187" type="curve" smooth="yes"/>
      <point x="92" y="444" type="line"/>
      <point x="14" y="444" type="line"/>
      <point x="179" y="0" type="line"/>
      <point x="268" y="0" type="line"/>
    </contour>
  </outline>
</glyph>
<glyph name="w" format="2">
  <advance width="665"/>
  <unicode hex="0077"/>
  <outline>
    <contour>
      <point x="148" y="0" type="line"/>
      <point x="225" y="0" type="line"/>
      <point x="263" y="126"/>
      <point x="321" y="316"/>
      <point x="327" y="386" type="curve"/>
      <point x="328" y="386" type="line"/>
      <point x="330" y="345"/>
      <point x="350" y="273"/>
      <point x="357" y="250" type="curve" smooth="yes"/>
      <point x="428" y="0" type="line"/>
      <point x="516" y="0" type="line"/>
      <point x="650" y="444" type="line"/>
      <point x="577" y="444" type="line"/>
      <point x="517" y="241" type="line" smooth="yes"/>
      <point x="503" y="193"/>
      <point x="475" y="99"/>
      <point x="471" y="56" type="curve"/>
      <point x="470" y="56" type="line"/>
      <point x="467" y="80"/>
      <point x="451" y="147"/>
      <point x="430" y="218" type="curve" smooth="yes"/>
      <point x="364" y="444" type="line"/>
      <point x="295" y="444" type="line"/>
      <point x="220" y="186"/>
      <point x="196" y="100"/>
      <point x="193" y="58" type="curve"/>
      <point x="192" y="58" type="line"/>
      <point x="191" y="77"/>
      <point x="180" y="130"/>
      <point x="161" y="197" type="curve" smooth="yes"/>
      <point x="90" y="444" type="line"/>
      <point x="14" y="444" type="line"/>
    </contour>
  </outline>
</glyph>
<glyph name="x" format="2">
	<unicode hex="0078"/>
	<advance width="894"/>
	<outline>
		<contour>
			<point x="374" y="458" type="line"/>
			<point x="0" y="0" type="line"/>
			<point x="0" y="0"/>
			<point x="0" y="0"/>
			<point x="0" y="0" type="curve"/>
			<point x="0" y="0"/>
			<point x="0" y="0"/>
			<point x="0" y="0" type="curve"/>
			<point x="166" y="0" type="line"/>
			<point x="166" y="0"/>
			<point x="166" y="0"/>
			<point x="166" y="0" type="curve"/>
			<point x="442" y="372" type="line"/>
			<point x="726" y="0" type="line"/>
			<point x="726" y="0"/>
			<point x="726" y="0"/>
			<point x="726" y="0" type="curve"/>
			<point x="894" y="0" type="line"/>
			<point x="894" y="0"/>
			<point x="894" y="0"/>
			<point x="894" y="0" type="curve"/>
			<point x="894" y="0"/>
			<point x="894" y="0"/>
			<point x="894" y="0" type="curve"/>
			<point x="508" y="458" type="line"/>
			<point x="862" y="888" type="line"/>
			<point x="862" y="888"/>
			<point x="862" y="888"/>
			<point x="862" y="888" type="curve"/>
			<point x="862" y="888"/>
			<point x="862" y="888"/>
			<point x="862" y="888" type="curve"/>
			<point x="694" y="888" type="line"/>
			<point x="694" y="888"/>
			<point x="694" y="888"/>
			<point x="694" y="888" type="curve"/>
			<point x="610" y="780"/>
			<point x="526" y="672"/>
			<point x="442" y="564" type="curve"/>
			<point x="180" y="888" type="line"/>
			<point x="180" y="888"/>
			<point x="180" y="888"/>
			<point x="180" y="888" type="curve"/>
			<point x="10" y="888" type="line"/>
			<point x="10" y="888"/>
			<point x="10" y="888"/>
			<point x="10" y="888" type="curve"/>
			<point x="10" y="888"/>
			<point x="10" y="888"/>
			<point x="10" y="888" type="curve"/>
		</contour>
	</outline>
</glyph>
<glyph name="y" format="2">
	<unicode hex="0079"/>
	<advance width="447"/>
	<outline>
		<contour>
			<point x="433" y="444" type="line"/>
			<point x="433" y="444"/>
			<point x="433" y="444"/>
			<point x="433" y="444" type="curve"/>
			<point x="433" y="444"/>
			<point x="433" y="444"/>
			<point x="433" y="444" type="curve"/>
			<point x="358" y="444" type="line"/>
			<point x="358" y="444"/>
			<point x="358" y="444"/>
			<point x="358" y="444" type="curve"/>
			<point x="312" y="326"/>
			<point x="235" y="130"/>
			<point x="231" y="58" type="curve"/>
			<point x="230" y="58" type="line"/>
			<point x="225" y="117"/>
			<point x="174" y="250"/>
			<point x="93" y="444" type="curve"/>
			<point x="93" y="444"/>
			<point x="93" y="444"/>
			<point x="93" y="444" type="curve"/>
			<point x="14" y="444" type="line"/>
			<point x="14" y="444"/>
			<point x="14" y="444"/>
			<point x="14" y="444" type="curve"/>
			<point x="14" y="444"/>
			<point x="14" y="444"/>
			<point x="14" y="444" type="curve"/>
			<point x="200" y="0" type="line"/>
			<point x="188.345" y="-30.303"/>
			<point x="176.69" y="-60.606"/>
			<point x="165" y="-91" type="curve" smooth="yes"/>
			<point x="143" y="-141"/>
			<point x="128" y="-146"/>
			<point x="110" y="-146" type="curve" smooth="yes"/>
			<point x="96" y="-146"/>
			<point x="64" y="-143"/>
			<point x="33" y="-131" type="curve"/>
			<point x="33" y="-131"/>
			<point x="33" y="-131"/>
			<point x="33" y="-131" type="curve"/>
			<point x="33" y="-131"/>
			<point x="33" y="-131"/>
			<point x="33" y="-131" type="curve"/>
			<point x="34.998" y="-152.645"/>
			<point x="36.996" y="-174.29"/>
			<point x="39" y="-196" type="curve"/>
			<point x="45" y="-197"/>
			<point x="78" y="-204"/>
			<point x="110" y="-204" type="curve" smooth="yes"/>
			<point x="134" y="-204"/>
			<point x="181" y="-204"/>
			<point x="224" y="-94" type="curve" smooth="yes"/>
		</contour>
	</outline>
</glyph>
<glyph name="z" format="2">
	<unicode hex="007A"/>
	<advance width="424"/>
	<outline>
		<contour>
			<point x="288" y="386" type="line"/>
			<point x="27" y="40" type="line"/>
			<point x="27" y="40"/>
			<point x="27" y="40"/>
			<point x="27" y="40" type="curve"/>
			<point x="27" y="0" type="line"/>
			<point x="27" y="0"/>
			<point x="27" y="0"/>
			<point x="27" y="0" type="curve"/>
			<point x="393" y="0" type="line"/>
			<point x="393" y="0"/>
			<point x="393" y="0"/>
			<point x="393" y="0" type="curve"/>
			<point x="393" y="61" type="line"/>
			<point x="393" y="61"/>
			<point x="393" y="61"/>
			<point x="393" y="61" type="curve"/>
			<point x="345.381" y="61"/>
			<point x="297.762" y="61"/>
			<point x="250" y="61" type="curve" smooth="yes"/>
			<point x="238" y="61"/>
			<point x="226" y="60"/>
			<point x="214" y="60" type="curve" smooth="yes"/>
			<point x="129" y="60" type="line"/>
			<point x="390" y="405" type="line"/>
			<point x="390" y="405"/>
			<point x="390" y="405"/>
			<point x="390" y="405" type="curve"/>
			<point x="390" y="444" type="line"/>
			<point x="390" y="444"/>
			<point x="390" y="444"/>
			<point x="390" y="444" type="curve"/>
			<point x="41" y="444" type="line"/>
			<point x="41" y="444"/>
			<point x="41" y="444"/>
			<point x="41" y="444" type="curve"/>
			<point x="41" y="385" type="line"/>
			<point x="41" y="385"/>
			<point x="41" y="385"/>
			<point x="41" y="385" type="curve"/>
			<point x="85.955" y="385"/>
			<point x="130.91" y="385"/>
			<point x="176" y="385" type="curve" smooth="yes"/>
			<point x="188" y="385"/>
			<point x="200" y="386"/>
			<point x="212" y="386" type="curve" smooth="yes"/>
		</contour>
	</outline>
</glyph>
<glyph name="exclamdown" format="2">
	<unicode hex="00A1"/>
	<advance width="622"/>
	<outline>
		<contour>
			<point x="384" y="158" type="curve" smooth="yes"/>
			<point x="382" y="324"/>
			<point x="379" y="488"/>
			<point x="376" y="654" type="curve"/>
			<point x="376" y="654"/>
			<point x="376" y="654"/>
			<point x="376" y="654" type="curve"/>
			<point x="246" y="654" type="line"/>
			<point x="246" y="654"/>
			<point x="246" y="654"/>
			<point x="246" y="654" type="curve"/>
			<point x="243" y="489"/>
			<point x="240" y="324"/>
			<point x="238" y="158" type="curve" smooth="yes"/>
			<point x="236" y="-24"/>
			<point x="233" y="-206"/>
			<point x="230" y="-388" type="curve"/>
			<point x="230" y="-388"/>
			<point x="230" y="-388"/>
			<point x="230" y="-388" type="curve"/>
			<point x="392" y="-388" type="line"/>
			<point x="392" y="-388"/>
			<point x="392" y="-388"/>
			<point x="392" y="-388" type="curve"/>
			<point x="389" y="-206"/>
			<point x="386" y="-24"/>
		</contour>
		<contour>
			<point x="392" y="1000" type="line"/>
			<point x="392" y="1000"/>
			<point x="392" y="1000"/>
			<point x="392" y="1000" type="curve"/>
			<point x="230" y="1000" type="line"/>
			<point x="230" y="1000"/>
			<point x="230" y="1000"/>
			<point x="230" y="1000" type="curve"/>
			<point x="230" y="838" type="line"/>
			<point x="230" y="838"/>
			<point x="230" y="838"/>
			<point x="230" y="838" type="curve"/>
			<point x="392" y="838" type="line"/>
			<point x="392" y="838"/>
			<point x="392" y="838"/>
			<point x="392" y="838" type="curve"/>
		</contour>
	</outline>
</glyph>
<glyph name="dieresis" format="2">
	<unicode hex="00A8"/>
	<advance width="978"/>
	<outline>
		<contour>
			<point x="380" y="1358" type="line"/>
			<point x="380" y="1358"/>
			<point x="380" y="1358"/>
			<point x="380" y="1358" type="curve"/>
			<point x="218" y="1358" type="line"/>
			<point x="218" y="1358"/>
			<point x="218" y="1358"/>
			<point x="218" y="1358" type="curve"/>
			<point x="218" y="1196" type="line"/>
			<point x="218" y="1196"/>
			<point x="218" y="1196"/>
			<point x="218" y="1196" type="curve"/>
			<point x="380" y="1196" type="line"/>
			<point x="380" y="1196"/>
			<point x="380" y="1196"/>
			<point x="380" y="1196" type="curve"/>
		</contour>
		<contour>
			<point x="760" y="1358" type="line"/>
			<point x="760" y="1358"/>
			<point x="760" y="1358"/>
			<point x="760" y="1358" type="curve"/>
			<point x="598" y="1358" type="line"/>
			<point x="598" y="1358"/>
			<point x="598" y="1358"/>
			<point x="598" y="1358" type="curve"/>
			<point x="598" y="1196" type="line"/>
			<point x="598" y="1196"/>
			<point x="598" y="1196"/>
			<point x="598" y="1196" type="curve"/>
			<point x="760" y="1196" type="line"/>
			<point x="760" y="1196"/>
			<point x="760" y="1196"/>
			<point x="760" y="1196" type="curve"/>
		</contour>
	</outline>
</glyph>
<glyph name="macron" format="2">
	<unicode hex="00AF"/>
	<advance width="489"/>
	<outline>
		<contour>
			<point x="421" y="566" type="curve"/>
			<point x="421" y="629" type="line"/>
			<point x="421" y="629"/>
			<point x="421" y="629"/>
			<point x="421" y="629" type="curve"/>
			<point x="68" y="629" type="line"/>
			<point x="68" y="629"/>
			<point x="68" y="629"/>
			<point x="68" y="629" type="curve"/>
			<point x="68" y="566" type="line"/>
			<point x="68" y="566"/>
			<point x="68" y="566"/>
			<point x="68" y="566" type="curve"/>
			<point x="421" y="566" type="line"/>
			<point x="421" y="566"/>
			<point x="421" y="566"/>
		</contour>
	</outline>
</glyph>
<glyph name="acute" format="2">
	<unicode hex="00B4"/>
	<advance width="978"/>
	<outline>
		<contour>
			<point x="814" y="1388" type="line"/>
			<point x="814" y="1388"/>
			<point x="814" y="1388"/>
			<point x="814" y="1388" type="curve"/>
			<point x="814" y="1388"/>
			<point x="814" y="1388"/>
			<point x="814" y="1388" type="curve"/>
			<point x="662" y="1388" type="line"/>
			<point x="662" y="1388"/>
			<point x="662" y="1388"/>
			<point x="662" y="1388" type="curve"/>
			<point x="402" y="1054" type="line"/>
			<point x="402" y="1054"/>
			<point x="402" y="1054"/>
			<point x="402" y="1054" type="curve"/>
			<point x="402" y="1054"/>
			<point x="402" y="1054"/>
			<point x="402" y="1054" type="curve"/>
			<point x="522" y="1054" type="line"/>
			<point x="522" y="1054"/>
			<point x="522" y="1054"/>
			<point x="522" y="1054" type="curve"/>
		</contour>
	</outline>
</glyph>
<glyph name="cedilla" format="2">
	<unicode hex="00B8"/>
	<advance width="870"/>
	<outline>
		<contour>
			<point x="548" y="-46" type="line"/>
			<point x="548" y="-46"/>
			<point x="548" y="-46"/>
			<point x="548" y="-46" type="curve"/>
			<point x="548" y="-46"/>
			<point x="548" y="-46"/>
			<point x="548" y="-46" type="curve"/>
			<point x="428" y="-46" type="line"/>
			<point x="428" y="-46"/>
			<point x="428" y="-46"/>
			<point x="428" y="-46" type="curve"/>
			<point x="380" y="-158"/>
			<point x="332" y="-270"/>
			<point x="284" y="-382" type="curve"/>
			<point x="284" y="-382"/>
			<point x="284" y="-382"/>
			<point x="284" y="-382" type="curve"/>
			<point x="284" y="-382"/>
			<point x="284" y="-382"/>
			<point x="284" y="-382" type="curve"/>
			<point x="420" y="-382" type="line"/>
			<point x="420" y="-382"/>
			<point x="420" y="-382"/>
			<point x="420" y="-382" type="curve"/>
		</contour>
	</outline>
</glyph>
<glyph name="questiondown" format="2">
	<unicode hex="00BF"/>
	<advance width="924"/>
	<outline>
		<contour>
			<point x="514" y="838" type="curve"/>
			<point x="514" y="1000" type="line"/>
			<point x="514" y="1000"/>
			<point x="514" y="1000"/>
			<point x="514" y="1000" type="curve"/>
			<point x="352" y="1000" type="line"/>
			<point x="352" y="1000"/>
			<point x="352" y="1000"/>
			<point x="352" y="1000" type="curve"/>
			<point x="352" y="838" type="line"/>
			<point x="352" y="838"/>
			<point x="352" y="838"/>
			<point x="352" y="838" type="curve"/>
			<point x="514" y="838" type="line"/>
			<point x="514" y="838"/>
			<point x="514" y="838"/>
		</contour>
		<contour>
			<point x="108" y="-98" type="curve" smooth="yes"/>
			<point x="108" y="-264"/>
			<point x="196" y="-408"/>
			<point x="436" y="-408" type="curve" smooth="yes"/>
			<point x="602" y="-408"/>
			<point x="738" y="-348"/>
			<point x="814" y="-302" type="curve"/>
			<point x="814" y="-302"/>
			<point x="814" y="-302"/>
			<point x="814" y="-302" type="curve"/>
			<point x="799" y="-261"/>
			<point x="785" y="-219"/>
			<point x="770" y="-178" type="curve"/>
			<point x="770" y="-178"/>
			<point x="770" y="-178"/>
			<point x="770" y="-178" type="curve"/>
			<point x="770" y="-178"/>
			<point x="770" y="-178"/>
			<point x="770" y="-178" type="curve"/>
			<point x="638" y="-272"/>
			<point x="512" y="-288"/>
			<point x="436" y="-288" type="curve" smooth="yes"/>
			<point x="300" y="-288"/>
			<point x="260" y="-220"/>
			<point x="260" y="-102" type="curve" smooth="yes"/>
			<point x="260" y="-10"/>
			<point x="288" y="22"/>
			<point x="314" y="54" type="curve" smooth="yes"/>
			<point x="432" y="192"/>
			<point x="498" y="366"/>
			<point x="498" y="548" type="curve" smooth="yes"/>
			<point x="498" y="654" type="line"/>
			<point x="498" y="654"/>
			<point x="498" y="654"/>
			<point x="498" y="654" type="curve"/>
			<point x="368" y="654" type="line"/>
			<point x="368" y="654"/>
			<point x="368" y="654"/>
			<point x="368" y="654" type="curve"/>
			<point x="368" y="554" type="line" smooth="yes"/>
			<point x="368" y="396"/>
			<point x="306" y="244"/>
			<point x="194" y="130" type="curve" smooth="yes"/>
			<point x="152" y="90"/>
			<point x="108" y="24"/>
		</contour>
	</outline>
</glyph>
<glyph name="AE" format="2">
	<unicode hex="00C6"/>
	<advance width="1680"/>
	<outline>
		<contour>
			<point x="814" y="444" type="line"/>
			<point x="814" y="0" type="line"/>
			<point x="814" y="0"/>
			<point x="814" y="0"/>
			<point x="814" y="0" type="curve"/>
			<point x="1596" y="0" type="line"/>
			<point x="1596" y="0"/>
			<point x="1596" y="0"/>
			<point x="1596" y="0" type="curve"/>
			<point x="1596" y="136" type="line"/>
			<point x="1596" y="136"/>
			<point x="1596" y="136"/>
			<point x="1596" y="136" type="curve"/>
			<point x="1392" y="135"/>
			<point x="1188" y="135"/>
			<point x="984" y="134" type="curve"/>
			<point x="984" y="662" type="line"/>
			<point x="1514" y="662" type="line"/>
			<point x="1514" y="662"/>
			<point x="1514" y="662"/>
			<point x="1514" y="662" type="curve"/>
			<point x="1514" y="782" type="line"/>
			<point x="1514" y="782"/>
			<point x="1514" y="782"/>
			<point x="1514" y="782" type="curve"/>
			<point x="984" y="782" type="line"/>
			<point x="984" y="1264" type="line"/>
			<point x="1179" y="1263"/>
			<point x="1374" y="1263"/>
			<point x="1570" y="1262" type="curve"/>
			<point x="1570" y="1262"/>
			<point x="1570" y="1262"/>
			<point x="1570" y="1262" type="curve"/>
			<point x="1570" y="1388" type="line"/>
			<point x="1570" y="1388"/>
			<point x="1570" y="1388"/>
			<point x="1570" y="1388" type="curve"/>
			<point x="604" y="1388" type="line"/>
			<point x="604" y="1388"/>
			<point x="604" y="1388"/>
			<point x="604" y="1388" type="curve"/>
			<point x="54" y="0" type="line"/>
			<point x="54" y="0"/>
			<point x="54" y="0"/>
			<point x="54" y="0" type="curve"/>
			<point x="54" y="0"/>
			<point x="54" y="0"/>
			<point x="54" y="0" type="curve"/>
			<point x="202" y="0" type="line"/>
			<point x="202" y="0"/>
			<point x="202" y="0"/>
			<point x="202" y="0" type="curve"/>
			<point x="378" y="444" type="line"/>
		</contour>
		<contour>
			<point x="422" y="556" type="line"/>
			<point x="702" y="1264" type="line"/>
			<point x="814" y="1264" type="line"/>
			<point x="814" y="556" type="line"/>
		</contour>
	</outline>
</glyph>
<glyph name="Oslash" format="2">
	<unicode hex="00D8"/>
	<advance width="1522"/>
	<outline>
		<contour>
			<point x="460" y="40" type="line"/>
			<point x="470" y="34"/>
			<point x="596" y="-42"/>
			<point x="760" y="-42" type="curve" smooth="yes"/>
			<point x="1116" y="-42"/>
			<point x="1414" y="278"/>
			<point x="1414" y="690" type="curve" smooth="yes"/>
			<point x="1414" y="1030"/>
			<point x="1226" y="1212"/>
			<point x="1162" y="1274" type="curve"/>
			<point x="1196" y="1335"/>
			<point x="1230" y="1395"/>
			<point x="1264" y="1456" type="curve"/>
			<point x="1264" y="1456"/>
			<point x="1264" y="1456"/>
			<point x="1264" y="1456" type="curve"/>
			<point x="1228" y="1476"/>
			<point x="1192" y="1496"/>
			<point x="1156" y="1516" type="curve"/>
			<point x="1156" y="1516"/>
			<point x="1156" y="1516"/>
			<point x="1156" y="1516" type="curve"/>
			<point x="1062" y="1348" type="line"/>
			<point x="972" y="1398"/>
			<point x="866" y="1430"/>
			<point x="762" y="1430" type="curve" smooth="yes"/>
			<point x="404" y="1430"/>
			<point x="108" y="1104"/>
			<point x="108" y="690" type="curve" smooth="yes"/>
			<point x="108" y="402"/>
			<point x="252" y="202"/>
			<point x="360" y="114" type="curve"/>
			<point x="326" y="53"/>
			<point x="292" y="-7"/>
			<point x="258" y="-68" type="curve"/>
			<point x="258" y="-68"/>
			<point x="258" y="-68"/>
			<point x="258" y="-68" type="curve"/>
			<point x="294" y="-88"/>
			<point x="330" y="-108"/>
			<point x="366" y="-128" type="curve"/>
			<point x="366" y="-128"/>
			<point x="366" y="-128"/>
			<point x="366" y="-128" type="curve"/>
		</contour>
		<contour>
			<point x="428" y="234" type="line"/>
			<point x="368" y="302"/>
			<point x="276" y="446"/>
			<point x="276" y="690" type="curve" smooth="yes"/>
			<point x="276" y="1090"/>
			<point x="518" y="1310"/>
			<point x="760" y="1310" type="curve" smooth="yes"/>
			<point x="854" y="1310"/>
			<point x="938" y="1276"/>
			<point x="998" y="1238" type="curve"/>
		</contour>
		<contour>
			<point x="1094" y="1152" type="line"/>
			<point x="1204" y="1026"/>
			<point x="1246" y="856"/>
			<point x="1246" y="690" type="curve" smooth="yes"/>
			<point x="1246" y="292"/>
			<point x="1004" y="78"/>
			<point x="762" y="78" type="curve" smooth="yes"/>
			<point x="654" y="78"/>
			<point x="568" y="120"/>
			<point x="524" y="150" type="curve"/>
		</contour>
	</outline>
</glyph>
<glyph name="germandbls" format="2">
	<unicode hex="00DF"/>
	<advance width="936"/>
	<outline>
		<contour>
			<point x="636" y="822" type="curve"/>
			<point x="758" y="890"/>
			<point x="828" y="1002"/>
			<point x="828" y="1116" type="curve" smooth="yes"/>
			<point x="828" y="1278"/>
			<point x="678" y="1408"/>
			<point x="492" y="1408" type="curve" smooth="yes"/>
			<point x="336" y="1408"/>
			<point x="156" y="1308"/>
			<point x="156" y="1104" type="curve" smooth="yes"/>
			<point x="156" y="0" type="line"/>
			<point x="156" y="0"/>
			<point x="156" y="0"/>
			<point x="156" y="0" type="curve"/>
			<point x="304" y="0" type="line"/>
			<point x="304" y="0"/>
			<point x="304" y="0"/>
			<point x="304" y="0" type="curve"/>
			<point x="304" y="1100" type="line" smooth="yes"/>
			<point x="304" y="1280"/>
			<point x="450" y="1288"/>
			<point x="492" y="1288" type="curve" smooth="yes"/>
			<point x="590" y="1288"/>
			<point x="678" y="1230"/>
			<point x="678" y="1116" type="curve" smooth="yes"/>
			<point x="678" y="1026"/>
			<point x="614" y="892"/>
			<point x="412" y="888" type="curve"/>
			<point x="412" y="888"/>
			<point x="412" y="888"/>
			<point x="412" y="888" type="curve"/>
			<point x="412" y="768" type="line"/>
			<point x="412" y="768"/>
			<point x="412" y="768"/>
			<point x="412" y="768" type="curve"/>
			<point x="614" y="762"/>
			<point x="732" y="570"/>
			<point x="732" y="358" type="curve" smooth="yes"/>
			<point x="732" y="202"/>
			<point x="650" y="100"/>
			<point x="534" y="100" type="curve" smooth="yes"/>
			<point x="506" y="100"/>
			<point x="452" y="106"/>
			<point x="402" y="128" type="curve"/>
			<point x="402" y="128"/>
			<point x="402" y="128"/>
			<point x="402" y="128" type="curve"/>
			<point x="362" y="18" type="line"/>
			<point x="362" y="18"/>
			<point x="362" y="18"/>
			<point x="362" y="18" type="curve"/>
			<point x="362" y="8"/>
			<point x="454" y="-20"/>
			<point x="536" y="-20" type="curve" smooth="yes"/>
			<point x="726" y="-20"/>
			<point x="882" y="144"/>
			<point x="882" y="358" type="curve" smooth="yes"/>
			<point x="882" y="526"/>
			<point x="806" y="720"/>
		</contour>
	</outline>
</glyph>
<glyph name="ae" format="2">
	<unicode hex="00E6"/>
	<advance width="1414"/>
	<outline>
		<contour>
			<point x="314" y="-20" type="curve" smooth="yes"/>
			<point x="498" y="-20"/>
			<point x="682" y="34"/>
			<point x="740" y="134" type="curve"/>
			<point x="826" y="36"/>
			<point x="938" y="-20"/>
			<point x="1062" y="-20" type="curve" smooth="yes"/>
			<point x="1220" y="-20"/>
			<point x="1346" y="76"/>
			<point x="1346" y="94" type="curve"/>
			<point x="1346" y="94"/>
			<point x="1346" y="94"/>
			<point x="1346" y="94" type="curve"/>
			<point x="1342" y="134"/>
			<point x="1338" y="174"/>
			<point x="1334" y="214" type="curve"/>
			<point x="1334" y="214"/>
			<point x="1334" y="214"/>
			<point x="1334" y="214" type="curve"/>
			<point x="1334" y="214"/>
			<point x="1334" y="214"/>
			<point x="1334" y="214" type="curve"/>
			<point x="1246" y="128"/>
			<point x="1142" y="100"/>
			<point x="1064" y="100" type="curve" smooth="yes"/>
			<point x="924" y="100"/>
			<point x="786" y="226"/>
			<point x="782" y="450" type="curve"/>
			<point x="1358" y="450" type="line"/>
			<point x="1358" y="450"/>
			<point x="1358" y="450"/>
			<point x="1358" y="450" type="curve"/>
			<point x="1358" y="522"/>
			<point x="1356" y="918"/>
			<point x="1032" y="918" type="curve" smooth="yes"/>
			<point x="1006" y="918"/>
			<point x="856" y="918"/>
			<point x="736" y="764" type="curve"/>
			<point x="688" y="838"/>
			<point x="606" y="918"/>
			<point x="458" y="918" type="curve" smooth="yes"/>
			<point x="338" y="918"/>
			<point x="246" y="888"/>
			<point x="150" y="834" type="curve"/>
			<point x="150" y="834"/>
			<point x="150" y="834"/>
			<point x="150" y="834" type="curve"/>
			<point x="154" y="790"/>
			<point x="158" y="746"/>
			<point x="162" y="702" type="curve"/>
			<point x="162" y="702"/>
			<point x="162" y="702"/>
			<point x="162" y="702" type="curve"/>
			<point x="162" y="702"/>
			<point x="162" y="702"/>
			<point x="162" y="702" type="curve"/>
			<point x="238" y="756"/>
			<point x="328" y="802"/>
			<point x="460" y="802" type="curve" smooth="yes"/>
			<point x="542" y="802"/>
			<point x="630" y="736"/>
			<point x="630" y="582" type="curve" smooth="yes"/>
			<point x="630" y="504" type="line"/>
			<point x="346" y="502"/>
			<point x="92" y="414"/>
			<point x="92" y="232" type="curve" smooth="yes"/>
			<point x="92" y="164"/>
			<point x="128" y="-20"/>
		</contour>
		<contour>
			<point x="638" y="266" type="curve" smooth="yes"/>
			<point x="638" y="224"/>
			<point x="638" y="180"/>
			<point x="572" y="140" type="curve" smooth="yes"/>
			<point x="528" y="112"/>
			<point x="464" y="100"/>
			<point x="412" y="100" type="curve" smooth="yes"/>
			<point x="308" y="100"/>
			<point x="234" y="160"/>
			<point x="234" y="234" type="curve" smooth="yes"/>
			<point x="234" y="300"/>
			<point x="300" y="340"/>
			<point x="380" y="362" type="curve" smooth="yes"/>
			<point x="472" y="388"/>
			<point x="582" y="394"/>
			<point x="632" y="396" type="curve"/>
			<point x="634" y="360"/>
			<point x="638" y="300"/>
		</contour>
		<contour>
			<point x="794" y="558" type="line"/>
			<point x="830" y="706"/>
			<point x="930" y="798"/>
			<point x="1032" y="798" type="curve" smooth="yes"/>
			<point x="1128" y="798"/>
			<point x="1214" y="724"/>
			<point x="1238" y="558" type="curve"/>
		</contour>
	</outline>
</glyph>
<glyph name="oslash" format="2">
	<unicode hex="00F8"/>
	<advance width="489"/>
	<outline>
		<contour>
			<point x="30" y="220" type="curve" smooth="yes"/>
			<point x="30" y="108"/>
			<point x="104" y="46"/>
			<point x="109" y="41" type="curve"/>
			<point x="41" y="-82" type="line"/>
			<point x="41" y="-82"/>
			<point x="41" y="-82"/>
			<point x="41" y="-82" type="curve"/>
			<point x="58.649" y="-91.99"/>
			<point x="76.298" y="-101.98"/>
			<point x="94" y="-112" type="curve"/>
			<point x="94" y="-112"/>
			<point x="94" y="-112"/>
			<point x="94" y="-112" type="curve"/>
			<point x="115.978" y="-72.04"/>
			<point x="137.956" y="-32.08"/>
			<point x="160" y="8" type="curve"/>
			<point x="194" y="-6"/>
			<point x="223" y="-10"/>
			<point x="244" y="-10" type="curve" smooth="yes"/>
			<point x="362" y="-10"/>
			<point x="459" y="91"/>
			<point x="459" y="220" type="curve" smooth="yes"/>
			<point x="459" y="287"/>
			<point x="433" y="357"/>
			<point x="380" y="405" type="curve"/>
			<point x="448" y="527" type="line"/>
			<point x="448" y="527"/>
			<point x="448" y="527"/>
			<point x="448" y="527" type="curve"/>
			<point x="430.351" y="536.99"/>
			<point x="412.702" y="546.98"/>
			<point x="395" y="557" type="curve"/>
			<point x="395" y="557"/>
			<point x="395" y="557"/>
			<point x="395" y="557" type="curve"/>
			<point x="330" y="439" type="line"/>
			<point x="297" y="455"/>
			<point x="268" y="459"/>
			<point x="245" y="459" type="curve" smooth="yes"/>
			<point x="127" y="459"/>
			<point x="30" y="353"/>
		</contour>
		<contour>
			<point x="142" y="100" type="line"/>
			<point x="107" y="142"/>
			<point x="105" y="199"/>
			<point x="105" y="220" type="curve" smooth="yes"/>
			<point x="105" y="341"/>
			<point x="175" y="399"/>
			<point x="245" y="399" type="curve" smooth="yes"/>
			<point x="264" y="399"/>
			<point x="284" y="395"/>
			<point x="301" y="386" type="curve"/>
		</contour>
		<contour>
			<point x="348" y="346" type="line"/>
			<point x="375" y="310"/>
			<point x="384" y="263"/>
			<point x="384" y="220" type="curve" smooth="yes"/>
			<point x="384" y="100"/>
			<point x="310" y="50"/>
			<point x="245" y="50" type="curve" smooth="yes"/>
			<point x="227" y="50"/>
			<point x="207" y="54"/>
			<point x="190" y="62" type="curve"/>
		</contour>
	</outline>
</glyph>
<glyph name="dotlessi" format="2">
	<unicode hex="0131"/>
	<advance width="230"/>
	<outline>
		<contour>
			<point x="78" y="444" type="curve"/>
			<point x="78" y="0" type="line"/>
			<point x="78" y="0"/>
			<point x="78" y="0"/>
			<point x="78" y="0" type="curve"/>
			<point x="152" y="0" type="line"/>
			<point x="152" y="0"/>
			<point x="152" y="0"/>
			<point x="152" y="0" type="curve"/>
			<point x="152" y="444" type="line"/>
			<point x="152" y="444"/>
			<point x="152" y="444"/>
			<point x="152" y="444" type="curve"/>
			<point x="78" y="444" type="line"/>
			<point x="78" y="444"/>
			<point x="78" y="444"/>
		</contour>
	</outline>
</glyph>
<glyph name="OE" format="2">
	<unicode hex="0152"/>
	<advance width="1898"/>
	<outline>
		<contour>
			<point x="696" y="-42" type="curve" smooth="yes"/>
			<point x="744" y="-42"/>
			<point x="780" y="-36"/>
			<point x="856" y="-20" type="curve" smooth="yes"/>
			<point x="928" y="-4"/>
			<point x="960" y="0"/>
			<point x="1010" y="0" type="curve" smooth="yes"/>
			<point x="1814" y="0" type="line"/>
			<point x="1814" y="0"/>
			<point x="1814" y="0"/>
			<point x="1814" y="0" type="curve"/>
			<point x="1814" y="136" type="line"/>
			<point x="1814" y="136"/>
			<point x="1814" y="136"/>
			<point x="1814" y="136" type="curve"/>
			<point x="1572" y="136"/>
			<point x="1329" y="136"/>
			<point x="1086" y="136" type="curve"/>
			<point x="1086" y="662" type="line"/>
			<point x="1732" y="662" type="line"/>
			<point x="1732" y="662"/>
			<point x="1732" y="662"/>
			<point x="1732" y="662" type="curve"/>
			<point x="1732" y="782" type="line"/>
			<point x="1732" y="782"/>
			<point x="1732" y="782"/>
			<point x="1732" y="782" type="curve"/>
			<point x="1086" y="782" type="line"/>
			<point x="1086" y="1262" type="line"/>
			<point x="1320" y="1262"/>
			<point x="1554" y="1262"/>
			<point x="1788" y="1262" type="curve"/>
			<point x="1788" y="1262"/>
			<point x="1788" y="1262"/>
			<point x="1788" y="1262" type="curve"/>
			<point x="1788" y="1388" type="line"/>
			<point x="1788" y="1388"/>
			<point x="1788" y="1388"/>
			<point x="1788" y="1388" type="curve"/>
			<point x="1010" y="1388" type="line" smooth="yes"/>
			<point x="988" y="1388"/>
			<point x="946" y="1388"/>
			<point x="860" y="1406" type="curve" smooth="yes"/>
			<point x="756" y="1430"/>
			<point x="720" y="1430"/>
			<point x="696" y="1430" type="curve" smooth="yes"/>
			<point x="360" y="1430"/>
			<point x="48" y="1116"/>
			<point x="48" y="690" type="curve" smooth="yes"/>
			<point x="48" y="266"/>
			<point x="360" y="-42"/>
		</contour>
		<contour>
			<point x="706" y="78" type="curve" smooth="yes"/>
			<point x="430" y="78"/>
			<point x="216" y="368"/>
			<point x="216" y="720" type="curve" smooth="yes"/>
			<point x="216" y="1054"/>
			<point x="436" y="1310"/>
			<point x="704" y="1310" type="curve" smooth="yes"/>
			<point x="862" y="1310"/>
			<point x="918" y="1262"/>
			<point x="918" y="990" type="curve" smooth="yes"/>
			<point x="918" y="890"/>
			<point x="918" y="788"/>
			<point x="918" y="688" type="curve" smooth="yes"/>
			<point x="918" y="592"/>
			<point x="918" y="494"/>
			<point x="918" y="398" type="curve" smooth="yes"/>
			<point x="918" y="130"/>
			<point x="864" y="78"/>
		</contour>
	</outline>
</glyph>
<glyph name="oe" format="2">
	<unicode hex="0153"/>
	<advance width="1522"/>
	<outline>
		<contour>
			<point x="474" y="-20" type="curve" smooth="yes"/>
			<point x="566" y="-20"/>
			<point x="712" y="18"/>
			<point x="818" y="182" type="curve"/>
			<point x="908" y="38"/>
			<point x="1048" y="-20"/>
			<point x="1172" y="-20" type="curve" smooth="yes"/>
			<point x="1330" y="-20"/>
			<point x="1456" y="76"/>
			<point x="1456" y="94" type="curve"/>
			<point x="1456" y="94"/>
			<point x="1456" y="94"/>
			<point x="1456" y="94" type="curve"/>
			<point x="1452" y="134"/>
			<point x="1448" y="174"/>
			<point x="1444" y="214" type="curve"/>
			<point x="1444" y="214"/>
			<point x="1444" y="214"/>
			<point x="1444" y="214" type="curve"/>
			<point x="1444" y="214"/>
			<point x="1444" y="214"/>
			<point x="1444" y="214" type="curve"/>
			<point x="1356" y="128"/>
			<point x="1252" y="100"/>
			<point x="1174" y="100" type="curve" smooth="yes"/>
			<point x="1034" y="100"/>
			<point x="896" y="226"/>
			<point x="892" y="450" type="curve"/>
			<point x="1468" y="450" type="line"/>
			<point x="1468" y="450"/>
			<point x="1468" y="450"/>
			<point x="1468" y="450" type="curve"/>
			<point x="1468" y="522"/>
			<point x="1466" y="918"/>
			<point x="1142" y="918" type="curve" smooth="yes"/>
			<point x="1026" y="918"/>
			<point x="900" y="858"/>
			<point x="814" y="722" type="curve"/>
			<point x="688" y="906"/>
			<point x="532" y="918"/>
			<point x="474" y="918" type="curve" smooth="yes"/>
			<point x="250" y="918"/>
			<point x="60" y="712"/>
			<point x="60" y="450" type="curve" smooth="yes"/>
			<point x="60" y="182"/>
			<point x="254" y="-20"/>
		</contour>
		<contour>
			<point x="472" y="100" type="curve" smooth="yes"/>
			<point x="340" y="100"/>
			<point x="202" y="214"/>
			<point x="202" y="460" type="curve" smooth="yes"/>
			<point x="202" y="696"/>
			<point x="342" y="798"/>
			<point x="474" y="798" type="curve" smooth="yes"/>
			<point x="598" y="798"/>
			<point x="740" y="700"/>
			<point x="740" y="460" type="curve" smooth="yes"/>
			<point x="740" y="220"/>
			<point x="610" y="100"/>
		</contour>
		<contour>
			<point x="904" y="558" type="line"/>
			<point x="940" y="706"/>
			<point x="1040" y="798"/>
			<point x="1142" y="798" type="curve" smooth="yes"/>
			<point x="1238" y="798"/>
			<point x="1324" y="724"/>
			<point x="1348" y="558" type="curve"/>
		</contour>
	</outline>
</glyph>
<glyph name="dotlessj" format="2">
	<unicode hex="0237"/>
	<advance width="514"/>
	<outline>
		<contour>
			<point x="210" y="-138" type="line" smooth="yes"/>
			<point x="210" y="-276"/>
			<point x="88" y="-282"/>
			<point x="58" y="-282" type="curve" smooth="yes"/>
			<point x="-20" y="-282"/>
			<point x="-74" y="-242"/>
			<point x="-94" y="-220" type="curve"/>
			<point x="-94" y="-220"/>
			<point x="-94" y="-220"/>
			<point x="-94" y="-220" type="curve"/>
			<point x="-94" y="-220"/>
			<point x="-94" y="-220"/>
			<point x="-94" y="-220" type="curve"/>
			<point x="-124" y="-340" type="line"/>
			<point x="-124" y="-340"/>
			<point x="-124" y="-340"/>
			<point x="-124" y="-340" type="curve"/>
			<point x="-60" y="-378"/>
			<point x="20" y="-408"/>
			<point x="112" y="-408" type="curve" smooth="yes"/>
			<point x="238" y="-408"/>
			<point x="358" y="-304"/>
			<point x="358" y="-118" type="curve" smooth="yes"/>
			<point x="358" y="888" type="line"/>
			<point x="358" y="888"/>
			<point x="358" y="888"/>
			<point x="358" y="888" type="curve"/>
			<point x="210" y="888" type="line"/>
			<point x="210" y="888"/>
			<point x="210" y="888"/>
			<point x="210" y="888" type="curve"/>
		</contour>
	</outline>
</glyph>
<glyph name="circumflex" format="2">
	<unicode hex="02C6"/>
	<advance width="978"/>
	<outline>
		<contour>
			<point x="550" y="1388" type="line"/>
			<point x="550" y="1388"/>
			<point x="550" y="1388"/>
			<point x="550" y="1388" type="curve"/>
			<point x="428" y="1388" type="line"/>
			<point x="428" y="1388"/>
			<point x="428" y="1388"/>
			<point x="428" y="1388" type="curve"/>
			<point x="152" y="1054" type="line"/>
			<point x="152" y="1054"/>
			<point x="152" y="1054"/>
			<point x="152" y="1054" type="curve"/>
			<point x="192" y="1054"/>
			<point x="232" y="1054"/>
			<point x="272" y="1054" type="curve"/>
			<point x="272" y="1054" type="line"/>
			<point x="272" y="1054"/>
			<point x="272" y="1054"/>
			<point x="272" y="1054" type="curve"/>
			<point x="488" y="1300" type="line"/>
			<point x="706" y="1054" type="line"/>
			<point x="706" y="1054"/>
			<point x="706" y="1054"/>
			<point x="706" y="1054" type="curve"/>
			<point x="826" y="1054" type="line"/>
			<point x="826" y="1054"/>
			<point x="826" y="1054"/>
			<point x="826" y="1054" type="curve"/>
			<point x="826" y="1054"/>
			<point x="826" y="1054"/>
			<point x="826" y="1054" type="curve"/>
		</contour>
	</outline>
</glyph>
<glyph name="caron" format="2">
	<unicode hex="02C7"/>
	<advance width="489"/>
	<outline>
		<contour>
			<point x="413" y="653" type="line"/>
			<point x="413" y="653"/>
			<point x="413" y="653"/>
			<point x="413" y="653" type="curve"/>
			<point x="413" y="653"/>
			<point x="413" y="653"/>
			<point x="413" y="653" type="curve"/>
			<point x="353" y="653" type="line"/>
			<point x="353" y="653"/>
			<point x="353" y="653"/>
			<point x="353" y="653" type="curve"/>
			<point x="245" y="530" type="line"/>
			<point x="136" y="653" type="line"/>
			<point x="136" y="653"/>
			<point x="136" y="653"/>
			<point x="136" y="653" type="curve"/>
			<point x="76" y="653" type="line"/>
			<point x="76" y="653"/>
			<point x="76" y="653"/>
			<point x="76" y="653" type="curve"/>
			<point x="76" y="653"/>
			<point x="76" y="653"/>
			<point x="76" y="653" type="curve"/>
			<point x="214" y="486" type="line"/>
			<point x="214" y="486"/>
			<point x="214" y="486"/>
			<point x="214" y="486" type="curve"/>
			<point x="275" y="486" type="line"/>
			<point x="275" y="486"/>
			<point x="275" y="486"/>
			<point x="275" y="486" type="curve"/>
		</contour>
	</outline>
</glyph>
<glyph name="breve" format="2">
	<unicode hex="02D8"/>
	<advance width="978"/>
	<outline>
		<contour>
			<point x="488" y="1032" type="curve" smooth="yes"/>
			<point x="664" y="1032"/>
			<point x="816" y="1178"/>
			<point x="820" y="1388" type="curve"/>
			<point x="820" y="1388"/>
			<point x="820" y="1388"/>
			<point x="820" y="1388" type="curve"/>
			<point x="700" y="1388" type="line"/>
			<point x="700" y="1388"/>
			<point x="700" y="1388"/>
			<point x="700" y="1388" type="curve"/>
			<point x="696" y="1238"/>
			<point x="586" y="1162"/>
			<point x="490" y="1162" type="curve" smooth="yes"/>
			<point x="386" y="1162"/>
			<point x="282" y="1244"/>
			<point x="278" y="1388" type="curve"/>
			<point x="278" y="1388"/>
			<point x="278" y="1388"/>
			<point x="278" y="1388" type="curve"/>
			<point x="158" y="1388" type="line"/>
			<point x="158" y="1388"/>
			<point x="158" y="1388"/>
			<point x="158" y="1388" type="curve"/>
			<point x="162" y="1174"/>
			<point x="318" y="1032"/>
		</contour>
	</outline>
</glyph>
<glyph name="dotaccent" format="2">
	<unicode hex="02D9"/>
	<advance width="542"/>
	<outline>
		<contour>
			<point x="358" y="1358" type="curve"/>
			<point x="186" y="1358" type="line"/>
			<point x="186" y="1358"/>
			<point x="186" y="1358"/>
			<point x="186" y="1358" type="curve"/>
			<point x="186" y="1186" type="line"/>
			<point x="186" y="1186"/>
			<point x="186" y="1186"/>
			<point x="186" y="1186" type="curve"/>
			<point x="358" y="1186" type="line"/>
			<point x="358" y="1186"/>
			<point x="358" y="1186"/>
			<point x="358" y="1186" type="curve"/>
			<point x="358" y="1358" type="line"/>
			<point x="358" y="1358"/>
			<point x="358" y="1358"/>
		</contour>
	</outline>
</glyph>
<glyph name="ring" format="2">
	<unicode hex="02DA"/>
	<advance width="1294"/>
	<outline>
		<contour>
			<point x="864" y="1220" type="curve" smooth="yes"/>
			<point x="864" y="1312"/>
			<point x="768" y="1388"/>
			<point x="646" y="1388" type="curve" smooth="yes"/>
			<point x="518" y="1388"/>
			<point x="428" y="1306"/>
			<point x="428" y="1222" type="curve" smooth="yes"/>
			<point x="428" y="1130"/>
			<point x="524" y="1054"/>
			<point x="646" y="1054" type="curve" smooth="yes"/>
			<point x="774" y="1054"/>
			<point x="864" y="1136"/>
		</contour>
		<contour>
			<point x="646" y="1138" type="curve" smooth="yes"/>
			<point x="628" y="1138"/>
			<point x="538" y="1138"/>
			<point x="538" y="1220" type="curve" smooth="yes"/>
			<point x="538" y="1292"/>
			<point x="604" y="1304"/>
			<point x="646" y="1304" type="curve" smooth="yes"/>
			<point x="664" y="1304"/>
			<point x="754" y="1304"/>
			<point x="754" y="1222" type="curve" smooth="yes"/>
			<point x="754" y="1150"/>
			<point x="688" y="1138"/>
		</contour>
	</outline>
</glyph>
<glyph name="tilde" format="2">
	<unicode hex="02DC"/>
	<advance width="978"/>
	<outline>
		<contour>
			<point x="618" y="1234" type="curve" smooth="yes"/>
			<point x="572" y="1234"/>
			<point x="522" y="1270"/>
			<point x="502" y="1284" type="curve" smooth="yes"/>
			<point x="444" y="1326"/>
			<point x="404" y="1350"/>
			<point x="354" y="1350" type="curve" smooth="yes"/>
			<point x="268" y="1350"/>
			<point x="168" y="1272"/>
			<point x="164" y="1114" type="curve"/>
			<point x="164" y="1114"/>
			<point x="164" y="1114"/>
			<point x="164" y="1114" type="curve"/>
			<point x="284" y="1114" type="line"/>
			<point x="284" y="1114"/>
			<point x="284" y="1114"/>
			<point x="284" y="1114" type="curve"/>
			<point x="284" y="1166"/>
			<point x="302" y="1230"/>
			<point x="360" y="1230" type="curve" smooth="yes"/>
			<point x="406" y="1230"/>
			<point x="456" y="1194"/>
			<point x="476" y="1180" type="curve" smooth="yes"/>
			<point x="534" y="1138"/>
			<point x="574" y="1114"/>
			<point x="624" y="1114" type="curve" smooth="yes"/>
			<point x="710" y="1114"/>
			<point x="810" y="1192"/>
			<point x="814" y="1350" type="curve"/>
			<point x="814" y="1350"/>
			<point x="814" y="1350"/>
			<point x="814" y="1350" type="curve"/>
			<point x="694" y="1350" type="line"/>
			<point x="694" y="1350"/>
			<point x="694" y="1350"/>
			<point x="694" y="1350" type="curve"/>
			<point x="694" y="1298"/>
			<point x="676" y="1234"/>
		</contour>
	</outline>
</glyph>
<glyph name="hungarumlaut" format="2">
	<unicode hex="02DD"/>
	<advance width="978"/>
	<outline>
		<contour>
			<point x="488" y="1388" type="line"/>
			<point x="488" y="1388"/>
			<point x="488" y="1388"/>
			<point x="488" y="1388" type="curve"/>
			<point x="488" y="1388"/>
			<point x="488" y="1388"/>
			<point x="488" y="1388" type="curve"/>
			<point x="336" y="1388" type="line"/>
			<point x="336" y="1388"/>
			<point x="336" y="1388"/>
			<point x="336" y="1388" type="curve"/>
			<point x="212" y="1054" type="line"/>
			<point x="212" y="1054"/>
			<point x="212" y="1054"/>
			<point x="212" y="1054" type="curve"/>
			<point x="332" y="1054" type="line"/>
			<point x="332" y="1054"/>
			<point x="332" y="1054"/>
			<point x="332" y="1054" type="curve"/>
		</contour>
		<contour>
			<point x="814" y="1388" type="line"/>
			<point x="814" y="1388"/>
			<point x="814" y="1388"/>
			<point x="814" y="1388" type="curve"/>
			<point x="814" y="1388"/>
			<point x="814" y="1388"/>
			<point x="814" y="1388" type="curve"/>
			<point x="662" y="1388" type="line"/>
			<point x="662" y="1388"/>
			<point x="662" y="1388"/>
			<point x="662" y="1388" type="curve"/>
			<point x="538" y="1054" type="line"/>
			<point x="538" y="1054"/>
			<point x="538" y="1054"/>
			<point x="538" y="1054" type="curve"/>
			<point x="658" y="1054" type="line"/>
			<point x="658" y="1054"/>
			<point x="658" y="1054"/>
			<point x="658" y="1054" type="curve"/>
		</contour>
	</outline>
</glyph>
<glyph name="endash" format="2">
	<unicode hex="2013"/>
	<advance width="978"/>
	<outline>
		<contour>
			<point x="978" y="488" type="curve"/>
			<point x="978" y="608" type="line"/>
			<point x="978" y="608"/>
			<point x="978" y="608"/>
			<point x="978" y="608" type="curve"/>
			<point x="0" y="608" type="line"/>
			<point x="0" y="608"/>
			<point x="0" y="608"/>
			<point x="0" y="608" type="curve"/>
			<point x="0" y="488" type="line"/>
			<point x="0" y="488"/>
			<point x="0" y="488"/>
			<point x="0" y="488" type="curve"/>
			<point x="978" y="488" type="line"/>
			<point x="978" y="488"/>
			<point x="978" y="488"/>
		</contour>
	</outline>
</glyph>
<glyph name="emdash" format="2">
	<unicode hex="2014"/>
	<advance width="979"/>
	<outline>
		<contour>
			<point x="978" y="244" type="curve"/>
			<point x="978" y="304" type="line"/>
			<point x="978" y="304"/>
			<point x="978" y="304"/>
			<point x="978" y="304" type="curve"/>
			<point x="0" y="304" type="line"/>
			<point x="0" y="304"/>
			<point x="0" y="304"/>
			<point x="0" y="304" type="curve"/>
			<point x="0" y="244" type="line"/>
			<point x="0" y="244"/>
			<point x="0" y="244"/>
			<point x="0" y="244" type="curve"/>
			<point x="978" y="244" type="line"/>
			<point x="978" y="244"/>
			<point x="978" y="244"/>
		</contour>
	</outline>
</glyph>
<glyph name="quoteleft" format="2">
	<unicode hex="2018"/>
	<advance width="542"/>
	<outline>
		<contour>
			<point x="352" y="1388" type="line"/>
			<point x="352" y="1388"/>
			<point x="352" y="1388"/>
			<point x="352" y="1388" type="curve"/>
			<point x="352" y="1388"/>
			<point x="352" y="1388"/>
			<point x="352" y="1388" type="curve"/>
			<point x="272" y="1388" type="line"/>
			<point x="272" y="1388"/>
			<point x="272" y="1388"/>
			<point x="272" y="1388" type="curve"/>
			<point x="190" y="1136" type="line"/>
			<point x="190" y="976" type="line"/>
			<point x="190" y="976"/>
			<point x="190" y="976"/>
			<point x="190" y="976" type="curve"/>
			<point x="352" y="976" type="line"/>
			<point x="352" y="976"/>
			<point x="352" y="976"/>
			<point x="352" y="976" type="curve"/>
			<point x="352" y="1138" type="line"/>
			<point x="352" y="1138"/>
			<point x="352" y="1138"/>
			<point x="352" y="1138" type="curve"/>
			<point x="302" y="1138" type="line"/>
		</contour>
	</outline>
</glyph>
<glyph name="quoteright" format="2">
	<unicode hex="2019"/>
	<advance width="542"/>
	<outline>
		<contour>
			<point x="240" y="1226" type="line"/>
			<point x="190" y="976" type="line"/>
			<point x="190" y="976"/>
			<point x="190" y="976"/>
			<point x="190" y="976" type="curve"/>
			<point x="190" y="976"/>
			<point x="190" y="976"/>
			<point x="190" y="976" type="curve"/>
			<point x="270" y="976" type="line"/>
			<point x="270" y="976"/>
			<point x="270" y="976"/>
			<point x="270" y="976" type="curve"/>
			<point x="352" y="1228" type="line"/>
			<point x="352" y="1388" type="line"/>
			<point x="352" y="1388"/>
			<point x="352" y="1388"/>
			<point x="352" y="1388" type="curve"/>
			<point x="190" y="1388" type="line"/>
			<point x="190" y="1388"/>
			<point x="190" y="1388"/>
			<point x="190" y="1388" type="curve"/>
			<point x="190" y="1226" type="line"/>
			<point x="190" y="1226"/>
			<point x="190" y="1226"/>
			<point x="190" y="1226" type="curve"/>
		</contour>
	</outline>
</glyph>
<glyph name="quotedblleft" format="2">
	<unicode hex="201C"/>
	<advance width="978"/>
	<outline>
		<contour>
			<point x="532" y="1388" type="line"/>
			<point x="532" y="1388"/>
			<point x="532" y="1388"/>
			<point x="532" y="1388" type="curve"/>
			<point x="532" y="1388"/>
			<point x="532" y="1388"/>
			<point x="532" y="1388" type="curve"/>
			<point x="452" y="1388" type="line"/>
			<point x="452" y="1388"/>
			<point x="452" y="1388"/>
			<point x="452" y="1388" type="curve"/>
			<point x="370" y="1136" type="line"/>
			<point x="370" y="976" type="line"/>
			<point x="370" y="976"/>
			<point x="370" y="976"/>
			<point x="370" y="976" type="curve"/>
			<point x="532" y="976" type="line"/>
			<point x="532" y="976"/>
			<point x="532" y="976"/>
			<point x="532" y="976" type="curve"/>
			<point x="532" y="1138" type="line"/>
			<point x="532" y="1138"/>
			<point x="532" y="1138"/>
			<point x="532" y="1138" type="curve"/>
			<point x="482" y="1138" type="line"/>
		</contour>
		<contour>
			<point x="912" y="1388" type="line"/>
			<point x="912" y="1388"/>
			<point x="912" y="1388"/>
			<point x="912" y="1388" type="curve"/>
			<point x="912" y="1388"/>
			<point x="912" y="1388"/>
			<point x="912" y="1388" type="curve"/>
			<point x="832" y="1388" type="line"/>
			<point x="832" y="1388"/>
			<point x="832" y="1388"/>
			<point x="832" y="1388" type="curve"/>
			<point x="750" y="1136" type="line"/>
			<point x="750" y="976" type="line"/>
			<point x="750" y="976"/>
			<point x="750" y="976"/>
			<point x="750" y="976" type="curve"/>
			<point x="912" y="976" type="line"/>
			<point x="912" y="976"/>
			<point x="912" y="976"/>
			<point x="912" y="976" type="curve"/>
			<point x="912" y="1138" type="line"/>
			<point x="912" y="1138"/>
			<point x="912" y="1138"/>
			<point x="912" y="1138" type="curve"/>
			<point x="862" y="1138" type="line"/>
		</contour>
	</outline>
</glyph>
<glyph name="quotedblright" format="2">
	<unicode hex="201D"/>
	<advance width="489"/>
	<outline>
		<contour>
			<point x="114" y="614" type="line"/>
			<point x="114" y="694" type="line"/>
			<point x="114" y="694"/>
			<point x="114" y="694"/>
			<point x="114" y="694" type="curve"/>
			<point x="33" y="694" type="line"/>
			<point x="33" y="694"/>
			<point x="33" y="694"/>
			<point x="33" y="694" type="curve"/>
			<point x="33" y="613" type="line"/>
			<point x="33" y="613"/>
			<point x="33" y="613"/>
			<point x="33" y="613" type="curve"/>
			<point x="58" y="613" type="line"/>
			<point x="33" y="488" type="line"/>
			<point x="33" y="488"/>
			<point x="33" y="488"/>
			<point x="33" y="488" type="curve"/>
			<point x="33" y="488"/>
			<point x="33" y="488"/>
			<point x="33" y="488" type="curve"/>
			<point x="73" y="488" type="line"/>
			<point x="73" y="488"/>
			<point x="73" y="488"/>
			<point x="73" y="488" type="curve"/>
		</contour>
		<contour>
			<point x="304" y="614" type="line"/>
			<point x="304" y="694" type="line"/>
			<point x="304" y="694"/>
			<point x="304" y="694"/>
			<point x="304" y="694" type="curve"/>
			<point x="223" y="694" type="line"/>
			<point x="223" y="694"/>
			<point x="223" y="694"/>
			<point x="223" y="694" type="curve"/>
			<point x="223" y="613" type="line"/>
			<point x="223" y="613"/>
			<point x="223" y="613"/>
			<point x="223" y="613" type="curve"/>
			<point x="248" y="613" type="line"/>
			<point x="223" y="488" type="line"/>
			<point x="223" y="488"/>
			<point x="223" y="488"/>
			<point x="223" y="488" type="curve"/>
			<point x="223" y="488"/>
			<point x="223" y="488"/>
			<point x="223" y="488" type="curve"/>
			<point x="263" y="488" type="line"/>
			<point x="263" y="488"/>
			<point x="263" y="488"/>
			<point x="263" y="488" type="curve"/>
		</contour>
	</outline>
</glyph>
<glyph name="fi" format="2">
	<unicode hex="FB01"/>
	<advance width="523"/>
	<outline>
		<contour>
			<point x="447" y="695" type="curve"/>
			<point x="366" y="695" type="line"/>
			<point x="366" y="695"/>
			<point x="366" y="695"/>
			<point x="366" y="695" type="curve"/>
			<point x="366" y="614" type="line"/>
			<point x="366" y="614"/>
			<point x="366" y="614"/>
			<point x="366" y="614" type="curve"/>
			<point x="447" y="614" type="line"/>
			<point x="447" y="614"/>
			<point x="447" y="614"/>
			<point x="447" y="614" type="curve"/>
			<point x="447" y="695" type="line"/>
			<point x="447" y="695"/>
			<point x="447" y="695"/>
		</contour>
		<contour>
			<point x="444" y="444" type="curve"/>
			<point x="370" y="444" type="line"/>
			<point x="370" y="444"/>
			<point x="370" y="444"/>
			<point x="370" y="444" type="curve"/>
			<point x="370" y="0" type="line"/>
			<point x="370" y="0"/>
			<point x="370" y="0"/>
			<point x="370" y="0" type="curve"/>
			<point x="444" y="0" type="line"/>
			<point x="444" y="0"/>
			<point x="444" y="0"/>
			<point x="444" y="0" type="curve"/>
			<point x="444" y="444" type="line"/>
			<point x="444" y="444"/>
			<point x="444" y="444"/>
		</contour>
		<contour>
			<point x="99" y="386" type="line"/>
			<point x="99" y="0" type="line"/>
			<point x="99" y="0"/>
			<point x="99" y="0"/>
			<point x="99" y="0" type="curve"/>
			<point x="173" y="0" type="line"/>
			<point x="173" y="0"/>
			<point x="173" y="0"/>
			<point x="173" y="0" type="curve"/>
			<point x="173" y="386" type="line"/>
			<point x="288" y="386" type="line"/>
			<point x="288" y="386"/>
			<point x="288" y="386"/>
			<point x="288" y="386" type="curve"/>
			<point x="288" y="444" type="line"/>
			<point x="288" y="444"/>
			<point x="288" y="444"/>
			<point x="288" y="444" type="curve"/>
			<point x="171" y="444" type="line"/>
			<point x="171" y="566" type="line" smooth="yes"/>
			<point x="171" y="626"/>
			<point x="203" y="644"/>
			<point x="230" y="644" type="curve" smooth="yes"/>
			<point x="252" y="644"/>
			<point x="274" y="636"/>
			<point x="288" y="626" type="curve"/>
			<point x="288" y="626"/>
			<point x="288" y="626"/>
			<point x="288" y="626" type="curve"/>
			<point x="288" y="626"/>
			<point x="288" y="626"/>
			<point x="288" y="626" type="curve"/>
			<point x="288" y="694" type="line"/>
			<point x="288" y="694"/>
			<point x="288" y="694"/>
			<point x="288" y="694" type="curve"/>
			<point x="268" y="702"/>
			<point x="261" y="704"/>
			<point x="230" y="704" type="curve" smooth="yes"/>
			<point x="156" y="704"/>
			<point x="99" y="633"/>
			<point x="99" y="536" type="curve" smooth="yes"/>
			<point x="99" y="444" type="line"/>
			<point x="26" y="444" type="line"/>
			<point x="26" y="444"/>
			<point x="26" y="444"/>
			<point x="26" y="444" type="curve"/>
			<point x="26" y="386" type="line"/>
			<point x="26" y="386"/>
			<point x="26" y="386"/>
			<point x="26" y="386" type="curve"/>
		</contour>
	</outline>
</glyph>
<glyph name="fl" format="2">
	<unicode hex="FB02"/>
	<advance width="1046"/>
	<outline>
		<contour>
			<point x="198" y="772" type="line"/>
			<point x="198" y="0" type="line"/>
			<point x="198" y="0"/>
			<point x="198" y="0"/>
			<point x="198" y="0" type="curve"/>
			<point x="346" y="0" type="line"/>
			<point x="346" y="0"/>
			<point x="346" y="0"/>
			<point x="346" y="0" type="curve"/>
			<point x="346" y="772" type="line"/>
			<point x="576" y="772" type="line"/>
			<point x="576" y="772"/>
			<point x="576" y="772"/>
			<point x="576" y="772" type="curve"/>
			<point x="576" y="888" type="line"/>
			<point x="576" y="888"/>
			<point x="576" y="888"/>
			<point x="576" y="888" type="curve"/>
			<point x="342" y="888" type="line"/>
			<point x="342" y="1132" type="line" smooth="yes"/>
			<point x="342" y="1252"/>
			<point x="406" y="1288"/>
			<point x="460" y="1288" type="curve" smooth="yes"/>
			<point x="500" y="1288"/>
			<point x="542" y="1278"/>
			<point x="576" y="1256" type="curve"/>
			<point x="576" y="1256"/>
			<point x="576" y="1256"/>
			<point x="576" y="1256" type="curve"/>
			<point x="576" y="1256"/>
			<point x="576" y="1256"/>
			<point x="576" y="1256" type="curve"/>
			<point x="576" y="1388" type="line"/>
			<point x="576" y="1388"/>
			<point x="576" y="1388"/>
			<point x="576" y="1388" type="curve"/>
			<point x="536" y="1404"/>
			<point x="522" y="1408"/>
			<point x="460" y="1408" type="curve" smooth="yes"/>
			<point x="312" y="1408"/>
			<point x="198" y="1266"/>
			<point x="198" y="1072" type="curve" smooth="yes"/>
			<point x="198" y="888" type="line"/>
			<point x="52" y="888" type="line"/>
			<point x="52" y="888"/>
			<point x="52" y="888"/>
			<point x="52" y="888" type="curve"/>
			<point x="52" y="772" type="line"/>
			<point x="52" y="772"/>
			<point x="52" y="772"/>
			<point x="52" y="772" type="curve"/>
		</contour>
		<contour>
			<point x="888" y="1388" type="curve"/>
			<point x="740" y="1388" type="line"/>
			<point x="740" y="1388"/>
			<point x="740" y="1388"/>
			<point x="740" y="1388" type="curve"/>
			<point x="740" y="0" type="line"/>
			<point x="740" y="0"/>
			<point x="740" y="0"/>
			<point x="740" y="0" type="curve"/>
			<point x="888" y="0" type="line"/>
			<point x="888" y="0"/>
			<point x="888" y="0"/>
			<point x="888" y="0" type="curve"/>
			<point x="888" y="1388" type="line"/>
			<point x="888" y="1388"/>
			<point x="888" y="1388"/>
		</contour>
	</outline>
</glyph>
<glyph name="ff" format="2">
	<advance width="1142"/>
	<outline>
		<contour>
			<point x="346" y="772" type="line"/>
			<point x="562" y="772" type="line"/>
			<point x="562" y="772"/>
			<point x="562" y="772"/>
			<point x="562" y="772" type="curve"/>
			<point x="562" y="888" type="line"/>
			<point x="562" y="888"/>
			<point x="562" y="888"/>
			<point x="562" y="888" type="curve"/>
			<point x="342" y="888" type="line"/>
			<point x="342" y="1128" type="line" smooth="yes"/>
			<point x="342" y="1268"/>
			<point x="464" y="1288"/>
			<point x="522" y="1288" type="curve" smooth="yes"/>
			<point x="594" y="1288"/>
			<point x="654" y="1266"/>
			<point x="680" y="1256" type="curve"/>
			<point x="680" y="1256"/>
			<point x="680" y="1256"/>
			<point x="680" y="1256" type="curve"/>
			<point x="680" y="1256"/>
			<point x="680" y="1256"/>
			<point x="680" y="1256" type="curve"/>
			<point x="680" y="1388" type="line"/>
			<point x="680" y="1388"/>
			<point x="680" y="1388"/>
			<point x="680" y="1388" type="curve"/>
			<point x="656" y="1394"/>
			<point x="594" y="1408"/>
			<point x="524" y="1408" type="curve" smooth="yes"/>
			<point x="342" y="1408"/>
			<point x="198" y="1270"/>
			<point x="198" y="1068" type="curve" smooth="yes"/>
			<point x="198" y="888" type="line"/>
			<point x="52" y="888" type="line"/>
			<point x="52" y="888"/>
			<point x="52" y="888"/>
			<point x="52" y="888" type="curve"/>
			<point x="52" y="772" type="line"/>
			<point x="52" y="772"/>
			<point x="52" y="772"/>
			<point x="52" y="772" type="curve"/>
			<point x="198" y="772" type="line"/>
			<point x="198" y="0" type="line"/>
			<point x="198" y="0"/>
			<point x="198" y="0"/>
			<point x="198" y="0" type="curve"/>
			<point x="346" y="0" type="line"/>
			<point x="346" y="0"/>
			<point x="346" y="0"/>
			<point x="346" y="0" type="curve"/>
		</contour>
		<contour>
			<point x="888" y="772" type="line"/>
			<point x="1104" y="772" type="line"/>
			<point x="1104" y="772"/>
			<point x="1104" y="772"/>
			<point x="1104" y="772" type="curve"/>
			<point x="1104" y="888" type="line"/>
			<point x="1104" y="888"/>
			<point x="1104" y="888"/>
			<point x="1104" y="888" type="curve"/>
			<point x="884" y="888" type="line"/>
			<point x="884" y="1128" type="line" smooth="yes"/>
			<point x="884" y="1268"/>
			<point x="1006" y="1288"/>
			<point x="1064" y="1288" type="curve" smooth="yes"/>
			<point x="1136" y="1288"/>
			<point x="1196" y="1266"/>
			<point x="1222" y="1256" type="curve"/>
			<point x="1222" y="1256"/>
			<point x="1222" y="1256"/>
			<point x="1222" y="1256" type="curve"/>
			<point x="1222" y="1256"/>
			<point x="1222" y="1256"/>
			<point x="1222" y="1256" type="curve"/>
			<point x="1222" y="1388" type="line"/>
			<point x="1222" y="1388"/>
			<point x="1222" y="1388"/>
			<point x="1222" y="1388" type="curve"/>
			<point x="1198" y="1394"/>
			<point x="1136" y="1408"/>
			<point x="1066" y="1408" type="curve" smooth="yes"/>
			<point x="884" y="1408"/>
			<point x="740" y="1270"/>
			<point x="740" y="1068" type="curve" smooth="yes"/>
			<point x="740" y="0" type="line"/>
			<point x="740" y="0"/>
			<point x="740" y="0"/>
			<point x="740" y="0" type="curve"/>
			<point x="888" y="0" type="line"/>
			<point x="888" y="0"/>
			<point x="888" y="0"/>
			<point x="888" y="0" type="curve"/>
		</contour>
	</outline>
</glyph>
<glyph name="ffl" format="2">
	<advance width="1590"/>
	<outline>
		<contour>
			<point x="346" y="772" type="line"/>
			<point x="576" y="772" type="line"/>
			<point x="576" y="772"/>
			<point x="576" y="772"/>
			<point x="576" y="772" type="curve"/>
			<point x="576" y="888" type="line"/>
			<point x="576" y="888"/>
			<point x="576" y="888"/>
			<point x="576" y="888" type="curve"/>
			<point x="342" y="888" type="line"/>
			<point x="342" y="1128" type="line" smooth="yes"/>
			<point x="342" y="1266"/>
			<point x="438" y="1288"/>
			<point x="490" y="1288" type="curve" smooth="yes"/>
			<point x="562" y="1288"/>
			<point x="624" y="1256"/>
			<point x="626" y="1256" type="curve"/>
			<point x="626" y="1256"/>
			<point x="626" y="1256"/>
			<point x="626" y="1256" type="curve"/>
			<point x="626" y="1256"/>
			<point x="626" y="1256"/>
			<point x="626" y="1256" type="curve"/>
			<point x="626" y="1388" type="line"/>
			<point x="626" y="1388"/>
			<point x="626" y="1388"/>
			<point x="626" y="1388" type="curve"/>
			<point x="608" y="1394"/>
			<point x="552" y="1408"/>
			<point x="492" y="1408" type="curve" smooth="yes"/>
			<point x="320" y="1408"/>
			<point x="198" y="1260"/>
			<point x="198" y="1070" type="curve" smooth="yes"/>
			<point x="198" y="888" type="line"/>
			<point x="52" y="888" type="line"/>
			<point x="52" y="888"/>
			<point x="52" y="888"/>
			<point x="52" y="888" type="curve"/>
			<point x="52" y="772" type="line"/>
			<point x="52" y="772"/>
			<point x="52" y="772"/>
			<point x="52" y="772" type="curve"/>
			<point x="198" y="772" type="line"/>
			<point x="198" y="0" type="line"/>
			<point x="198" y="0"/>
			<point x="198" y="0"/>
			<point x="198" y="0" type="curve"/>
			<point x="346" y="0" type="line"/>
			<point x="346" y="0"/>
			<point x="346" y="0"/>
			<point x="346" y="0" type="curve"/>
		</contour>
		<contour>
			<point x="1432" y="1388" type="curve"/>
			<point x="1284" y="1388" type="line"/>
			<point x="1284" y="1388"/>
			<point x="1284" y="1388"/>
			<point x="1284" y="1388" type="curve"/>
			<point x="1284" y="0" type="line"/>
			<point x="1284" y="0"/>
			<point x="1284" y="0"/>
			<point x="1284" y="0" type="curve"/>
			<point x="1432" y="0" type="line"/>
			<point x="1432" y="0"/>
			<point x="1432" y="0"/>
			<point x="1432" y="0" type="curve"/>
			<point x="1432" y="1388" type="line"/>
			<point x="1432" y="1388"/>
			<point x="1432" y="1388"/>
		</contour>
		<contour>
			<point x="890" y="772" type="line"/>
			<point x="1120" y="772" type="line"/>
			<point x="1120" y="772"/>
			<point x="1120" y="772"/>
			<point x="1120" y="772" type="curve"/>
			<point x="1120" y="888" type="line"/>
			<point x="1120" y="888"/>
			<point x="1120" y="888"/>
			<point x="1120" y="888" type="curve"/>
			<point x="886" y="888" type="line"/>
			<point x="886" y="1132" type="line" smooth="yes"/>
			<point x="886" y="1252"/>
			<point x="950" y="1288"/>
			<point x="1004" y="1288" type="curve" smooth="yes"/>
			<point x="1044" y="1288"/>
			<point x="1086" y="1278"/>
			<point x="1120" y="1256" type="curve"/>
			<point x="1120" y="1256"/>
			<point x="1120" y="1256"/>
			<point x="1120" y="1256" type="curve"/>
			<point x="1120" y="1256"/>
			<point x="1120" y="1256"/>
			<point x="1120" y="1256" type="curve"/>
			<point x="1120" y="1388" type="line"/>
			<point x="1120" y="1388"/>
			<point x="1120" y="1388"/>
			<point x="1120" y="1388" type="curve"/>
			<point x="1080" y="1404"/>
			<point x="1066" y="1408"/>
			<point x="1004" y="1408" type="curve" smooth="yes"/>
			<point x="856" y="1408"/>
			<point x="742" y="1266"/>
			<point x="742" y="1072" type="curve" smooth="yes"/>
			<point x="742" y="0" type="line"/>
			<point x="742" y="0"/>
			<point x="742" y="0"/>
			<point x="742" y="0" type="curve"/>
			<point x="890" y="0" type="line"/>
			<point x="890" y="0"/>
			<point x="890" y="0"/>
			<point x="890" y="0" type="curve"/>
		</contour>
	</outline>
</glyph>
<glyph name="l" format="2">
	<advance width="230"/>
	<outline>
		<contour>
			<point x="78" y="694" type="curve"/>
			<point x="78" y="0" type="line"/>
			<point x="78" y="0"/>
			<point x="78" y="0"/>
			<point x="78" y="0" type="curve"/>
			<point x="152" y="0" type="line"/>
			<point x="152" y="0"/>
			<point x="152" y="0"/>
			<point x="152" y="0" type="curve"/>
			<point x="152" y="694" type="line"/>
			<point x="152" y="694"/>
			<point x="152" y="694"/>
			<point x="152" y="694" type="curve"/>
			<point x="78" y="694" type="line"/>
			<point x="78" y="694"/>
			<point x="78" y="694"/>
		</contour>
	</outline>
</glyph>
<glyph name="sfthyphen" format="2">
	<advance width="326"/>
	<outline>
		<contour>
			<point x="271" y="193" type="curve"/>
			<point x="271" y="212.314"/>
			<point x="271" y="231.628"/>
			<point x="271" y="251" type="curve"/>
			<point x="271" y="251"/>
			<point x="271" y="251"/>
			<point x="271" y="251" type="curve"/>
			<point x="184.42" y="251"/>
			<point x="97.84" y="251"/>
			<point x="11" y="251" type="curve"/>
			<point x="11" y="251"/>
			<point x="11" y="251"/>
			<point x="11" y="251" type="curve"/>
			<point x="11" y="231.686"/>
			<point x="11" y="212.372"/>
			<point x="11" y="193" type="curve"/>
			<point x="11" y="193"/>
			<point x="11" y="193"/>
			<point x="11" y="193" type="curve"/>
			<point x="97.58" y="193"/>
			<point x="184.16" y="193"/>
			<point x="271" y="193" type="curve"/>
			<point x="271" y="193"/>
			<point x="271" y="193"/>
		</contour>
	</outline>
</glyph>
